<svg width="48" height="48" fill="none" xmlns="http://www.w3.org/2000/svg"><path fill="#F6F6F6" d="M0 0h48v48H0z"/><path fill-rule="evenodd" clip-rule="evenodd" d="M18.261 14.905c-.363-.354-.544-.95-.703-1.335-.522.314-1.186.73-1.76 1.066.935.572 1.559 1.825 1.742 3.198a206.564 206.564 0 004.221-2.492c.608-.373 1.538-.914 2.21-1.302 2.18 1.266 4.17 2.415 6.434 3.775.303-1.669.74-2.442 1.724-3.188-.538-.324-1.207-.73-1.76-1.076-.053.223-.218.77-.355.978-.657 1.006-2.039 1.156-3.026.725-.59-.26-1.033-.758-1.076-1.446-.061-.984.556-1.681 1.113-2.075A149.373 149.373 0 0023.98 9.98c-.825.48-2.253 1.29-3.05 1.742.327.318.688.581.972 1.238.131.306.311.807.027 1.336-.752 1.4-2.686 1.565-3.668.605v.003z" fill="#FECC00"/><path fill-rule="evenodd" clip-rule="evenodd" d="M14.062 14.557c-.175.19.067.318.15.351 1.65.633 1.959 1.244 2.151 2.522.147.969.07 1.055.058 1.375-.009.254.34.49.584.346 2.54-1.492 7.076-4.166 6.948-4.087 3.371 2.045 3.86 2.305 6.953 4.093.312.18.618-.098.596-.352-.097-1.02.052-1.818.41-2.521.379-.75.895-1.104 1.785-1.376.199-.045.275-.314.165-.373-1.803-.993-2.785-1.534-4.102-2.222-.192-.033-.275.07-.269.19.01.415 0 .78-.067 1.048-.147.615-.614 1.049-1.042 1.131-.459.092-1.247-.137-1.425-.706-.085-.281-.015-.532.01-.679.06-.421.72-1.075 1.35-1.44.11-.063.175-.207 0-.335C25.732 9.996 25.588 9.923 23.962 9c-1.29.73-2.626 1.525-4.343 2.53-.15.172-.09.255-.01.31 1.043.74 1.293 1.164 1.415 1.647.217.85-.864 1.339-1.405 1.244-1.248-.217-1.205-1.77-1.205-2.216 0-.08-.192-.153-.25-.208-1.785.975-2.437 1.327-4.102 2.253v-.003zm3.133 3.973c-.138.098-.355.138-.294-.165.294-1.228-.574-3.307-1.986-3.765 1.415-.78 1.968-1.092 3.038-1.678.027.693.128 1.011.339 1.381.789 1.385 3.454.984 3.267-.883-.052-.523-.51-1.03-1.118-1.547-.061-.091-.208-.217.06-.373 1.156-.66 2.318-1.338 3.47-2.008.764.425 1.476.856 3.442 2.023.26.144.14.288.06.361-.73.676-1.414 1.446-1.005 2.341.25.55 1.06.875 1.703.896.807.028 1.586-.804 1.638-1.168l.15-1.024c1.256.725 1.537.866 3.044 1.654-.67.324-1.446.786-1.91 2.277a2.846 2.846 0 00-.052 1.52c.034.146-.015.308-.321.183-2.733-1.611-3.781-2.225-6.758-3.968-2.418 1.422-4.343 2.559-6.767 3.946v-.003z" fill="#007842"/><path fill-rule="evenodd" clip-rule="evenodd" d="M16.28 20.126c-.183.165-.161.287-.057.54.562 1.385-.97 4.002-.327 7.816.372 2.226 2.179 4.656 3.87 6.315.094-.07.14-.281.21-.345-1.464-1.43-2.699-3.151-3.304-4.985-1.113-3.369-.104-5.404.061-7.382l.058-.666c0-.019-.085-.734-.095-.786-.009-.046-.036-.174.016-.205 2.488-1.247 4.927-2.665 7.256-4.114 1.641.939 2.61 1.611 4.267 2.546.675.38 1.932 1.122 2.974 1.575.058.06.061.152-.015.305-.156.318-.129 2.415.25 2.947.046.006.172.006.373.006-.183-.743-.486-2.222-.113-3.017.086-.18.025-.4-.07-.523-.553-.44-1.015-.513-1.373-.721-3.288-1.907-3.175-1.755-6.302-3.622-1.96.93-5.04 3.026-6.297 3.613-.486.226-.935.498-1.381.703z" fill="#007842"/><path fill-rule="evenodd" clip-rule="evenodd" d="M17.198 20.74c.223.884-.162 2.864-.459 4.23-.088.606-.226 1.816.297 2.26.162.137.623.082.78 0 1.298-.716 3.719-2.434 4.728.115.773 2.036.962 5.493.773 7.798-.147-1.532-.752-7.706-3.512-6.86-.957.297-2.152.63-2.998-.204.537 2.31 1.57 4.294 3.267 5.954.26-.694.33-1.012.495-1.473-.425-1.177-1.268-2.31-1.381-3.604.226 0 .745-.253 1.03-.162.642.202 1.042.734 1.033 1.43-.028 1.932-.046 2.883-.01 5.08l2.5 2.305V17.042c-3 1.745-4.162 2.424-6.546 3.695l.003.003zm2.314 1.59c.544-.96.92-1.055 1.742-1.122.024 1.057.024 3.02 0 4.13-.917-.117-1.388.082-2.115.46-.389-.803.08-2.955.373-3.468z" fill="#007842"/><path fill-rule="evenodd" clip-rule="evenodd" d="M31.27 26.853c.138-.134.38-.461.45-.687.339 1.751-.444 3.588-.973 4.581-1.525 2.877-4.46 5.438-6.767 7.678-1.37-1.302-1.898-1.833-2.748-2.659 0 .162-.131.388 0 .526C22.516 37.6 23.36 38.355 24.017 39c1.067-.975 2.133-2.259 3.185-3.191 2.705-2.396 6.095-7.064 4.857-10.796a.819.819 0 00-.303-.015c-.315.67-.501 1.599-1.293 1.7-1.983-.768-2.314-1.752-3.78-1.349-.01-2.656 0-2.179-.007-4.132 2.066 1.122 2.409 1.275 4.233 2.305 0-.382-.397-1.611-.183-2.81-2.158-1.167-3.13-1.705-6.52-3.63v20.564c1.1-1.076 2.657-2.366 4.06-4.038 1.124-1.338 2.057-2.73 2.393-3.903l.461-1.617c-.522.514-1.51.66-2.445.245-1.742-.777-2.662.794-3.28 2.366-.547 1.43-.562 3.117-.755 4.499-.094-1.535-.088-3.396.019-4.292.146-1.222.312-2.368.752-3.49.583-1.498 1.727-1.599 2.671-1.247.963.36 2.283 1.506 3.063.895.052-.037.058-.143.122-.208l.003-.003zm-4.527 6.56c.01-1.95-.036-2.424.034-3.852.535-.687 1.042-1.02 1.962-.596-.076 1.214-1.067 3.283-1.996 4.448z" fill="#007842"/></svg>