<svg width="48" height="48" fill="none" xmlns="http://www.w3.org/2000/svg"><path fill="#F6F6F6" d="M0 0h48v48H0z"/><path d="M39.941 25.354a2.988 2.988 0 00-.047-.474v-.049c-.42-3.063-3.225-6.082-5.694-7.243-1.473-.868-3.3-1.202-4.906-1.495-1.399-.254-2.72-.496-3.628-1.038a3.77 3.77 0 00-.298-.177c-.11-.059-.188-.107-.277-.162a10.282 10.282 0 01-1.548-1.438 4.73 4.73 0 01-.655-1.027L22.762 12v13.507h1.453v-9.58c.254.234.535.437.836.604.808.476 2.206.736 3.688 1.014 1.557.292 3.167.594 4.454 1.172 3.17 1.438 5.133 4.816 5.331 6.696 0 .077 0 .154.013.23.014.075.012.122.012.175v1.99H25.395v6.722h.037a8.2 8.2 0 001.212-.085h.115V29.11H40v-1.365c0-.732 0-1.636-.059-2.39z" fill="#CD1F45"/><path d="M39.366 30.23H27.754v1.38h7.949c-.312.277-.64.535-.984.772-2.83 1.838-6.539 2.867-10.462 2.895v-8.44H37.58v-1.483H15.19c.03-.4.088-.8.171-1.193.028-.141.057-.29.083-.402a6.83 6.83 0 01.334-1.047l.206.068c.266.089.538.189.825.268.707.22 1.43.384 2.162.49l.2.029c.62.122 1.247.208 1.876.259.555.047 1.11.073 1.722.098v-1.59a22.135 22.135 0 01-1.576-.103 17.863 17.863 0 01-1.786-.23 2.056 2.056 0 01-.424-.059 14.153 14.153 0 01-2.156-.551 2.277 2.277 0 01-.266-.076l-.09-.028c.081-.153.173-.294.27-.443.035-.057.073-.114.11-.172a9.125 9.125 0 012.147-2.182 8.63 8.63 0 013.63-1.51H22.77v-1.64l-.036.012a.88.88 0 01-.12.024.817.817 0 00-.133.03c-1.18.086-2.353.25-3.51.493-.734.161-1.456.371-2.161.629-.482.146-.955.32-1.416.522-.39.172-.82.378-1.353.66-.725.387-1.419.829-2.076 1.322a11.873 11.873 0 00-2.427 2.487 8.783 8.783 0 00-1.132 2.169A7.426 7.426 0 008 26.084v.025c0 2.582 1.404 5.096 3.963 7.08l.46.324.435.307c.28.176.583.35.875.517l.306.178c.378.198.776.377 1.167.549l.188.083c.412.189.848.347 1.416.547.713.238 1.44.442 2.16.608 1.704.378 3.444.567 5.189.564 4.34 0 8.403-1.132 11.438-3.157.584-.375 1.135-.8 1.646-1.27.727-.68 1.42-1.396 2.076-2.146l.047-.06h-.011l.01-.002zm-25.49-10.598c.07-.039.137-.082.2-.128.403-.242.839-.46 1.262-.672l.088-.045c.363-.19.717-.323 1.093-.474l.315-.13.108-.038-.148.147a10.557 10.557 0 00-1.415 1.733c-.072.102-.14.213-.204.32a3.12 3.12 0 01-.188.285 5.02 5.02 0 01-.912-.64 3.18 3.18 0 01-.287-.309l.089-.049zm-3.953 4.565a6.92 6.92 0 01.917-1.77 11.03 11.03 0 011.437-1.595c.086-.079.149-.137.224-.211.425.519.947.95 1.536 1.27l.066.044c.073.05.149.098.227.141-.12.291-.222.59-.308.893l-.034.119a6.486 6.486 0 00-.188.755c-.096.5-.166 1.004-.21 1.511H9.644c.054-.394.148-.781.28-1.157zm3.038 7.072l-.01.015a7.423 7.423 0 00-.31.413c-.213-.189-.434-.377-.629-.577-1.37-1.306-2.166-2.746-2.368-4.283h3.946c.057.801.2 1.593.428 2.363.083.34.195.67.336.99-.049.033-.098.063-.149.095-.05.033-.107.067-.162.104h-.028c-.386.249-.74.544-1.054.88zm3.871 2.751c-.48-.173-.95-.376-1.406-.606l-.188-.096a15.079 15.079 0 01-1.167-.622.532.532 0 01-.13-.082c.038-.045.075-.1.115-.156l.089-.132c.224-.227.473-.428.742-.599l.086-.05.082-.046c.054.08.107.168.16.253.053.085.11.189.166.262.415.612.89 1.182 1.417 1.7.064.08.132.157.206.227a1.183 1.183 0 00-.172-.053zm5.934 1.172l-.083-.017c-.268-.052-.544-.105-.823-.177a8.017 8.017 0 01-1.8-.693 9.03 9.03 0 01-3.209-2.83 6.52 6.52 0 01-.349-.54c.06-.027.12-.047.189-.072l.141-.051a22.27 22.27 0 012.154-.566 25.039 25.039 0 013.774-.434l.006 5.38zm0-6.983a24.928 24.928 0 00-3.795.427c-.73.134-1.45.308-2.161.519-.34.1-.675.22-1 .36-.125-.337-.221-.66-.323-1.002l-.042-.137a14.142 14.142 0 01-.255-1.54h7.576v1.373z" fill="#174963"/></svg>