<svg width="48" height="48" fill="none" xmlns="http://www.w3.org/2000/svg"><path fill="#3AAA35" d="M0 0h48v48H0z"/><path d="M23.768 10v6.273L28.875 10h-5.107zM32.522 10.866l-8.753 10.757v2.68c.012-.074.023-.149.039-.225l.114-.474a6.05 6.05 0 01.934-1.9l.298-.355a5.177 5.177 0 011.103-.87c.222-.118.434-.21.666-.3.515-.149.957-.21 1.5-.194l.504.07c.42.099.766.227 1.144.423.21.122.399.248.59.392.571.481.968.99 1.314 1.625l.197.428c.161.405.273.998.35 1.396V10.866z" fill="#fff"/><path d="M28.162 28.284c-1.15 0-2.09-1.328-2.09-2.954 0-1.627.94-2.955 2.09-2.955 1.155 0 2.098 1.328 2.098 2.955 0 1.626-.943 2.954-2.098 2.954zm0-7.321c-1.911 0-3.472 1.961-3.472 4.364 0 2.407 1.56 4.369 3.472 4.369 1.917 0 3.478-1.962 3.478-4.37 0-2.4-1.56-4.363-3.478-4.363z" fill="#fff"/><path d="M23.922 27.056l-.114-.478-.04-.22V31.6h8.754v-5.216c-.109.555-.28 1.24-.546 1.782l-.236.407a5.233 5.233 0 01-1.265 1.354l-.404.255a4.713 4.713 0 01-1.144.423 5.226 5.226 0 01-.765.076 4.799 4.799 0 01-1-.132 6.06 6.06 0 01-.691-.255 4.965 4.965 0 01-1.314-.983l-.301-.359a6.01 6.01 0 01-.934-1.896zM12 30.738l8.751-10.758V17.3c-.008.075-.024.149-.034.223l-.116.474a6.105 6.105 0 01-.933 1.902l-.301.355a4.978 4.978 0 01-1.101.869 5.64 5.64 0 01-.667.3c-.516.15-.956.209-1.5.193l-.503-.067a4.673 4.673 0 01-1.145-.426 5.825 5.825 0 01-.592-.392 5.43 5.43 0 01-1.31-1.623l-.2-.429c-.158-.402-.274-.996-.349-1.396v13.454z" fill="#fff"/><path d="M16.357 13.317c1.154 0 2.093 1.327 2.093 2.957 0 1.628-.939 2.953-2.093 2.953-1.153 0-2.093-1.325-2.093-2.953 0-1.63.94-2.957 2.093-2.957zm.002 7.322c1.914 0 3.475-1.958 3.475-4.365 0-2.406-1.56-4.366-3.476-4.366-1.913 0-3.473 1.96-3.473 4.366-.002 2.405 1.56 4.365 3.473 4.365z" fill="#fff"/><path d="M20.6 14.549l.116.477c.011.075.026.148.035.218v-5.242H12v5.219c.11-.556.283-1.245.549-1.783l.234-.407a5.302 5.302 0 011.265-1.356l.403-.255c.38-.195.723-.323 1.145-.421.26-.044.498-.07.762-.077.354.01.658.05 1.005.133.239.073.46.154.688.253.52.273.918.575 1.316.984l.302.356a6.17 6.17 0 01.932 1.901zM20.75 25.331L15.647 31.6h5.105V25.33zM30.05 10L12.507 31.6h1.937L32.026 10H30.05z" fill="#fff"/><path d="M22.894 30.114H20.63V31.6h2.265v-1.486z" fill="#fff"/><path d="M33.397 30.114V31.6c1.027 0 1.743.97 1.743 1.985 0 1.014-.835 1.981-1.86 1.981-.756 0-1.448-.168-2.88-.52-2.78-.68-6.198-1.52-8.94-2.19-4.923-1.21-9.44.16-9.458 3.358h1.5c0-1.188 2.303-1.977 7.237-.77l9.084 2.229c2.12.52 3.86.395 5.11-.201l.004.004c1.251-.605 2.11-2.07 2.11-3.54 0-2.056-1.57-3.822-3.65-3.822z" fill="#fff"/></svg>