<svg width="48" height="48" fill="none" xmlns="http://www.w3.org/2000/svg"><path fill="#3A913F" d="M0 0h48v48H0z"/><path fill-rule="evenodd" clip-rule="evenodd" d="M14.5 36.5c0-1.105.902-2 2.015-2h14.97c1.113 0 2.015.895 2.015 2s-.902 2-2.015 2h-14.97a2.007 2.007 0 01-2.015-2zM24.8 13.716c-3.85 0-6.97 3.037-6.97 6.784s3.12 6.784 6.97 6.784c1.954 0 3.717-.78 4.985-2.045a2.207 2.207 0 013.062-.035c.856.813.872 2.148.037 2.98a11.424 11.424 0 01-8.085 3.316c-6.24 0-11.299-4.925-11.299-11s5.059-11 11.3-11c3.12 0 5.949 1.235 7.991 3.224a2.069 2.069 0 010 2.981 2.207 2.207 0 01-3.063 0 7.036 7.036 0 00-4.929-1.989z" fill="#fff"/></svg>