<svg width="48" height="48" fill="none" xmlns="http://www.w3.org/2000/svg"><path fill="#2E3F4B" d="M0 0h48v48H0z"/><path fill-rule="evenodd" clip-rule="evenodd" d="M11 29.353V37h1.53v-1.53h9.177v-6.117H11zm9.177 4.588H12.53v-3.058h7.647v3.058zm16.824-6.117H11v-1.53h26v1.53zm-2.295-16.819V11H37v13.765h-1.53V12.53l-3.057 3.059v9.176h-1.53V12.53l-3.059 3.059v9.176h-1.53v-9.941L30.119 11h2.295V13.3l2.293-2.295zM17.12 24.765H11v-9.94L11 14.824 14.824 11h2.295v13.765zm-1.53-1.53V12.53l-3.059 3.059v7.646h3.06zM24.765 11h-6.117v13.765h6.117V11zm-4.588 1.53h3.059v10.706h-3.059V12.53zm3.059 22.94v-6.117h13.765v6.118h-6.118V37h-1.53v-1.53h-6.117zm6.117-4.587h-4.588v3.058h4.588v-3.058zm1.53 3.058h4.588v-3.058h-4.588v3.058z" fill="#fff"/></svg>