<svg width="48" height="48" fill="none" xmlns="http://www.w3.org/2000/svg"><path fill="#0068B4" d="M0 0h48v48H0z"/><path d="M19.958 22.593c.468-.652.891-1.328 1.392-1.939 1.912-2.327 4.124-4.307 6.816-5.698.408-.21.885-.323 1.344-.39.568-.085.943.252 1.026.823.025.18.037.36.036.54 0 6.865.001 13.729.004 20.593 0 .465-.01.475-.457.475H15.546c-1.986-.004-3.64-1.134-4.278-2.934a4.12 4.12 0 01-.253-1.341c-.017-5.825-.02-11.65-.007-17.474.006-2.234 2.001-4.2 4.239-4.238.278-.004.556.005.834-.006.211-.01.307.058.3.29-.012.422-.01.845 0 1.268.005.223-.094.295-.306.29a6.913 6.913 0 00-.943.02c-1.384.164-2.279 1.2-2.28 2.626v16.967c0 1.604 1.072 2.687 2.679 2.688 4.265.006 8.53.006 12.796 0h.358v-18.48c-.075.022-.147.049-.217.083-3.141 1.817-5.69 4.23-7.41 7.454-.732 1.371-1.142 2.837-1.125 4.408.013 1.184 0 2.369 0 3.553a2.79 2.79 0 01-.016.398c-.082.57-.45.9-.967.875-.501-.025-.855-.412-.87-.977-.01-.604-.004-1.208-.004-1.813 0-6.416-.003-12.832-.008-19.248 0-.32.083-.407.403-.406 4.93.01 9.861 0 14.792.01 2.392.003 4.369 1.962 4.373 4.356.01 5.739.01 11.478 0 17.218-.006 2.446-1.934 4.36-4.404 4.411-.97.02-.97.02-.969-.936 0-.908 0-.908.917-.908 1.494 0 2.615-1.114 2.615-2.606V15.544c0-1.623-1.069-2.694-2.703-2.695-3.155-.003-6.308-.003-9.462 0-1.111 0-2.223.005-3.335-.005-.25 0-.37.044-.37.333.009 3.106 0 6.211 0 9.316a.502.502 0 00.033.1z" fill="#fff"/></svg>