<svg width="48" height="48" fill="none" xmlns="http://www.w3.org/2000/svg"><path fill="#F6F6F6" d="M0 0h48v48H0z"/><path d="M36.9 36.2c-1.8 1.05-4.1.4-5.15-1.4l-10.9-18.9c-1.05-1.8-.4-4.1 1.4-5.15 1.8-1.05 4.1-.4 5.15 1.4l10.9 18.9c1 1.8.4 4.1-1.4 5.15z" fill="#0A55A3"/><path d="M11.35 36.2c1.8 1.05 4.1.4 5.15-1.4l10.9-18.9c1.05-1.8.4-4.1-1.4-5.15-1.8-1.05-4.1-.4-5.15 1.4l-10.9 18.9c-1 1.8-.4 4.1 1.4 5.15z" fill="#18A9E2"/><path d="M24.05 36.7a3.85 3.85 0 100-7.7 3.85 3.85 0 000 7.7z" fill="#F8AD3B"/><path d="M26.65 11.2c-.05 0-.05 0 0 0-.1-.1-.2-.15-.3-.2-.05-.05-.1-.05-.1-.1-.05-.05-.1-.1-.2-.1-.05-.05-.15-.05-.2-.1-.05 0-.1-.05-.1-.05-.1-.05-.15-.05-.25-.1 0 0-.05 0-.05-.05-.1-.05-.2-.05-.3-.1h-.05c-.1 0-.2-.05-.3-.05h-.1c-.1 0-.15 0-.25-.05h-.7c-.1 0-.15 0-.25.05h-.1c-.1 0-.2.05-.3.05h-.05c-.1.05-.2.05-.3.1 0 0-.05 0-.05.05-.1.05-.15.05-.25.1-.05 0-.1.05-.1.05-.05.05-.15.05-.2.1-.05.05-.1.1-.2.1-.05.05-.1.05-.1.1-.1.05-.15.1-.25.2 0 0-.05 0-.05.05-1.3 1.15-1.65 3.15-.75 4.7l3.25 5.65 3.25-5.65c1-1.6.65-3.6-.65-4.75z" fill="#1E3A6D"/></svg>