<svg width="48" height="48" fill="none" xmlns="http://www.w3.org/2000/svg"><path fill="#F6F6F6" d="M0 0h48v48H0z"/><path d="M16.397 14.636l2.671 6.016-4.366 1.94c.033-2.853.622-5.575 1.695-7.956zm8.69 3.343l-4.366 1.94-2.671-6.017c2.485.8 4.9 2.189 7.038 4.077zm6.983-3.1l-5.185 2.302c-1.799-1.698-3.856-3.098-5.949-4.085 3.924-.78 7.931.017 11.134 1.782zm6.81 7.04l-6.46 2.869a26.429 26.429 0 00-4.167-6.211l5.652-2.517a16.606 16.606 0 014.976 5.859zM7.854 25.174c.914-3.38 2.957-6.664 6.01-8.936-.67 2.214-1.012 4.679-.958 7.151l-4.018 1.785h5.941c-.02-.206-.043-.411-.058-.616l5.04-2.238 1.267 2.854h1.978l-1.593-3.588 5.038-2.238a24.398 24.398 0 014.092 5.826h5.441l3.586-1.593c.201.527.372 1.059.516 1.593H42a18.632 18.632 0 00-1.077-3.167c-4.151-9.348-15.095-13.56-24.442-9.408C11.014 15.026 7.308 19.778 6 25.174h1.853z" fill="#E9EBEC"/><path d="M28.667 29.831c0 3.353-.81 4.356-4.733 4.356-2.53 0-3.765-.417-4.323-1.612.527 1.353 1.776 1.818 4.47 1.818 3.988 0 4.81-1.018 4.81-4.426 0-2.364-.395-3.578-1.967-4.1 1.386.548 1.743 1.738 1.743 3.964z" fill="url(#paint0_radial-Banks-Banks-MBBank)"/><path d="M19.208 29.837c0 3.354.81 4.356 4.732 4.356 3.923 0 4.733-1.002 4.733-4.356 0-3.353-.81-4.355-4.733-4.355-3.923 0-4.732 1.002-4.732 4.355z" fill="url(#paint1_radial-Banks-Banks-MBBank)"/><path d="M24.316 31.642c.397 0 .58-.185.58-.78 0-.578-.183-.771-.58-.771h-.299v1.551h.299zm-1.823-5.024h2.767v1.188h-1.243v1.143h.58c1.293 0 1.823.586 1.823 1.944 0 1.174-.422 1.891-1.889 1.891h-2.038v-6.166z" fill="#fff"/><path d="M39.78 29.831c0 3.353-.81 4.356-4.733 4.356-2.53 0-3.765-.417-4.323-1.612.526 1.353 1.776 1.818 4.47 1.818 3.987 0 4.81-1.018 4.81-4.426 0-2.364-.396-3.578-1.968-4.1 1.386.548 1.743 1.738 1.743 3.964z" fill="url(#paint2_radial-Banks-Banks-MBBank)"/><path d="M30.32 29.837c0 3.354.81 4.356 4.733 4.356 3.923 0 4.732-1.002 4.732-4.356 0-3.353-.81-4.355-4.732-4.355-3.924 0-4.733 1.002-4.733 4.355z" fill="url(#paint3_radial-Banks-Banks-MBBank)"/><path d="M35.426 31.7c.398 0 .58-.185.58-.78 0-.578-.182-.77-.58-.77h-.298v1.55h.298zm-1.822-5.024h2.766v1.189h-1.242v1.142h.58c1.292 0 1.823.586 1.823 1.945 0 1.173-.423 1.89-1.89 1.89h-2.037v-6.166z" fill="#fff"/><path d="M17.61 29.831c0 3.353-.81 4.356-4.733 4.356-2.53 0-3.764-.417-4.322-1.612.526 1.353 1.776 1.818 4.47 1.818 3.987 0 4.81-1.018 4.81-4.426 0-2.364-.396-3.578-1.968-4.1 1.386.548 1.743 1.738 1.743 3.964z" fill="url(#paint4_radial-Banks-Banks-MBBank)"/><path d="M8.15 29.837c0 3.354.81 4.356 4.733 4.356 3.924 0 4.733-1.002 4.733-4.356 0-3.353-.81-4.355-4.733-4.355-3.923 0-4.732 1.002-4.732 4.355z" fill="url(#paint5_radial-Banks-Banks-MBBank)"/><path d="M9.902 26.653h2.328l.48 3.056h.017l.489-3.056h2.37v6.167H14.11v-4.793h-.017L13.2 32.82h-.986l-.82-4.793h-.016v4.793H9.902v-6.167z" fill="#fff"/><defs><radialGradient id="paint0_radial-Banks-Banks-MBBank" cx="0" cy="0" r="1" gradientUnits="userSpaceOnUse" gradientTransform="matrix(8.39464 0 0 8.30146 23.544 34.317)"><stop stop-color="#324C9A"/><stop offset=".099" stop-color="#304892"/><stop offset=".491" stop-color="#304892"/><stop offset=".746" stop-color="#4BC2F1"/><stop offset=".953" stop-color="#4BC2F1"/><stop offset=".963" stop-color="#4BC2F1"/><stop offset="1" stop-color="#4BC2F1"/></radialGradient><radialGradient id="paint1_radial-Banks-Banks-MBBank" cx="0" cy="0" r="1" gradientUnits="userSpaceOnUse" gradientTransform="matrix(8.04972 0 0 7.33007 23.925 26.787)"><stop stop-color="#4D94CF"/><stop offset=".039" stop-color="#4D94CF"/><stop offset=".177" stop-color="#4D94CF"/><stop offset=".788" stop-color="#304892"/><stop offset=".838" stop-color="#304892"/><stop offset="1" stop-color="#4BC2F1"/></radialGradient><radialGradient id="paint2_radial-Banks-Banks-MBBank" cx="0" cy="0" r="1" gradientUnits="userSpaceOnUse" gradientTransform="matrix(8.39449 0 0 8.30132 34.657 34.317)"><stop stop-color="#324C9A"/><stop offset=".099" stop-color="#304892"/><stop offset=".491" stop-color="#304892"/><stop offset=".746" stop-color="#4BC2F1"/><stop offset=".953" stop-color="#4BC2F1"/><stop offset=".963" stop-color="#4BC2F1"/><stop offset="1" stop-color="#4BC2F1"/></radialGradient><radialGradient id="paint3_radial-Banks-Banks-MBBank" cx="0" cy="0" r="1" gradientUnits="userSpaceOnUse" gradientTransform="matrix(8.04972 0 0 7.33007 35.037 26.787)"><stop stop-color="#4D94CF"/><stop offset=".039" stop-color="#4D94CF"/><stop offset=".177" stop-color="#4D94CF"/><stop offset=".788" stop-color="#304892"/><stop offset=".838" stop-color="#304892"/><stop offset="1" stop-color="#4BC2F1"/></radialGradient><radialGradient id="paint4_radial-Banks-Banks-MBBank" cx="0" cy="0" r="1" gradientUnits="userSpaceOnUse" gradientTransform="matrix(8.39449 0 0 8.30132 12.488 34.317)"><stop stop-color="#324C9A"/><stop offset=".099" stop-color="#304892"/><stop offset=".491" stop-color="#304892"/><stop offset=".746" stop-color="#4BC2F1"/><stop offset=".953" stop-color="#4BC2F1"/><stop offset=".963" stop-color="#4BC2F1"/><stop offset="1" stop-color="#4BC2F1"/></radialGradient><radialGradient id="paint5_radial-Banks-Banks-MBBank" cx="0" cy="0" r="1" gradientUnits="userSpaceOnUse" gradientTransform="matrix(8.04972 0 0 7.33007 12.868 26.787)"><stop stop-color="#4D94CF"/><stop offset=".039" stop-color="#4D94CF"/><stop offset=".177" stop-color="#4D94CF"/><stop offset=".788" stop-color="#304892"/><stop offset=".838" stop-color="#304892"/><stop offset="1" stop-color="#4BC2F1"/></radialGradient></defs></svg>