<svg width="48" height="48" fill="none" xmlns="http://www.w3.org/2000/svg"><path fill="#ED1D24" d="M0 0h48v48H0z"/><path fill-rule="evenodd" clip-rule="evenodd" d="M13 33.396c-.555 0-1.11-.092-1.48-.37-1.479-.832-1.941-2.68-1.11-4.067l7.304-12.48c.555-.924 1.479-1.479 2.588-1.479 1.11 0 2.034.555 2.589 1.48l4.714 7.857 4.715-7.858c.832-1.479 2.773-1.849 4.16-1.11 1.479.833 1.941 2.682 1.11 4.068l-7.304 12.48c-.555.925-1.479 1.48-2.588 1.48-1.11 0-2.034-.555-2.589-1.48l-4.714-7.858-4.715 7.858c-.554.925-1.664 1.48-2.68 1.48z" fill="#fff"/></svg>