<svg width="48" height="48" fill="none" xmlns="http://www.w3.org/2000/svg"><path fill="#00BEF0" d="M0 0h48v48H0z"/><path d="M24 9C15.705 9 9 15.705 9 24s6.705 15 15 15 15-6.705 15-15c-.07-8.295-6.774-15-15-15zm-2.143 21.36l-1.106 3.248c-4.147-1.382-6.912-5.322-6.912-9.746s2.765-8.295 6.981-9.747l1.106 3.25c-2.765.898-4.562 3.524-4.562 6.428-.07 3.11 1.728 5.668 4.493 6.567zm5.115 3.386l-1.037-3.317c2.835-.899 4.7-3.526 4.7-6.498 0-2.973-1.865-5.53-4.63-6.429l1.106-3.318a10.253 10.253 0 017.05 9.747c0 4.493-2.903 8.433-7.189 9.815z" fill="#fff"/></svg>