<svg width="48" height="48" fill="none" xmlns="http://www.w3.org/2000/svg"><path fill="#008B3A" d="M0 0h48v48H0z"/><path fill-rule="evenodd" clip-rule="evenodd" d="M17.522 14.3L23.978 9l.039.085-6.181 5.796 6.815-5.123v.046l-6.77 6.188 7.698-5.548v.072l-7.28 6.501 7.88-5.88.053.045-7.318 6.502 7.926-5.927.046.053-7.188 6.723 7.913-6.194.046.059-7.22 6.756 7.977-6.149v.046l-7.305 6.77 8.005-6.084.052.072-7.292 6.593 7.932-6.057.046.046-7.305 6.77 7.638-5.75v.123l-7.01 6.384 6.808-5.175v.098l-6.005 5.567 5.423-4.097.04.06-4.614 4.75 8.181-6.417v.04l-7.43 7.043 8.142-6.488.053.052-7.6 7.018 8.266-6.384.065.032-7.475 6.972 8.214-6.338.052.046-7.508 7.005 8.194-6.365.052.046-7.436 6.854 8.09-6.292v.046l-7.462 6.913 8.115-6.22.06.078-7.371 6.808 8.089-6.214.078.059-7.586 6.959 8.07-6.305.032.13-7.52 6.979L39 23.264v.111l-7.717 6.783 7.652-5.62v.177l-7.528 6.534 7.318-5.227v.124l-8.788 7.35c.297-.972.494-1.973.588-2.985.04-1.065-1.078-2.49-1.078-2.49l-11.272-9.978c-1.908-2.051-.653-3.744-.653-3.744zm9.507 15.975l-11.395-10.33c-.85-1.263-.647-2.106-.366-3.271.06-.252.125-.518.183-.806L9.799 20.44a4.574 4.574 0 00.816 6.07l13.271 12.05 3.235-2.764s2.235-3.398-.092-5.522z" fill="#fff"/></svg>