<svg width="48" height="48" fill="none" xmlns="http://www.w3.org/2000/svg"><path fill="#E51E26" d="M0 0h48v48H0z"/><path d="M23.331 19.664s1.733-2.24 1.897-2.515c.166-.275.23-.496-.238-.79-.47-.292-2.038-1.212-2.35-1.45-.311-.24-.257-1.12.662-1.304.917-.183 8.886-.844 11.989-.514 3.103.332 2.68 1.213 2.699 1.928.018.716-1.248 1.745-2.938 3.268 0 0-2.79 2.59-4.828 4.37-2.04 1.781-8.557 7.27-9.824 8.263-1.267.991-6.179 4.646-6.498 4.885-.318.24-1.21.957-1.694.457-.486-.5 0-1.058.246-1.399.246-.34 10.143-14.318 10.877-15.199z" fill="#fff"/></svg>