<svg width="48" height="48" fill="none" xmlns="http://www.w3.org/2000/svg"><path fill="#F6F6F6" d="M0 0h48v48H0z"/><path fill-rule="evenodd" clip-rule="evenodd" d="M7 21.535l2.198-.736L7 19.683 24 14l17 5.683-2.198 1.106 2.198.736-2.198 1.103 2.198.736-2.005 1.005L41 25.04l-8.501 4.28v.225c0 2.921-3.805 5.293-8.499 5.293-4.694 0-8.499-2.372-8.499-5.293v-.225L7 25.05l2.005-.672L7 23.374l2.198-.736L7 21.535zm8.636.605c.715-2.48 4.19-4.363 8.364-4.363s7.649 1.883 8.364 4.363l4.245-2.131L24 15.782 11.391 20.01l4.245 2.13zm16.863 2.743v-.917c0 2.932-3.805 5.311-8.499 5.311-4.694 0-8.499-2.38-8.499-5.311v.917c0 2.934 3.805 5.314 8.499 5.314 4.694 0 8.499-2.38 8.499-5.314zm0 1.842v-.92c0 2.932-3.805 5.311-8.499 5.311-4.694 0-8.499-2.379-8.499-5.31v.919c0 2.932 3.805 5.31 8.499 5.31 4.694 0 8.499-2.378 8.499-5.31zm0 1.839v-.92c0 2.932-3.805 5.312-8.499 5.312-4.694 0-8.499-2.38-8.499-5.312v.92c0 2.932 3.805 5.311 8.499 5.311 4.694 0 8.499-2.379 8.499-5.311zm5.238-7.233L32.5 23.966v.917l6.336-3.182-1.095-.367-.003-.003zm0 1.84L32.5 25.804v.92l6.336-3.185-1.095-.367-.003-.003zM10.07 24.913l-1.098.37 6.53 3.28v-.92l-5.424-2.73h-.008zm.194-1.741l-1.098.367 6.336 3.185v-.92l-5.238-2.632zm0-1.84l-1.098.368 6.336 3.182v-.92l-5.238-2.63zm28.769 3.95l-1.098-.369-5.425 2.73v.92l6.523-3.28zm-6.533-2.265l6.305-3.167L24 14.89l-14.804 4.96 6.305 3.167v.07c0 2.934 3.808 5.313 8.502 5.313 4.693 0 8.498-2.379 8.498-5.313v-.07H32.5z" fill="#00604B"/><path fill-rule="evenodd" clip-rule="evenodd" d="M32.501 23.018v6.525c0 2.924-3.805 5.296-8.498 5.296-4.694 0-8.479-2.361-8.502-5.28v-.982c.008 2.927 3.81 5.314 8.499 5.314s8.499-2.38 8.499-5.314v-.933c0 2.935-3.805 5.314-8.499 5.314-4.694 0-8.491-2.374-8.499-5.3v-.92c0 2.927 3.81 5.3 8.499 5.3s8.499-2.379 8.499-5.313v-.92c0 2.935-3.805 5.314-8.499 5.314-4.694 0-8.491-2.374-8.499-5.3v-.92c0 2.926 3.81 5.3 8.499 5.3s8.499-2.379 8.499-5.313v-.92c0 2.934-3.805 5.314-8.499 5.314-4.694 0-8.491-2.364-8.499-5.301v-.907c0 2.932 3.81 5.306 8.502 5.306 4.027 0 7.403-1.751 8.279-4.105.14-.38.211-.782.212-1.188v-.07l.007.003z" fill="#D7B46A"/><path fill-rule="evenodd" clip-rule="evenodd" d="M29.675 20.163c1.188.775 1.912 1.79 1.912 2.907 0 1.116-.724 2.13-1.912 2.903v-1.09c.63-.517.992-1.147.992-1.808 0-.662-.362-1.292-.992-1.808v-1.104z" fill="#D7B46A"/></svg>