<svg width="48" height="48" fill="none" xmlns="http://www.w3.org/2000/svg"><path fill="#AB0873" d="M0 0h48v48H0z"/><path fill-rule="evenodd" clip-rule="evenodd" d="M27.014 12.316c0 .272.136.543.543.679 5.429 1.493 9.907 6.514 9.907 12.757 0 5.021-2.85 9.636-7.057 11.943-.407.271-1.221.271-1.221-.543v-5.157c.068-.343.102-.512.171-.666.068-.151.17-.287.371-.556 1.222-1.357 1.9-2.985 1.9-4.885 0-2.308-1.357-4.479-3.393-5.836-.407-.271-.95-.407-.95.407v9.636c0 .543-.27.95-.542 1.221l-6.514 6.107c-.815.814-1.63.679-2.443.136C13.578 34.98 11 30.366 11 25.752c0-5.157 3.121-9.5 7.6-11.671.34-.136.712-.272 1.086-.407a37.34 37.34 0 001.085-.408c.272-.135.543-.407.543-.678v-.679c0-.407.136-.678.407-.814.815-.543 1.493-1.018 2.172-1.493.678-.475 1.357-.95 2.171-1.493.543-.271.95 0 .95.407v3.8zm-5.764 7.39c-.207-.188-.547-.23-.886-.061-1.9 1.357-3.393 3.393-3.393 5.971 0 .58.078 1.15.222 1.702.396 1.517 1.299 2.904 2.493 3.998m1.564-11.61a.602.602 0 01.175.289c.016.06.025.124.025.193V31.18c0 .95-.52 1.07-1.377.448a5.467 5.467 0 01-.387-.312" fill="#fff"/></svg>