<svg width="48" height="48" fill="none" xmlns="http://www.w3.org/2000/svg"><path fill="#044684" d="M0 0h48v48H0z"/><path fill-rule="evenodd" clip-rule="evenodd" d="M25.265 19.057c-.215-.086-.474-.086-.733-.086h-.087V9h-.863v10.057c-.216 0-.475 0-.69.086l.043-6.82h-.82s.043 1.9-.216 6.95C17.367 20.265 14 24.236 14 28.984c0 3.626 1.77 6.647 4.575 8.46.031-.047.068-.093.106-.141.068-.087.141-.18.196-.29v.043c2.979-3.756 3.712-9.367 3.928-14.287-.475.13-.863.173-1.295.216-.82 5.438-3.28 9.02-5.352 11.222-.863-1.252-1.424-2.633-1.424-4.187 0-3.626 2.805-6.604 6.69-7.596a11.57 11.57 0 012.676-.303c.993 0 1.856.087 2.676.303a10.119 10.119 0 014.791 2.848c1.166 1.295 1.9 2.892 1.9 4.705 0 1.554-.562 2.935-1.511 4.187-1.986-2.245-4.532-5.87-5.353-11.223-.369-.037-.707-.105-1.067-.178l-.184-.037c.215 4.877.95 10.574 3.927 14.33.051.05.116.13.17.197.039.047.072.087.09.105 2.805-1.77 4.661-4.834 4.661-8.417 0-4.834-3.41-8.719-7.899-9.755-.345-5.093-.259-6.949-.259-6.949h-.82l.043 6.82zm1.252 18.171c-1.51-3.97-1.856-9.884-1.942-14.589h-1.036c-.043 4.619-.475 10.532-1.942 14.46-.103.206-.206.422-.314.647-.118.247-.242.506-.377.777.993.26 2.029.475 3.108.475 1.079 0 2.115-.216 3.107-.475-.086-.216-.194-.431-.302-.647-.108-.216-.216-.432-.302-.648z" fill="#fff"/></svg>