<svg width="48" height="48" fill="none" xmlns="http://www.w3.org/2000/svg"><path fill="#00549E" d="M0 0h48v48H0z"/><path d="M12.307 19.247a2.292 2.292 0 01.838-3.129l10.333-5.966a1.148 1.148 0 011.144.002l10.33 5.964a2.29 2.29 0 11-2.288 3.966l-8.615-4.974-8.615 4.974a2.29 2.29 0 01-3.127-.837z" fill="#EE3224"/><path fill-rule="evenodd" clip-rule="evenodd" d="M33.72 22.591H14.376c-.631 0-1.143.512-1.143 1.145v11.159a2.574 2.574 0 105.149 0v-7.727h3.09v7.727a2.576 2.576 0 005.15 0v-7.727h3.09v7.727a2.575 2.575 0 005.151 0V23.736c0-.633-.512-1.145-1.145-1.145z" fill="#fff"/></svg>