<svg width="48" height="48" fill="none" xmlns="http://www.w3.org/2000/svg"><path fill="#008FB4" d="M0 0h48v48H0z"/><path fill-rule="evenodd" clip-rule="evenodd" d="M21.606 13.683c.006-1.134.007-5.683.007-5.683 1.34 1.117 2.022 1.634 3.792 2.607l-.012 6.098c-1.549-.99-2.297-1.638-3.787-3.022zm-.801 16.828c5.67-2.864 8.405-8.103 8.405-8.103l-.02-1.756c-3.124-1.098-5.957-2.706-8.38-5.113.013 4.083-.005 14.972-.005 14.972zM16 38l15.027-.017-.008-14.876c-3.127 5.933-8.992 9.794-15.011 11.27C16.025 35.5 16 38 16 38z" fill="#fff"/></svg>