<svg width="48" height="48" fill="none" xmlns="http://www.w3.org/2000/svg"><path fill="#E4C310" d="M0 0h48v48H0z"/><path fill-rule="evenodd" clip-rule="evenodd" d="M23.12 17.343l14.478 7.104-14.478 7.104.657 1.344L41 24.447 23.777 16l-.657 1.343zm8.59 7.104l-10.654 5.214-10.654-5.214 10.654-5.213 10.654 5.213zm3.402 0l-14.056 6.879L7 24.447l14.056-6.878 14.056 6.878zm-21.533 0l7.477-3.588v3.588h-1.495v-1.104l-2.393 1.104 3.888 1.795v1.794l-7.477-3.589zm12.86-.897l-4.486 2.243v-1.672l1.143-.57-1.143-.572v-1.672l4.486 2.243z" fill="#fff"/></svg>