<svg width="48" height="48" fill="none" xmlns="http://www.w3.org/2000/svg"><path fill="red" d="M0 0h48v48H0z"/><path fill-rule="evenodd" clip-rule="evenodd" d="M26.965 11.736c-.5-1.362-1.1-2.725-3-2.725L23.976 9c-1.89 0-2.528 1.379-3.01 2.725l-1.588 4.352c-1.521 4.166-3.595 9.848-3.71 10.175a.291.291 0 00.161.37l2.888 1.12a.28.28 0 00.354-.167l1.244-3.426h7.328c.081.229.62 1.716.96 2.656l.279.77a.28.28 0 00.353.168l2.87-1.11a.286.286 0 00.164-.37l-5.304-14.527zm-3 1.698l-2.483 7.44h4.995l-2.512-7.44zm-8.69 19.81a.28.28 0 00-.275.285v3.185a.28.28 0 00.275.286h17.38a.28.28 0 00.28-.286V33.53a.28.28 0 00-.274-.287H15.275z" fill="#fff"/></svg>