<svg width="48" height="48" fill="none" xmlns="http://www.w3.org/2000/svg"><path fill="#7B7B7B" d="M0 0h48v48H0z"/><path fill-rule="evenodd" clip-rule="evenodd" d="M22.683 11.091c-.384.353-1.161.457-2.186.293-1.045-.169-1.7-.136-2.2.11-.225.111-.42.338-.422.491-.001.063-.003.064-.25.104-1.53.245-1.901.595-1.514 1.423.091.194.087.192.18.09.155-.171.485-.258.976-.257.556.001.841.12 1.1.454.064.085.073.088.258.117.793.12 1.537.633 1.924 1.325.35.627.374 1.94.053 2.852-.241.684-.825 1.47-1.242 1.671-.48.232-1.287-.014-1.867-.57-.305-.292-.354-.491-.2-.818.67-1.413.012-2.914-1.478-3.37-.492-.152-1.347-.09-2.212.157-2.39.684-3.778 2.742-3.988 5.908-.012.178-.027 1.323-.033 2.543-.022 3.846-.066 6.108-.129 6.46-.06.342-.168.56-.362.734-.17.154-.11.186.253.133 1.015-.147 2.698-.883 2.97-1.299.036-.053.109-.086.346-.154.809-.234 1.23-.853 1.353-1.989l.034-.324.19-.027c.899-.128 1.63-1.101 1.85-2.462l.013-.086.074.15c.31.637 1.104.649 1.828.028.122-.105.118-.107.15.06.13.691 1.002.791 1.754.202.165-.13.147-.131.217.018.032.069.12.23.195.36.152.26.152.264.022.285-1.34.22-2.1 1.2-2.175 2.802l-.014.292-.264.26c-.979.96-1.642 1.57-1.709 1.57a4.82 4.82 0 01-.246-.234c-.534-.526-.937-.722-1.21-.59-.099.047-.1.047-.213.008-.482-.166-1.042.083-1.043.464 0 .13.027.149.126.082.122-.083.308-.082.483.001.14.067.141.082.01.116-.658.168-.913.675-.547 1.09.084.096.1.089.12-.05.038-.282.385-.518.425-.289.05.283.172.339.8.364 1.212.048 1.53.183 1.602.682.057.393.144.507.411.54.186.023.159.275-.058.531l-.055.065.12.007c.582.03 1.197-.53 1-.912a3.36 3.36 0 00-.32-.36c-.833-.858-.805-.936.776-2.165.74-.576.9-.644 1.26-.541.223.063.24.06.479-.105.505-.348.982-.536 1.663-.654.18-.031.187-.026.093.071-.065.066-.316.541-.316.597 0 .01-.014.047-.03.082a9.002 9.002 0 00-.133.312c-.109.266-.316.755-.379.898a14.56 14.56 0 00-.119.281 12.24 12.24 0 01-.12.282c-.021.047-.075.174-.119.281-.044.107-.093.224-.11.26a61.519 61.519 0 00-.472 1.119c-.029.063-.117.27-.198.46a291.297 291.297 0 01-.661 1.559c-.232.546-.188.914.149 1.244.45.442 1.083.488 1.485.109.12-.114.163-.116.119-.008a1.174 1.174 0 00-.028.278c-.009.916 1.376 1.38 1.92.644.094-.126.126-.125.127.004 0 .035.02.123.046.195.336.948 1.823.84 1.997-.145.03-.174.045-.187.1-.097.524.846 2.123.245 1.956-.735a2.734 2.734 0 00-.036-.185c-.018-.061.02-.044.126.055.624.58 1.774.07 1.773-.785 0-.227-.053-.4-.26-.856a7.117 7.117 0 01-.104-.248 7.909 7.909 0 00-.132-.31 2.162 2.162 0 01-.067-.154c0-.008-.222-.532-.738-1.744a52.8 52.8 0 01-.322-.763 9.859 9.859 0 01-.1-.233 18.972 18.972 0 00-.09-.21l-.06-.141a20.555 20.555 0 01-.09-.211c-.031-.078-.075-.18-.096-.227a14.717 14.717 0 01-.12-.282 12.033 12.033 0 00-.12-.281c-.02-.048-.08-.188-.129-.313-.15-.378-.28-.635-.363-.72-.117-.12-.078-.122.428-.018.376.076.867.291 1.282.56.3.195.304.197.537.131.343-.096.498-.031 1.164.484l.314.242c.57.438.95.801 1.037.993.13.285.057.428-.518 1.017-.137.14-.268.29-.291.333-.202.376.372.916.975.916.13 0 .14-.012.072-.089-.088-.099-.174-.311-.167-.413l.007-.093.108-.012a.404.404 0 00.3-.156c.054-.071.074-.142.135-.47.077-.412.445-.552 1.57-.597.65-.026.825-.115.825-.418 0-.057.046-.059.162-.005a.44.44 0 01.254.383c.01.273.265-.102.266-.392 0-.35-.206-.551-.699-.68-.119-.032-.116-.053.018-.121a.5.5 0 01.467-.001c.12.067.139.059.139-.062 0-.394-.551-.65-1.038-.48-.116.04-.117.04-.214-.009-.27-.134-.657.05-1.192.57-.179.174-.273.252-.292.24-.177-.106-.548-.447-1.579-1.452l-.36-.351-.027-.352c-.13-1.64-.827-2.522-2.178-2.755-.114-.02-.117-.05-.018-.212.126-.205.263-.47.263-.505 0-.062.067-.059.137.007.693.649 1.815.518 1.815-.211 0-.111.022-.109.17.02.722.622 1.614.557 1.833-.133.02-.064.054-.042.067.043.207 1.352.943 2.313 1.865 2.439l.173.023.005.097c.064 1.27.517 1.97 1.45 2.24.173.05.2.065.332.192.509.49 1.903 1.086 2.896 1.238.356.055.458.014.284-.113-.445-.327-.474-.702-.501-6.36-.015-3.156-.027-3.574-.12-4.198-.109-.737-.315-1.526-.52-1.991l-.105-.242a5.153 5.153 0 00-3.873-3.017 88.629 88.629 0 00-.336-.056c-2.163-.36-3.652 1.484-2.763 3.423.179.39.056.657-.48 1.041-.738.528-1.447.56-1.923.088-.87-.863-1.266-2.09-1.1-3.407.147-1.169.985-2.01 2.188-2.195.176-.027.183-.03.242-.117.191-.277.525-.436.963-.457.492-.024.972.09 1.111.264.089.112.113.087.245-.25.22-.563.003-.878-.748-1.081l-.185-.05c-.11-.03-.599-.127-.787-.156-.05-.008-.087-.027-.094-.05-.216-.673-1.057-.883-2.577-.642-1.098.174-1.886.07-2.268-.298-.126-.121-.136-.112-.118.119.036.476.297.918.722 1.222.164.117.171.072-.05.336a8.172 8.172 0 00-1.277 2.192 9.024 9.024 0 00-.327 1.004c-.044.158-.131.565-.161.749-.08.483-.092.504-.127.22a8.563 8.563 0 00-1.796-4.162c-.171-.209-.206-.268-.16-.268.011 0 .094-.058.183-.13.405-.32.642-.766.642-1.204 0-.185-.001-.186-.134-.064z" fill="#FBFBFB"/></svg>