<svg width="48" height="48" fill="none" xmlns="http://www.w3.org/2000/svg"><path fill="#1D478C" d="M0 0h48v48H0z"/><path fill-rule="evenodd" clip-rule="evenodd" d="M31.814 11H16.22A5.211 5.211 0 0011 16.206v20.756h20.814A5.182 5.182 0 0037 31.756v-15.55C37.034 13.33 34.699 11 31.814 11zm-12.88 14.488h2.679v-4.692h-1.924l-.652 4.007c0 .172-.035.343-.068.502a5.183 5.183 0 00-.035.183zm6.045 0v3.7h-2.13v-1.679H17.56v1.678h-2.13v-3.699h1.237c.137-.17.24-.445.31-.89l.926-5.823h5.84v6.713h1.236zm4.053-2.98c.824 0 1.442.617 1.442 1.576 0 .959-.618 1.576-1.442 1.576-.79 0-1.443-.617-1.443-1.576 0-.96.618-1.575 1.443-1.575zm3.571 5.001V20.59h-2.095v.788a2.448 2.448 0 00-1.957-.925c-1.718 0-3.091 1.473-3.091 3.597 0 2.123 1.339 3.596 3.09 3.596.86 0 1.477-.342 1.924-.89v.753h2.13z" fill="#fff"/></svg>