<svg width="48" height="48" fill="none" xmlns="http://www.w3.org/2000/svg"><path fill="#55595A" d="M0 0h48v48H0z"/><path d="M23.045 34.693c-.786-6.578-.951-13.115-.951-19.694-.042 0-.083 0-.124-.041-.124.579-.249 1.117-.373 1.696-1.117 5.255-1.365 10.55-1.158 15.887.041 1.242.248 2.483.455 3.724.29 1.655 1.117 3.062 2.317 4.261.083.083.165.207.248.456-.248 0-.538.041-.786 0-.869-.166-1.614-.621-2.234-1.2-1.2-1.159-1.738-2.607-1.945-4.179-.165-1.241-.207-2.524-.33-3.806 0-.124 0-.248-.042-.497-.29.373-.455.662-.703.952-.828.993-1.573 1.2-3.062.62-.166-.04-.372-.29-.372-.455.124-2.027-.497-3.93-1.2-5.792-.91-2.524-.87-5.13-.662-7.737.083-1.117.29-2.234.538-3.31.248-.993.744-1.861 1.448-2.647 1.24-1.324 2.813-1.2 3.889.248.62.869.951 1.861 1.158 2.896.042.29.124.455.455.496.414.042.207.455.207.704 0 .124-.124.372-.248.372-.869.041-1.738 0-2.69 0 .125-.455-.248-.91.29-1.2.042-.041.083-.165.042-.207-.207-.827-.373-1.613-.662-2.44-.124-.373-.455-.745-.91-.621-.332.082-.704.372-.828.662-.29.744-.58 1.53-.662 2.317-.165 1.448-.165 2.854-.207 4.302 0 .166 0 .331.042.58.248-.414.455-.704.662-.993.827-1.076 1.861-1.035 2.565.165.372.62.579 1.324.827 2.027.083.29.083.621.58.456v1.034h-2.855v-1.034c.082 0 .207-.042.455-.042-.166-.538-.29-1.034-.497-1.53-.124-.332-.455-.249-.745-.125-.579.29-.992 1.117-.91 1.78.207 2.358.455 4.716.62 7.116.042.537-.04 1.075-.082 1.572-.041.372.166.496.455.496.538 0 .993-.29 1.2-.744.331-.828.62-1.655.869-2.524.083-.331.083-.704.124-1.117-.207-.042-.331-.042-.496-.083v-1.117h1.572c.33 0 .413-.124.496-.414.828-3.558 1.697-7.075 2.524-10.633.372-1.572.372-3.186.331-4.84-.331-.042-.62-.042-.952-.083V9h3.765v1.365c-.744.124-.744.124-.744.952.041 3.848.041 7.695.124 11.584.082 3.228.413 6.455 1.075 9.64.249-7.405 1.118-14.687 2.152-22.052-.207-.04-.373-.082-.62-.124v-.662V9h3.516v1.365c-.248.042-.455.042-.745.083 0 .124-.041.248-.041.372.124 2.524.207 5.048.33 7.572l.25 5.337c.123 2.482.206 4.965.33 7.447 0 .248.041.497.414.497.414 0 .372-.249.372-.497V14.09c0-.166-.041-.29-.041-.497-.331 0-.62-.04-.993-.04v-1.118H34.216c.497 0 .952.041 1.407-.331.165-.124.579-.165.745-.041.165.124.248.496.248.703-.124 1.614-.29 3.268-.455 4.882-.042.331-.125.662-.166.993h-.248c-.083-.331-.166-.62-.248-.952-.207-.993-.373-2.027-.62-2.978-.25-.87-.828-1.2-1.739-1.159-.248 0-.372.083-.372.331v6.91a.78.78 0 00.083.33c.703 1.159 1.53 2.152 3.061 2.193.662 0 .993.331.993 1.034v7.365c0 .869-.29 1.117-1.158 1.117h-5.585c.04.58.082 1.117.124 1.614.082.041.124.082.124.082.248.042.703.042.744.124.125.331.083.704.042 1.076 0 .083-.166.248-.248.248h-3.31V34.57c.165-.042.33-.042.579-.124-.29-6.744-.58-13.53-.869-20.315h-.124c-.993 6.744-1.655 13.53-1.779 20.356.248.041.455.041.662.083v1.406h-3.392c-.332 0-.497-.124-.456-.455v-.951c.331.165.538.124.786.124zm9.764-12.33v8.358c0 1.2 0 1.159 1.2 1.034.538-.082.87-.29.91-.827 0-.207.083-.373.083-.58 0-1.323.042-2.647 0-3.971 0-.331-.083-.703-.248-.993-.58-.993-1.241-1.945-1.945-3.02z" fill="#fff"/></svg>