<svg width="48" height="48" fill="none" xmlns="http://www.w3.org/2000/svg"><path fill="#F6F6F6" d="M0 0h48v48H0z"/><path d="M18.852 23.332c3.822-1.062 7.703-1.942 11.64-2.443 1.74-.215 3.495-.357 5.25-.31.768.03 1.539.087 2.291.253.524.12 1.057.28 1.491.607.14.123.322.25.332.456.102.73.101 1.468.139 2.202-.008.19.05.41-.094.564-.308.348-.748.534-1.157.734-1.199.538-2.446.956-3.674 1.421.029.003.03.005-.011.005l.011-.005c-.11-.012-.615-.046-.454-.071a27.699 27.699 0 002.807-1.788c.531-.398 1.059-.808 1.52-1.287-1.283-.383-2.631-.456-3.962-.516-3.086-.08-6.17.148-9.235.498-4.03.478-8.034 1.2-11.957 2.243A94.178 94.178 0 008 27.677a18.09 18.09 0 010-.382c1.844-.78 3.702-1.532 5.579-2.231 1.734-.646 3.486-1.246 5.272-1.732z" fill="#03539C"/><path fill-rule="evenodd" clip-rule="evenodd" d="M26.12 18c-2.044.082-4.07.41-6.07.824a63.006 63.006 0 00-3.208.766c-.78.21-1.558.42-2.324.674-1.99.652-3.933 1.435-5.86 2.25v.243c1.933-.666 3.894-1.257 5.89-1.704 2.039-.458 4.104-.8 6.18-1.039 2.042-.226 4.098-.376 6.153-.302.81.04 1.627.1 2.407.332a10.64 10.64 0 01-1.088.907l.177-.028a50.738 50.738 0 011.549-.228c.006-.019.015-.037.023-.055.02-.04.04-.082.036-.13-.006-.137-.01-.275-.015-.412a12.84 12.84 0 00-.075-1.206c-.021-.218-.226-.338-.401-.441l-.052-.03c-.667-.322-1.423-.376-2.152-.421h-1.17zm8.939 8.82a5.984 5.984 0 00-1.062-.102c-1.88-.082-3.76.155-5.607.488-1.91.352-3.794.838-5.649 1.413-1.757.55-3.501 1.16-5.164 1.957v.085l.001.345.147-.055c.799-.298 1.6-.597 2.425-.81 1.853-.492 3.717-.944 5.6-1.298 1.907-.353 3.842-.617 5.785-.582l.41.012c.805.032 1.607.118 2.404.236.129.02.258.038.387.056.46.066.922.132 1.367.27-.787.77-1.723 1.364-2.669 1.918-.56.316-1.124.628-1.716.878-.051.025-.102.049-.154.072-.142.065-.284.13-.41.223.209-.086.413-.184.616-.282.257-.123.514-.247.782-.346a43.2 43.2 0 011.494-.57c.612-.224 1.224-.448 1.823-.706l.114-.053c.265-.123.535-.249.74-.46.093-.09.086-.216.08-.337-.002-.035-.004-.07-.004-.102-.007-.135-.012-.27-.017-.404a9.466 9.466 0 00-.075-1.028c-.014-.114-.105-.19-.188-.261l-.032-.028c-.413-.314-.846-.409-1.428-.528z" fill="#A0A0A2"/></svg>