<svg width="48" height="48" fill="none" xmlns="http://www.w3.org/2000/svg"><path fill="#173A79" d="M0 0h48v48H0z"/><path fill-rule="evenodd" clip-rule="evenodd" d="M33.984 18.375l.31.07C37.653 19.426 40 22.562 40 26.06 40 30.438 36.436 34 32.06 34a7.893 7.893 0 01-3.867-1.01 8.294 8.294 0 002.633-2.53c.392.11.804.174 1.233.174a4.576 4.576 0 004.572-4.573 4.574 4.574 0 00-9.146 0c0 .554.105 1.087.285 1.58l-.043.096a4.259 4.259 0 01-2.581 2.221 7.907 7.907 0 01-1.029-3.897c0-1.627.417-3.244 1.404-4.5 1.225-1.31 1.836-1.982 2.14-2.34.873-.887 2.437-2.48 3.636-3.701l1.63-1.66 2.596 2.704c-.165.2-1.54 1.81-1.54 1.81zm-6.043 9.732c.555 1.036 1.423 1.871 2.544 2.235a7.996 7.996 0 01-2.891 2.6 7.864 7.864 0 01-3.684.908 7.906 7.906 0 01-3.692-.912 8.351 8.351 0 002.663-2.574 4.571 4.571 0 001.927.031c1.294-.258 2.478-1.147 3.133-2.288zm-5.424 2.177a4.541 4.541 0 01-2.395-1.816 4.539 4.539 0 01-.217-.354 4.593 4.593 0 01-2.994 2.206l-.011.002-.063.01a4.37 4.37 0 01-.895.091 4.575 4.575 0 01-4.574-4.568 4.579 4.579 0 014.574-4.571c.325 0 .65.04.973.11a8.259 8.259 0 011.545-1.703l.03-.024.011-.01a8.441 8.441 0 011.12-.821 7.931 7.931 0 00-3.68-.919C11.566 17.917 8 21.478 8 25.855s3.565 7.937 7.942 7.937a7.79 7.79 0 003.587-.865c.015-.008.031-.015.047-.021.017-.008.034-.015.05-.024.054-.026.105-.056.157-.086l.09-.053a8.046 8.046 0 002.644-2.46zm-6.547-4.372c0-2.514 1.18-4.76 3.012-6.217.35-.261.715-.5 1.105-.705l.27-.143-.027-.013a7.882 7.882 0 013.58-.859c1.262 0 2.506.311 3.622.886-.369.435-1.576 1.742-2.392 2.612-.239-.036-.92-.13-1.23-.13a4.578 4.578 0 00-4.572 4.569c0 .655.14 1.27.386 1.834a4.262 4.262 0 01-2.658 2.187 7.897 7.897 0 01-1.096-4.021z" fill="#fff"/></svg>