<svg width="48" height="48" fill="none" xmlns="http://www.w3.org/2000/svg"><path fill="#16488B" d="M0 0h48v48H0z"/><path fill-rule="evenodd" clip-rule="evenodd" d="M23.81 9C32 9 38.635 15.718 38.635 24c0 .738-.056 1.463-.157 2.174-2.701.646-4.723 1.122-5.881 1.253-.953.11-.866-.394-.788-.731.124-.522.294-1.063.526-1.924.58-2.183-1.246-1.251-2.067-.732-1.092.69-3.888 2.357-7.023 3.918-3.666 1.825-3.607-.086-2.733-1.41 1.724-2.616 6.563-7.227 8.211-8.682 2.562-2.257-.588-2.256-2.786-1.794-3.802.805-9.75 3.12-16.937 7.483C9.233 15.479 15.77 9 23.81 9zm5.798 18.734c.23.429.495.987 2.201.623 1.166-.25 4.268-1.117 6.6-1.77C37.199 33.638 31.128 39 23.81 39c-8.003 0-14.52-6.422-14.808-14.448 4.668-2.399 9.092-4.583 11.587-5.425.588-.199 3.359-1.115 1.574 1.363-1.936 2.687-3.707 5.477-5.118 8.529-.715 1.55-.764 2.42 1.541 1.893 1.417-.323 7.843-3.154 9.255-3.819 1.41-.663 1.536.207 1.767.64z" fill="#fff"/></svg>