<svg width="48" height="48" fill="none" xmlns="http://www.w3.org/2000/svg"><path fill="#399C9F" d="M0 0h48v48H0z"/><path fill-rule="evenodd" clip-rule="evenodd" d="M34.671 20.634c.934-.396 1.676-1.096 2.242-1.938 0 0 2.087-2.609 2.087-4.696-1.044 2.087-3.523 2.983-3.523 2.983a4.307 4.307 0 01-1.721.438 7.305 7.305 0 00-3.905-.935c-2.18.008-4.33.509-6.287 1.467a6.68 6.68 0 00-2.718-.532 10.155 10.155 0 00-6.96 2.802c-.542.523-1.868 1.868-1.868 2.616a.365.365 0 00.383.392.728.728 0 00.523-.206c1.532-1.616 3.466-3.363 5.96-3.363a5.372 5.372 0 011.868.327 10.687 10.687 0 00-3.279 7.287c.004.609.086 1.215.243 1.803-.934 1.027-2.924 2.578-4.512 2.578-.934 0-1.354-.392-1.354-.635a.065.065 0 01.065-.066c.39.158.804.246 1.224.262a2.933 2.933 0 002.886-2.961 2.569 2.569 0 00-2.68-2.579 4.176 4.176 0 00-1.995.527c-.61.34-1.194.77-1.567 1.36 0 0-.783 1.007-.783 2.609 0 2.967 2.752 3.684 2.752 3.684a5.353 5.353 0 002.153.237 14.787 14.787 0 006.67-1.868 7.658 7.658 0 002.802.495c4.447 0 9.613-3.84 9.613-7.847.009-.168.009-.336 0-.504a10.443 10.443 0 001.681-3.737zm-3.466 2.494c.424-.012.839.12 1.177.374.404-.751.661-1.572.757-2.42a16.705 16.705 0 00-3.4 1.542 5.083 5.083 0 00-2.401 3.54.608.608 0 00.672.691c1.196 0 3.429-1.915 3.737-2.307a.672.672 0 00-.738-.486 8.523 8.523 0 00-1.924.523c-.243 0-.374-.121-.374-.345 0-.523 1.663-1.112 2.494-1.112zm-5.54-3.185a7.78 7.78 0 013.924-1.355c.29.004.581.026.869.066a11.37 11.37 0 00-4.27 3.316 4.494 4.494 0 00-.522-2.027zm-4.95-1.766A8.407 8.407 0 0015.8 19.71a6.773 6.773 0 013.186-.766 7.333 7.333 0 012.484.411c.4-.341.825-.654 1.27-.934a8.402 8.402 0 00-2.026-.243zm2.438 11.799a14.944 14.944 0 002.251-3.27 2.42 2.42 0 002.13 1.158c1.355 0 3.12-1.158 4.213-2.335-.373 2.438-3.933 4.82-6.81 4.82a3.97 3.97 0 01-1.765-.373h-.02zm-11.5.177c.191 0 .343.058.515.124.224.085.482.184.905.184a2.156 2.156 0 002.14-2.186 1.785 1.785 0 00-1.925-1.812 3.737 3.737 0 00-2.538 1.221c-.655.723-1 1.516-.965 2.49 0 2.391 1.943 3.183 4.12 3.183a12.649 12.649 0 0011.042-7.53 2.403 2.403 0 010-.438 4.4 4.4 0 01.57-2.27 4.206 4.206 0 000-.477 4.54 4.54 0 00-.496-2.223 11.905 11.905 0 00-1.868 1.784 3.812 3.812 0 00-.766 1.617 13.46 13.46 0 01-1.13 2.27c-1.617 2.7-4.951 6.37-8.072 6.37-.934 0-2.157-.373-2.157-1.55a.652.652 0 01.625-.757z" fill="#fff"/></svg>