<svg width="48" height="48" fill="none" xmlns="http://www.w3.org/2000/svg"><path fill="#B6D43F" d="M0 0h48v48H0z"/><path fill-rule="evenodd" clip-rule="evenodd" d="M29.58 35.817h-7.875l-.133-5.849c-.03-1.383-.15-2.246-.355-2.592-.203-.346-.611-.508-1.258-.508l-3.979 8.958H9L19.043 13.18h6.98l-3.851 8.69a2.991 2.991 0 001.71-.65c.518-.395 1.56-1.548 3.125-3.461a18.909 18.909 0 012.954-3.036 7.805 7.805 0 013.196-1.321c1.32-.266 3.267-.4 5.843-.402l-2.148 4.791h-.354a5.784 5.784 0 00-2.954.68 9.184 9.184 0 00-2.398 2.199 13.946 13.946 0 01-2.204 2.273 8.006 8.006 0 01-2.284 1.182 3.341 3.341 0 011.882 1.705c.39.81.632 2.07.715 3.778l.325 6.21z" fill="#fff"/></svg>