<svg width="48" height="48" fill="none" xmlns="http://www.w3.org/2000/svg"><path fill="#526BA6" d="M0 0h48v48H0z"/><path fill-rule="evenodd" clip-rule="evenodd" d="M11 11h25.651v26H11V11zm25.15.625H11.494V36.33H36.15V11.625z" fill="#fff"/><path fill-rule="evenodd" clip-rule="evenodd" d="M14.306 16.842H12.25v17.28h2.02v1.192h20.724V12.853H14.306v3.99zm10.304.887h-1.65a679.583 679.583 0 00-6.536 6.228l-1.58 1.518c2.684 2.67 5.39 5.334 8.117 7.993h1.65a2108.257 2108.257 0 00-4.077-4.018c-1.348-1.326-2.694-2.65-4.033-3.975 2.688-2.587 5.406-5.181 8.11-7.746zm-3.328.036h-8.037v15.623h8.037c-2.608-2.63-5.18-5.268-7.753-7.905 2.572-2.566 5.145-5.13 7.753-7.718zm4.171 3.183h8.415V33.41h-8.415v-.138c.184.012.369.012.553 0 3.902 0 7.1-2.354 7.1-5.268 0-2.914-3.198-5.268-7.1-5.268h-.553v-1.788z" fill="#fff"/><path fill-rule="evenodd" clip-rule="evenodd" d="M25.97 24.509c1.126 0 2.02 1.693 2.02 3.8 0 2.107-.894 3.786-2.02 3.786-1.127 0-2.035-1.722-2.035-3.808 0-2.085.886-3.786 2.034-3.778z" fill="#B4966A"/><path fill-rule="evenodd" clip-rule="evenodd" d="M25.548 24.472c1.119 0 2.02 1.693 2.02 3.8 0 2.108-.901 3.78-2.02 3.78-1.12 0-2.035-1.715-2.035-3.801 0-2.086.909-3.793 2.035-3.779z" fill="url(#paint0_linear-Banks-Banks-KubanKredit)"/><defs><linearGradient id="paint0_linear-Banks-Banks-KubanKredit" x1="22.183" y1="23.455" x2="28.919" y2="33.076" gradientUnits="userSpaceOnUse"><stop stop-color="#B4966A"/><stop offset=".5" stop-color="#FEF0C7"/><stop offset="1" stop-color="#B4966A"/></linearGradient></defs></svg>