<svg width="48" height="48" fill="none" xmlns="http://www.w3.org/2000/svg"><path fill="#00858A" d="M0 0h48v48H0z"/><path d="M11.578 32.891l-1.002.877H35.891V11.913l-.825.706C15.54 29.321 13.861 30.84 12.667 31.92c-.3.273-.571.518-1.09.971z" fill="#00858A" stroke="#fff"/><path d="M34.894 21.832l.39.147.215-.357 1.93-3.218.587-.977-1.117.23-9.3 1.925c-.063.007-.125.02-.161.028h-.003a4.787 4.787 0 00-.088.02c-.22.042-.462.084-.724.13-1.643.286-4.041.704-6.213 1.78-2.717.8-5.7 1.687-7.97 2.62-1.136.466-2.127.957-2.822 1.473-.656.487-1.231 1.135-1.1 1.926l.015.088.044.078c.22.384.58.69.994.938.417.25.922.463 1.475.646 1.107.365 2.467.631 3.844.834 1.382.203 2.8.345 4.03.456l1.04.091c.773.067 1.413.123 1.858.178l.242.03.173-.172-.353-.354.354.354h0v-.001l.001-.001.002-.002.006-.006.016-.018.05-.056c.035-.041.093-.116.139-.207a.712.712 0 00.066-.2.582.582 0 00-.051-.358c-.13-.26-.381-.314-.523-.325-1.57-.316-2.785-.703-3.634-1.183-.847-.48-1.279-1.017-1.403-1.626-.12-.737.241-1.547.996-2.34.733-.77 1.771-1.447 2.827-1.908l.1-.02h.002c.074-.016.166-.039.272-.066.212-.054.495-.13.823-.221.655-.181 1.501-.423 2.345-.664h.001c.845-.242 1.688-.483 2.339-.663a42.606 42.606 0 01.944-.251l.168-.032c2.503.004 4.682.32 7.174 1.255z" fill="#D7B56D" stroke="#fff"/><path d="M28.636 24.903v1.287c.643.965 2.252 4.182 0 4.182v1.287c3.217 0 2.573-3.217 1.608-5.469h1.93v5.469h1.287v-6.756h-4.825zm-.322 1.287v-1.287H23.81v6.756h3.86c.644 0 .644-.965.644-1.609 0-.643-.643-2.573-.965-2.573h-1.287c0 .643 1.287 2.252.643 2.895h-1.608V26.19h3.217z" fill="#FEFEFE"/></svg>