<svg width="48" height="48" fill="none" xmlns="http://www.w3.org/2000/svg"><path fill="#004785" d="M0 0h48v48H0z"/><path fill-rule="evenodd" clip-rule="evenodd" d="M24.642 9C32.596 9.293 38.95 15.84 39 23.864a15.018 15.018 0 01-14.89 15.085A15.02 15.02 0 019 24.07 15.019 15.019 0 0123.274 9l.017 4.257a10.787 10.787 0 00-10.076 10.812 10.736 10.736 0 004.052 8.321l4.069-10.715-2.826.02s-.556-.113-.875.151l-.67.645s-.054-1.767.026-1.95c.08-.227.305-1.997 1.092-2.901.796-.871 2.064-.992 2.064-.992l9.041-.063-1.306 1.36 3.14 14.182a10.733 10.733 0 003.733-8.205 10.782 10.782 0 00-10.154-10.665L24.642 9zm-3.453 8.836c.272 0 .503.21.503.47a.485.485 0 01-.494.468c-.277.004-.503-.205-.503-.46 0-.264.218-.474.494-.478z" fill="#fff"/></svg>