<svg width="48" height="48" fill="none" xmlns="http://www.w3.org/2000/svg"><path fill="#87122B" d="M0 0h48v48H0z"/><path fill-rule="evenodd" clip-rule="evenodd" d="M23.026 31.62s-1.317 3.281-1.396 3.597a3.741 3.741 0 01-4.084 2.754 3.504 3.504 0 01-1.857-.448l.131-.224c2.692.34 2.87-.15 4.093-3.526l.03-.084c.62-1.712 2.438-6.679 2.438-6.679a3.596 3.596 0 01-2.477.988 2.74 2.74 0 01-3.017-2.898c0-3.136 2.899-5.19 6.02-5.19h.91l-.488 1.067h-.382a3.953 3.953 0 00-3.807 4.241c0 1.067.343 1.792 1.318 1.792 1.225 0 2.134-.922 3.056-3.478l1.936-5.27.686-1.949 1.172-3.149c.922-2.45 1.976-3.161 4.242-3.161a3.505 3.505 0 011.857.448l-.131.224c-2.635-.37-2.86.184-4.11 3.583l-2.253 6.323a3.622 3.622 0 012.516-.988 2.753 2.753 0 013.017 2.859c0 3.162-2.898 5.27-6.02 5.27h-.817l.395-1.068h.382a3.952 3.952 0 003.768-4.281c0-1.028-.343-1.752-1.318-1.752-1.225 0-2.174.922-3.083 3.478l-2.028 5.454-.699 2.068zm1.291-13.924a8.312 8.312 0 01-2.977 1.107 1.541 1.541 0 01-1.726-1.528 4.11 4.11 0 01.264-1.318l1.317-3.399-4.426 6.073h-.487l.105-6.073-2.24 5.955H12l3.083-8.484h1.976c.764 0 1.106.264 1.172.87v3.477l3.017-4.347h3.201l-2.134 5.796a4.23 4.23 0 00-.303 1.147c0 .46.264.724.606.724.637.041 1.272-.1 1.831-.408l-.132.408zm3.334 11.25a7.008 7.008 0 00-3.057.896l-.197.488a2.292 2.292 0 011.989-.37.883.883 0 01.685.91 5.27 5.27 0 01-.382 1.317l-2.042 5.784h2.332l.777-2.174 1.423-1.317 2.318 3.49h2.398l-3.254-4.755 4.479-4.11h-2.49l-3.873 3.728.277-.751a5.4 5.4 0 00.369-1.568 1.568 1.568 0 00-1.752-1.567z" fill="#fff"/></svg>