<svg width="48" height="48" fill="none" xmlns="http://www.w3.org/2000/svg"><path fill="#20345B" d="M0 0h48v48H0z"/><path fill-rule="evenodd" clip-rule="evenodd" d="M38.23 28.486a14.717 14.717 0 01-1.54 3.35c-6.124-.5-11.9.425-17.138 2.85l.578-4.159c5.584-2.002 11.63-2.926 18.1-2.04zm.693-4.544v.077c0 1.079-.116 2.118-.308 3.12-6.316-.77-12.516-.116-18.293 2.272l.5-3.659c5.546-1.964 11.554-2.811 18.101-1.81zm-.616-4.198c.27.886.423 1.772.539 2.696-6.277-.847-12.4-.154-17.83 1.964l.423-3.12c5.314-1.732 10.899-2.54 16.83-1.655l.038.115zm-2.08-4.351a15.31 15.31 0 011.54 2.811c-5.43-.655-10.82-.038-16.135 1.849l.423-2.966c4.544-1.502 9.32-2.04 14.172-1.694zm-3.89-3.813c1.117.732 2.08 1.656 2.966 2.658l-.039-.039c-4.467-.154-8.934.424-13.132 1.887l.424-2.927c3.004-.847 6.239-1.463 9.782-1.579zM23.943 9c2.58 0 5.045.655 7.163 1.81a37.619 37.619 0 00-8.434 1.656l.386-2.657C15.623 10.27 9.77 16.433 9.77 23.98c0 6.2 3.967 11.437 9.474 13.401l.231-1.655c4.968-2.042 10.398-3.158 16.483-2.696A14.99 14.99 0 0123.98 39C15.7 39 9 32.299 9 24.02 9 15.74 15.662 9 23.942 9z" fill="#fff"/></svg>