<svg width="48" height="48" fill="none" xmlns="http://www.w3.org/2000/svg"><path fill="#F6F6F6" d="M0 0h48v48H0z"/><path d="M12.692 16v14.808L23 20.5V16l-5.033-5-5.275 5zM31.346 11h-10.77l4.86 5v4.46l5.477 5.478 5.433-5.323V16l-5-5z" fill="#DA2D1C"/><path d="M24.423 21.77L10 36h10.962l8.846-8.846-5.385-5.385z" fill="url(#paint0_linear-Banks-Banks-Mosoblbank)"/><path d="M37.885 21.577L23.462 36h14.423V21.577z" fill="url(#paint1_linear-Banks-Banks-Mosoblbank)"/><path d="M25 36h-1.538l14.423-14.423V23.5L25 36z" fill="url(#paint2_linear-Banks-Banks-Mosoblbank)"/><path d="M11.539 36H10l14.423-14.23v1.73L11.539 36z" fill="url(#paint3_linear-Banks-Banks-Mosoblbank)"/><path d="M24.423 23.5v-1.73l5.495 5.662L21.346 36H10l2.692-1.154h7.693l7.692-7.692-3.654-3.654zM36.73 24.654l1.155-3.077V36H23.462l2.692-1.154H36.73V24.654z" fill="#DA2D1C"/><defs><linearGradient id="paint0_linear-Banks-Banks-Mosoblbank" x1="24.423" y1="21.962" x2="10.192" y2="36" gradientUnits="userSpaceOnUse"><stop stop-color="#fff"/><stop offset="1" stop-color="#AC8F65"/></linearGradient><linearGradient id="paint1_linear-Banks-Banks-Mosoblbank" x1="33.964" y1="21.772" x2="20.354" y2="31.418" gradientUnits="userSpaceOnUse"><stop stop-color="#fff"/><stop offset="1" stop-color="#AC8F65"/></linearGradient><linearGradient id="paint2_linear-Banks-Banks-Mosoblbank" x1="38.654" y1="21.192" x2="21.107" y2="29.9" gradientUnits="userSpaceOnUse"><stop stop-color="#fff"/><stop offset="1" stop-color="#AC8F65"/></linearGradient><linearGradient id="paint3_linear-Banks-Banks-Mosoblbank" x1="28.269" y1="18.5" x2="8.355" y2="28.526" gradientUnits="userSpaceOnUse"><stop stop-color="#fff"/><stop offset="1" stop-color="#AC8F65"/></linearGradient></defs></svg>