<svg width="48" height="48" fill="none" xmlns="http://www.w3.org/2000/svg"><path fill="#F6F6F6" d="M0 0h48v48H0z"/><path fill-rule="evenodd" clip-rule="evenodd" d="M38.95 25.128c-1.941 1.156-7.904 1.997-14.958 1.997s-13.016-.841-14.958-1.997a14.91 14.91 0 002.06 6.533c1.88-.825 6.666-1.411 12.273-1.411 7.016 0 12.746.917 13.107 2.072a14.915 14.915 0 002.477-7.194zm-3.006 7.937c-1.618.902-6.636 1.56-12.577 1.56-4.504 0-8.478-.378-10.841-.954A14.968 14.968 0 0023.992 39c4.879 0 9.213-2.329 11.952-5.935zm3.04-9.547C37.08 22.35 31.089 21.5 23.993 21.5c-7.096 0-13.087.851-14.992 2.018a14.92 14.92 0 012.247-7.431c1.41.955 6.581 1.663 12.745 1.663 6.165 0 11.336-.708 12.746-1.663a14.92 14.92 0 012.247 7.43zm-3.338-8.963A14.971 14.971 0 0023.992 9a14.971 14.971 0 00-11.653 5.555c2.186-.701 6.584-1.18 11.653-1.18 5.07 0 9.468.479 11.654 1.18z" fill="url(#paint0_radial-Banks-Banks-NBDBank)"/><defs><radialGradient id="paint0_radial-Banks-Banks-NBDBank" cx="0" cy="0" r="1" gradientUnits="userSpaceOnUse" gradientTransform="matrix(0 24.5064 -24.5255 0 25.059 14.684)"><stop stop-color="#FAC39D"/><stop offset=".04" stop-color="#F8B688"/><stop offset=".15" stop-color="#F49A5A"/><stop offset=".24" stop-color="#F08436"/><stop offset=".34" stop-color="#EE741C"/><stop offset=".42" stop-color="#ED6A0C"/><stop offset=".48" stop-color="#EC6707"/><stop offset=".73" stop-color="#EC6508"/><stop offset=".85" stop-color="#EB5D09"/><stop offset=".93" stop-color="#E9510D"/><stop offset="1" stop-color="#E74011"/></radialGradient></defs></svg>