<svg width="48" height="48" fill="none" xmlns="http://www.w3.org/2000/svg"><path fill="#00B3E1" d="M0 0h48v48H0z"/><path fill-rule="evenodd" clip-rule="evenodd" d="M24 9C15.714 9 9 15.714 9 24s6.714 15 15 15 15-6.714 15-15S32.286 9 24 9zm-3.145 22.379c.12.06.544.302.665.847.06.363 0 .726-.181 1.028-.242.363-.605.544-1.089.544a1.61 1.61 0 01-.726-.181l-.726-.302c-3.084-1.633-4.96-4.9-4.96-8.529v-1.512c0-3.629 1.936-6.956 4.96-8.589l.666-.302a1.61 1.61 0 01.726-.181c.483 0 .846.181 1.088.544.182.302.242.605.182 1.028-.121.605-.666.847-.666.847-1.814.786-2.963 2.661-2.963 4.718v5.322c.06 2.057 1.21 3.871 3.024 4.718zm8.347 1.875c3.084-1.572 4.96-4.9 4.96-8.528h-.122v-1.512c0-3.69-1.875-6.956-4.96-8.589l-.665-.302a1.61 1.61 0 00-.726-.182c-.483 0-.846.182-1.088.544-.182.303-.242.666-.182 1.029.121.604.666.847.666.847 1.814.846 2.963 2.66 2.963 4.717v5.323c0 2.056-1.149 3.87-2.963 4.718l-.05.04c-.132.1-.453.344-.555.806-.06.363 0 .726.181 1.029.242.362.605.544 1.089.544.242 0 .484-.06.726-.181l.726-.303z" fill="#fff"/></svg>