<svg width="48" height="48" fill="none" xmlns="http://www.w3.org/2000/svg"><path fill="#7AB75E" d="M0 0h48v48H0z"/><path fill-rule="evenodd" clip-rule="evenodd" d="M9 23.891C9 15.74 15.63 9 23.891 9v5.435c-5.217 0-9.456 4.239-9.456 9.456 0 5.218 4.239 9.566 9.565 9.566 5.217 0 9.565-4.24 9.565-9.566H39c0 8.261-6.63 15-14.891 15-8.479 0-15.109-6.739-15.109-15zm8.37 0a6.588 6.588 0 016.63-6.63 6.588 6.588 0 016.63 6.63 6.588 6.588 0 01-6.63 6.63 6.588 6.588 0 01-6.63-6.63zm15-12.174c-2.066 0-3.805 1.74-3.805 3.805 0 2.065 1.63 3.804 3.805 3.804 2.065 0 3.804-1.739 3.804-3.804 0-2.066-1.74-3.805-3.804-3.805z" fill="#fff"/></svg>