<svg width="48" height="48" fill="none" xmlns="http://www.w3.org/2000/svg"><path fill="#AD003E" d="M0 0h48v48H0z"/><path fill-rule="evenodd" clip-rule="evenodd" d="M35.956 14.375c1.588 0 2.272.75 2.448 2.206.044.353.574 5.978.574 5.978h-1.544s-.287-3.816-.309-3.97H35.25c-.022.176-.154 3.97-.154 3.97h-1.478l.286-8.184h2.052zm-.66 2.066c-.012.338-.024.688-.024.78h1.72c-.11-1.28-.286-1.478-1.39-1.478h-.286c0 .074-.01.38-.02.697zM17.89 25.603c1.588 0 2.272.75 2.448 2.206.03.25.276 2.85.436 4.538.079.825.136 1.433.138 1.44h-1.544s-.287-3.794-.31-3.97h-1.874c-.022.176-.155 3.97-.155 3.97h-1.477l.286-8.184h2.052zm3.022 8.184zm-3.66-6.096c-.012.338-.024.688-.024.78h1.698c-.088-1.28-.286-1.5-1.39-1.5l-.264.022c0 .074-.01.38-.02.698z" fill="#fff"/><path d="M9.176 14.375v8.184h1.5v-6.816h1.853v6.816h1.523v-8.184H9.175zM25.08 17.22h-.815c-.331 0-.596-.066-.75-.22a.58.58 0 01-.177-.441v-2.184h-1.5v2.338c0 .53.22.993.64 1.346.419.353.926.53 1.5.53h1.103v3.948h1.5v-8.162h-1.5v2.846zM28.257 14.375v1.368h1.258v6.816h1.522v-6.816h1.235v-1.368h-4.015zM26.052 25.625v2.603h-2.074v-2.603h-1.5v8.184h1.5v-4.213h2.073v4.213h1.5v-8.184h-1.5z" fill="#fff"/><path fill-rule="evenodd" clip-rule="evenodd" d="M10.654 28.316c.221-.022.442-.022.706-.022 2.36 0 2.713 1.853 2.692 2.735 0 .75-.354 2.78-2.625 2.78H9.133v-8.184h4.213v1.368h-2.692v1.323zm.023 4.17s.352.043.507.043c.419 0 1.412-.088 1.39-1.478 0-1.48-.835-1.479-1.591-1.477h-.064c-.132 0-.242.022-.242.022V32.485zM20.206 15.588c.309.596.507 1.434.53 2.603 0 0 0 .243.043.265 0 .728-.088 1.434-.242 2.007-.42 1.677-1.368 2.272-2.36 2.294h-.089c-.992-.022-1.94-.617-2.36-2.294a7.944 7.944 0 01-.243-2.007v-.265c.022-1.169.22-2.007.53-2.603.485-1.014 1.257-1.411 2.073-1.411h.044c.794.021 1.589.396 2.074 1.411zm-2.096-.066c-.595.022-1.125.75-1.147 2.956 0 2.162.552 2.912 1.147 2.912.596 0 1.125-.75 1.147-2.912-.022-2.206-.573-2.956-1.147-2.956z" fill="#fff"/><path d="M35.051 33.809l-1.808-4.787c.375-.287.661-.816.794-1.345.132-.53.287-2.03.287-2.03h-1.478c0 .155-.044.684-.089 1.191-.066.772-.308 1.5-1.103 1.5h-.617v-2.713h-1.5v8.184h1.5v-4.147h.904l1.478 4.147h1.633z" fill="#fff"/></svg>