<svg width="48" height="48" fill="none" xmlns="http://www.w3.org/2000/svg"><path fill="#BAA266" d="M0 0h48v48H0z"/><path fill-rule="evenodd" clip-rule="evenodd" d="M15.8 15.6a2.8 2.8 0 100-5.6 2.8 2.8 0 000 5.6zm6.926 14a2.8 2.8 0 11-5.6 0 2.8 2.8 0 015.6 0zm8.253 0a2.8 2.8 0 11-5.6 0 2.8 2.8 0 015.6 0zm-4.126-16.8a2.8 2.8 0 11-5.6 0 2.8 2.8 0 015.6 0zm5.452 2.8a2.8 2.8 0 100-5.6 2.8 2.8 0 000 5.6zM18.6 35.2a2.8 2.8 0 11-5.6 0 2.8 2.8 0 015.6 0zm5.453 2.8a2.8 2.8 0 100-5.6 2.8 2.8 0 000 5.6zm11.052-2.8a2.8 2.8 0 11-5.6 0 2.8 2.8 0 015.6 0zm-15.179-14a2.8 2.8 0 100-5.6 2.8 2.8 0 000 5.6zm11.053-2.8a2.8 2.8 0 11-5.6 0 2.8 2.8 0 015.6 0zm-6.926 8.4a2.8 2.8 0 100-5.6 2.8 2.8 0 000 5.6z" fill="#fff"/></svg>