<svg width="48" height="48" fill="none" xmlns="http://www.w3.org/2000/svg"><path fill="#333" d="M0 0h48v48H0z"/><path d="M28.927 15.478c.43-1.182.858-2.368 1.308-3.604.187.086.339.148.479.228 4.109 2.344 6.513 5.843 6.992 10.562a13.348 13.348 0 01-9.31 14.13c-.364.115-.455.285-.448.64.021 1.149.008 2.298.008 3.566l-6.838-3.974 6.754-18.639.085.01v14.489c3.066-1.373 5.003-3.596 5.75-6.779.88-3.74-.554-8.227-4.78-10.629z" fill="#82E847"/><path d="M20.826 29.66V15.073c-.218.093-.397.154-.562.24-3.146 1.63-5.037 4.178-5.361 7.722-.362 3.947 1.248 6.993 4.554 9.142.323.21.384.37.25.717-.402 1.038-.773 2.09-1.165 3.168a12.023 12.023 0 01-3.168-2.15c-3.315-3.144-4.84-7.01-4.25-11.54.73-5.604 3.92-9.322 9.229-11.217.39-.14.503-.296.494-.692-.026-1.115-.007-2.24-.004-3.36 0-.024.022-.049.048-.103.12.06.24.112.353.178 2.026 1.178 4.05 2.36 6.08 3.53.258.148.32.277.213.57a8473.38 8473.38 0 00-6.58 18.143c-.015.042-.042.08-.13.239z" fill="#fff"/></svg>