<svg width="48" height="48" fill="none" xmlns="http://www.w3.org/2000/svg"><path fill="#FF8C00" d="M0 0h48v48H0z"/><path fill-rule="evenodd" clip-rule="evenodd" d="M37.923 38.498c.265.34-.148.678-.443.398-3.067-2.714-5.649-3.495-8.2-3.599-1.224-.053-2.436.05-3.7.157l-.415.035c-.146.016-.292.027-.44.038-.136.011-.274.022-.416.036a2.83 2.83 0 01-.191.015 3.563 3.563 0 00-.192.014c-.502.06-1.003.089-1.504.089-2.405 0-4.676-.59-6.74-1.755-2.08-1.165-3.732-2.788-4.912-4.838C9.59 27.053 9 24.796 9 22.392s.59-4.675 1.77-6.726a12.959 12.959 0 014.852-4.881C17.658 9.59 19.885 9 22.245 9c2.448 0 4.749.59 6.814 1.755a12.97 12.97 0 014.926 4.852c1.194 2.05 1.784 4.307 1.784 6.726 0 .93-.088 1.829-.265 2.714l-.012.052-.013.061a10.62 10.62 0 01-.078.344c-.03.148-.074.295-.118.428h-.015c-.236.767-.678 1.843-1.505 3.23-.088.147-.132.03-.147-.044-.295-2.036-1.18-3.584-2.758-4.587-.03-.015-.059-.03-.074-.045-.25-.162-.53-.31-.826-.427a8.948 8.948 0 00-1.21-.428c-.079-.022-.188-.035-.296-.048-.251-.03-.497-.058-.352-.203.088-.088 1.372-.103 2.861-.014h.089c.03-.31.044-.635.044-.96 0-2.536-.84-4.616-2.566-6.326-1.726-1.726-3.761-2.552-6.195-2.552-2.492 0-4.513.84-6.18 2.566-1.666 1.711-2.478 3.776-2.478 6.269 0 2.492.841 4.527 2.552 6.253 1.726 1.726 3.717 2.552 6.106 2.552h.34v-.089c-.133-1.755-.163-3.215.191-2.625l.104.162c.093.147.182.287.28.428.471.708.943 1.283 1.4 1.77l.074.073c1.697 1.726 3.363 2.154 5.148 2.581.022.008.04.012.059.015.018.004.037.008.059.015l.885.221c2.094.56 4.38 1.46 7.05 4.779zm-5.856-10.605c-.265-.073-.457-.014-.56.163-.148.265-.044.796.25 1.253.296.472.561.708.753.708a.21.21 0 00.177-.088c.118-.133.147-.398.103-.738-.03-.354-.236-1.076-.723-1.298zm-3.584 2.449c.148-.177.37-.266.635-.266.324 0 .663.133.958.384.59.501.767 1.091.457 1.519-.177.221-.457.354-.796.354-.34 0-.678-.118-.914-.325-.531-.472-.694-1.239-.34-1.666z" fill="#fff"/></svg>