<svg width="48" height="48" fill="none" xmlns="http://www.w3.org/2000/svg"><path fill="#00863E" d="M0 0h48v48H0z"/><path d="M27.147 32.85a12.06 12.06 0 01-5.068 2.286V24.192h-3.27v5.799c-1.471-.736-2.697-1.716-3.597-2.94a12.04 12.04 0 01-2.288-5.065h10.953V18.72h-5.803c.735-1.47 1.716-2.695 2.942-3.593a12.058 12.058 0 015.068-2.287v11.108h3.27v-5.963c1.472.735 2.698 1.715 3.597 2.94a12.038 12.038 0 012.289 5.064H24.368v3.267h5.722c-.736 1.47-1.717 2.696-2.943 3.594zM39 29.254l-.245-1.878c-.409-3.512-1.553-6.37-3.27-8.576-1.553-2.042-3.678-3.512-6.213-4.492V9l-1.88.245c-3.515.408-6.376 1.552-8.583 3.267-2.043 1.552-3.515 3.675-4.496 6.207H9l.245 1.879c.409 3.512 1.553 6.37 3.27 8.576 1.553 2.042 3.678 3.512 6.212 4.492v5.309l1.88-.245c3.516-.409 6.377-1.552 8.584-3.267 2.043-1.552 3.515-3.676 4.496-6.208H39z" fill="#fff"/></svg>