<svg width="48" height="48" fill="none" xmlns="http://www.w3.org/2000/svg"><path fill="#B31B2C" d="M0 0h48v48H0z"/><path fill-rule="evenodd" clip-rule="evenodd" d="M31.024 15.75H17.036V13h13.988v2.75zm-4.476 6.6c2.144 0 6.529 1.192 6.529 6.516 0 .47-.096 2.048-1.347 3.55a6.37 6.37 0 01-2.455 1.791c-1.236.519-2.915.793-4.406.793h-7.833v-2.75h5.595c.022 0 .38.002 2.238 0 1.948-.002 3.158-.186 4.068-.952.727-.613 1.097-1.444 1.097-2.57 0-2.014-1.342-3.628-3.486-3.628v-2.75zm-6.715 0h5.036v2.75h-5.036v4.95h-2.797V25.1H12v-2.75h5.036V17.4h2.797v4.95z" fill="#fff"/></svg>