<svg width="48" height="48" fill="none" xmlns="http://www.w3.org/2000/svg"><path fill="#414042" d="M0 0h48v48H0z"/><path fill-rule="evenodd" clip-rule="evenodd" d="M9 24c0-8.3 6.7-15 15-15s15.059 6.7 15 15c0 8.3-6.7 15-15 15S9 32.3 9 24zm1.541.06c0 7.41 6.048 13.398 13.459 13.398 7.47 0 13.458-5.988 13.458-13.399A13.41 13.41 0 0024 10.601c-7.411 0-13.459 6.047-13.459 13.458zm16.779 5.276c1.245 1.363 1.067 3.853.652 4.98 0 .06-.06.178-.178.237-.474.158-1.001.29-1.422.395-.212.053-.396.1-.534.139 1.897-1.779 2.193-4.27 1.482-5.751zm1.482-4.388c1.897.356 3.913 1.364 5.573 2.787.06.06.119.119.119.237a12.04 12.04 0 01-.89 1.779c-.948-1.957-2.845-3.973-4.802-4.803zm6.403-.889c0-.119-.06-.178-.06-.178-1.185-.474-1.896-.652-1.896-.652.296-.119.533-.474.593-.711-.712.355-1.601.474-2.135.474 1.067.415 2.49 1.186 3.498 2.016-.041-.248-.025-.496-.011-.704.006-.09.011-.173.011-.245zm-4.743 3.972c-.356.178-.948.119-1.363 0 1.245.771 2.371 2.49 2.905 3.676 0 0 0 .178-.06.237-.355.356-.948.83-1.6 1.305.177-4.032-2.61-6.226-3.795-6.996-1.089-.762-2.827-1.325-3.38-1.503l-.118-.039c-.39-.111-.361-.223-.307-.432l.01-.042c.06-.178.297-.534.416-.711 0-.06-.06-.06-.06-.06-.237.06-.592.178-.77.237-.237.06-.415.06-.475 0-.415-.415.416-1.185.416-1.185 0 .296.118.415.533.355.415-.059 1.838-.178 2.134-.178 0 0-1.66 1.127-1.897 1.542-.213.372.1.363.295.357l.06-.001c2.67.225 4.051 1.356 5.174 2.275.648.53 1.21.99 1.882 1.163zm2.965-8.418c-.178.592-.593.948-.83 1.007-.416.119-.712 0-.712 0a1.65 1.65 0 00-.109.124.599.599 0 01-.187.173c-.178.118-.237.06-.178-.06 0-.118 0-.177-.06-.296-.082-.124-.165-.075-.268-.014a.759.759 0 01-.146.073c-.178.06-.238-.178-.238-.178-.889-.177-1.304.297-1.304.297.652.119.949.534 1.008.711.06.178.415.178.593.06.059-.06.178-.119.178.059 0 .06 0 .178-.06.296.063.038.117.067.163.092.173.094.227.124.134.264-.356.593-.652.534-.771.474a12.893 12.893 0 00-3.32-.711l.415-.415c-5.277 0-6.166.652-6.462 1.008-.178.237 0 .593 0 .593-.653.118-2.194.415-2.905 1.008-.653.592-.712 1.838-.712 2.312a3.898 3.898 0 011.008-.712c.689-.344 1.49-.3 2.508-.242l.1.005c.475 0 .653.178.83.475.12.237-.177.237-.355.118-.485-.323-.812-.153-1.162.03-.292.154-.6.315-1.032.207.297.356.712.356.949.297.948-.356 1.186 0 1.245.118-.476-.043-1.109.166-1.6.328-.183.06-.347.114-.475.147-.593.118-1.186.178-1.186.178.415.474.949.474 1.364.474.107 0 .279-.008.489-.018.598-.028 1.505-.07 2.12.018 2.074.237 2.193 2.134 1.007 3.32 1.008-.297 1.364-1.186 1.364-1.186.711 3.202-2.253 4.921-4.684 4.447-1.186-.237-2.134-.771-2.786-1.245-.534-.356-.949-.771-1.068-.89 1.601.415 4.032.415 5.633-.296-3.202.06-5.336-.77-6.818-1.6-.593-.297-.771-.475-.949-.83-.474-.83-.77-1.602-1.067-2.728 1.245 1.067 3.854 2.49 5.099 2.609-3.32-1.898-4.921-4.684-5.1-5.04-.02-.041-.044-.084-.07-.13-.123-.22-.285-.507-.285-.996.06-.83.297-2.016.593-2.846.415 1.126 1.364 3.142 2.55 4.09-1.186-2.49-1.364-5.632-1.305-6.224 0-.238.06-.475.296-.771.297-.415.95-1.245 1.66-1.838-.118.89-.355 2.668-.059 4.387.475-2.668 1.483-4.743 2.194-5.692.118-.177.237-.296.534-.474.296-.178 1.185-.533 2.252-.77-.889.652-1.66 1.837-1.897 2.549 2.249-2.162 4.434-2.747 6.143-3.205.634-.17 1.202-.322 1.683-.53.415-.237.593.059.593.296-.06.297-.178.77-.178.77 1.067.238 1.542.772 1.542.772-.06-.119 0-.356 0-.356 1.482 1.304 1.956 2.312 1.897 3.083-.06.711.534 1.126.83 1.304.297.178 1.482.89 1.72 1.067.118.119-.12.475-.356.652zm-7.767-5.455c.296-.652.77-1.008 1.186-1.304.296-.178.355 0 .237.059l-.02.025c-.186.249-.569.758-.454 1.101 0 0-.416.119-.771.297-.178.118-.237 0-.178-.178zm4.802 1.838c-.118.77-.296.77-.474.711-.356-.118-.949-.178-1.186-.118.652.533 1.067 1.423 1.067 1.423.06-.297-.118-.712-.178-.83-.059-.119 0-.119.119-.06.06 0 .296.06.356.119.224.056.236.006.287-.2l.01-.037c.118-.178.118-.534 0-1.008zm-7.24 3.444c-.163.074-.312.14-.408.172-.06-1.422 1.186-3.794 2.787-4.446-1.78 1.541-1.898 3.557-1.898 3.557l.125-.05c.212-.086.336-.137.587-.187.237-.06.415-.06.237.178-.534.77-.534 2.253.237 2.55-.485 0-.871.048-1.294.102l-.129.016c-.06-1.305.178-2.075.178-2.075-.136.054-.284.121-.422.183z" fill="#fff"/></svg>