<svg width="48" height="48" fill="none" xmlns="http://www.w3.org/2000/svg"><path fill="#DB151C" d="M0 0h48v48H0z"/><path fill-rule="evenodd" clip-rule="evenodd" d="M31.573 20.369c-1.567 4.445-6.436 6.78-10.875 5.216-4.439-1.565-6.766-6.437-5.2-10.883 1.568-4.445 6.437-6.78 10.876-5.216 4.438 1.565 6.766 6.438 5.199 10.883zm.499 11.55c0 1.64-3.81 2.981-8.525 2.996-4.714.016-8.542-1.297-8.545-2.933-.002-1.635 3.811-2.983 8.528-3 4.716-.018 8.53 1.307 8.542 2.937zM15 38.267c0 .405 3.822.733 8.537.733 4.715 0 8.537-.328 8.537-.733 0-.405-3.822-.734-8.537-.734-4.715 0-8.537.329-8.537.734z" fill="#fff"/></svg>