<svg width="48" height="48" fill="none" xmlns="http://www.w3.org/2000/svg"><path fill="#F6F6F6" d="M0 0h48v48H0z"/><path fill-rule="evenodd" clip-rule="evenodd" d="M35.07 11.771c.264-.118 2.05-.907 2.2-.757.207.242-.292.602-.745.929l-.23.167c-.283.162-.81.365-1.257.528 0 0 1.582-.487 1.785-.406.203.081.163.406-.811.852-.487.244-1.299.446-1.948.609 0 0 1.339-.163 1.217.08-.203.447-1.826.853-2.07.894.037-.006.1-.02.181-.037.456-.095 1.445-.302.996.077-.445.371-1.637.64-2.241.777l-.153.035s1.34-.244 1.258-.081c-.14.175-1.575.59-1.97.702.267-.072.966-.243.834-.012-.077.107-.342.262-.645.44-.494.289-1.09.637-1.14.94-.082.486-.082.933-.082 1.298.04.365.04 1.298.04 1.298l.123.609.162.73-.122.487s.203.487.162.61c-.04.08-.04.324-.04.324l.203.487s.081.243 0 .365l-.081.122.121.446s.041.081-.04.284c-.04.101-.05.101-.056.101-.005 0-.005 0-.025.102-.018.088-.043.13-.063.163-.025.043-.041.07-.018.162 0 .07.022.139.044.208.03.093.06.186.037.279-.026.104.048-.027.05-.025.002 0-.018.042-.09.187-.244.406-.244.527-.244.527s.243.203.121.325a.24.24 0 01-.117.066c-.054.016-.085.025-.085.178-.02.121-.02.162-.02.197 0 .036 0 .066-.021.168a1.132 1.132 0 01-.081.324c-.02.041 0 .092.02.142.02.051.04.102.02.142-.04.082-.04.203-.04.203l-.04.082c-.021.04-.021-.01-.021-.036 0-.025 0-.025-.02.117l-.041.284s.04 0-.081.203c-.122.243-.163.324-.163.446.01.03.025.054.04.078.043.075.084.143-.04.328-.065.13-.166.203-.264.273-.084.06-.166.12-.223.214-.121.162-.365.933.244 1.907.65 1.015 1.258 1.583 1.745 1.867.216.126.935.443 1.679.772.933.412 1.905.842 1.973.932.035.047.116.1.217.165.25.163.618.404.676.809a8.54 8.54 0 00.284 1.014s-2.354.447-2.719.163c-.08-.062-.195-.18-.341-.327-.524-.532-1.434-1.453-2.418-1.58-.105-.014-.27-.028-.485-.046-1.039-.087-3.218-.27-5.034-1.01-.893-.365-1.704-.852-2.394-1.298-.853.365-1.786.609-2.8.73-4.708.487-8.928-2.597-9.455-6.898-.082-.528-.082-1.461-.041-1.948.019-.114.03-.21.039-.302.01-.103.02-.199.042-.307.162-1.46.812-2.84 1.826-4.017 1.42-1.664 3.49-2.678 5.803-2.922 1.38-.122 2.76.04 4.058.487.04.122.04.284.04.406-1.257-.487-2.637-.65-4.017-.528-2.232.203-4.139 1.258-5.56 2.881-.77.893-1.216 1.908-1.5 2.963a6.76 6.76 0 00-.204 2.719c.488 4.22 4.464 7.06 9.09 6.574.69-.082 1.34-.203 1.948-.406-.73-.528-1.136-.934-1.136-.934s-2.07-2.19-2.678-2.434c-.552-.221-1.004-.775-1.235-1.058a8.434 8.434 0 00-.064-.079c-.203-.243-1.826-.811-1.826-.811s.69-.365 1.096-.325c.219.022.426.138.608.24.156.088.294.166.406.166.154 0 .451-.036.723-.069.23-.027.442-.053.535-.053.65.04 1.177.69 1.258.812.081.122.812.608 1.542.69l.034.004c.364.046 1.441.183 1.873-.288.122-.163.244-.366.325-.569 0-.02.01-.05.02-.08.01-.031.02-.062.02-.082.041-.08.082-.243.122-.446.244-1.096.325-3.409.325-3.409s.365-3.409.73-5.681c.122-.771.244-1.42.366-1.988v-.122l.085-.298c.08-.282.148-.524.24-.676.015-.031.024-.056.033-.078a.213.213 0 01.047-.084l.041-.041c.194-.227 2.145-1.021 3.77-1.684.412-.168.804-.327 1.14-.467 1.989-.77 3.936-1.542 4.302-1.745.77-.446 1.055-.487 1.177-.365.216.252-.272.536-.668.767l-.144.085a.226.226 0 00-.033.045.164.164 0 01-.016.022zm-.276.136a.31.31 0 01.203-.08c-.122 0-.162.04-.203.08z" fill="#2C4C75"/><path fill-rule="evenodd" clip-rule="evenodd" d="M32.035 10.69s.974-.447 1.136-.284c.162.162-.04.446-.365.65-.365.243-1.299.689-1.299.689s1.137-.365 1.096-.04c-.04.283-.162.405-1.177.851-.2.086-.617.254-1.141.465-1.718.69-4.588 1.843-4.743 2.092-.323.485-.526 1.734-.768 3.227l-.003.02c-.365 2.272-.73 5.68-.73 5.68s-.082 2.314-.325 3.41c-.05.25-.116.407-.159.51-.026.064-.044.107-.044.139 0-.009-.008-.052-.024-.132-.061-.319-.236-1.227-.463-2.912l-.056-.413c-.296-2.19-.796-5.883-.796-8.433 0-.852.69-1.299 1.258-1.583 2.638-1.298 8.603-3.936 8.603-3.936zm-17.287 7.588l-1.542 2.03 1.907-.082-2.029.528 1.46 1.38-1.541-.893.162 2.678-.811-2.678-2.03 1.826 1.705-2.151-2.029.081 2.029-.527-1.46-1.38 1.582.974-.163-2.963.853 2.882 1.907-1.705z" fill="#3EB5F1"/></svg>