<svg width="48" height="48" fill="none" xmlns="http://www.w3.org/2000/svg"><path fill="#DB0334" d="M0 0h48v48H0z"/><path fill-rule="evenodd" clip-rule="evenodd" d="M25.777 19.757c-.283.132-.59.209-.903.226l.04.007a1.26 1.26 0 01-1.06-.568c-.167-.23-.429-.636-.747-1.126-.818-1.265-2.006-3.101-2.904-4.004-.677-.67-1.276-1.238-1.923-1.277-.506 0-.778.514-.778 1.027-.01.138-.01.276 0 .413.156 1.705.84 3.986 2.623 7.84 1.13 2.39 1.721 3.48 2.025 3.986l-9.895 3.744a2.724 2.724 0 01-.779.117 1.705 1.705 0 01-.989-.272 4.99 4.99 0 01-1.206-2.826A17.5 17.5 0 019 23.93a15.29 15.29 0 012.21-8.05 14.014 14.014 0 0112.457-6.874c.412 0 .856 0 1.308.046 5.683.374 9.388 4.741 10.766 6.906l-9.965 3.799zm-2.935 8.315h.008-.054.046zm0 0c-.315.01-.625.084-.91.217l-9.95 3.807c1.378 2.149 5.076 6.493 10.767 6.898h1.308a13.966 13.966 0 0012.456-6.882 15.135 15.135 0 002.203-8.003 18.315 18.315 0 00-.272-3.114 5.013 5.013 0 00-1.215-2.826 1.743 1.743 0 00-.98-.265 2.172 2.172 0 00-.78.125L25.6 21.78c.303.498.887 1.557 2.023 3.978 1.729 3.854 2.43 6.12 2.593 7.855.011.135.011.27 0 .405 0 .506-.257 1.028-.779 1.028a3.612 3.612 0 01-1.938-1.285c-.896-.907-2.081-2.74-2.9-4.004-.32-.494-.583-.902-.751-1.134a1.245 1.245 0 00-1.005-.552z" fill="#fff"/></svg>