<svg width="48" height="48" fill="none" xmlns="http://www.w3.org/2000/svg"><path fill="#F6F6F6" d="M0 0h48v48H0z"/><path d="M19.723 27.978l4.015-.004c.776 0 1.464-.215 1.992-.575.562-.362.983-.9 1.233-1.511l2.066-5.643-3.874.002c-.772 0-1.458.143-2.018.506-.599.36-1.104 1.04-1.257 1.545l-2.157 5.68z" fill="#FDB913"/><path fill-rule="evenodd" clip-rule="evenodd" d="M17.701 15.119h24.301l-.022.06h.022l-3.689 12.727c-.048.158-.133.33-.213.492-.046.093-.09.183-.124.263-.077.16-.15.317-.22.472-.405.885-.773 1.69-1.931 2.547-1.489 1.045-3.284 1.427-4.621 1.429H6.184l1.108-3.165 3.299-9.621c.048-.16.134-.336.213-.497.045-.093.088-.18.12-.258.082-.168.157-.332.231-.493.404-.879.77-1.676 1.925-2.527 1.488-1.044 3.281-1.429 4.621-1.429zm11.466 11.717l.83-2.085 1.627-6.461-7.231.008c-1.268 0-2.425.542-3.242 1.151-.414.289-1.058 1.152-1.413 1.943l-.83 2.085-2.076 6.461 7.677-.007c1.267-.003 2.429-.543 3.241-1.153.417-.288 1.062-1.151 1.417-1.942z" fill="#004282"/></svg>