<svg width="48" height="48" fill="none" xmlns="http://www.w3.org/2000/svg"><path fill="#FFE835" d="M0 0h48v48H0z"/><path d="M39.332 20.268c-.07-.105-.14-.176-.211-.281-.035-.07-.07-.106-.106-.176.106-.14.211-.317.317-.492l.316-.704-.773-.105c-.14-.035-.352-.07-.598-.14-.492-.141-1.09-.282-1.758-.352a1.34 1.34 0 00.562-.528l.141-.246s-.035-.317-.176-.422l.106-.316.105-.528-.492-.176c-.07-.035-.14-.035-.246-.07-.035-.106-.07-.211-.141-.281l-.281-.528-.528.317c-.14.07-.246.175-.351.28-.07 0-.176-.034-.247-.034 0 0-.316-.036-.632.07l-.422-.457-.528-.528c-.457-.492-1.125-.668-1.758-.421-.246-.247-.633-.458-1.231-.458-.211 0-.387.035-.492.035 0 0-.844.141-1.301.598l-.563-.281c-.387.598-1.02.774-1.02.774a.937.937 0 00-.246-.493l.035-.21s.14-.74.528-1.337l.668-1.055-.95.106v-.352l-.14-.774-.739.352-.21.105-.141-.316-.352.176c-.035-.07-.07-.176-.14-.281L24.913 10l-.562.598a.618.618 0 00-.141.176l-.352-.352-.351.352c-.035-.07-.106-.106-.141-.176L22.804 10l-.386.739c-.07.105-.106.21-.141.28l-.352-.175-.14.316c-.07-.035-.141-.07-.247-.105l-.773-.352-.07.81v.35l-.95-.105.668 1.055c.387.598.528 1.336.528 1.336l.035.211c-.106.141-.176.317-.246.493 0 0-.598-.246-1.02-.774l-.598.281c-.668-.457-1.09-.633-1.793-.633-.598 0-.985.211-1.231.458-.668-.247-1.301-.106-1.758.422 0 0-.317.351-.493.527a3.22 3.22 0 01-.492.387s-.422-.106-.844 0c-.105-.106-.21-.176-.351-.281l-.528-.317-.281.527c-.07.106-.106.212-.141.282-.07 0-.14.035-.246.07l-.457.176.105.528c.035.105.07.246.106.316-.036.07-.07.105-.07.176l-.071.246.14.246c.141.246.317.422.563.528-.668.07-1.266.246-1.758.351-.246.07-.457.106-.598.14l-.773.106.175.387.141.317c.07.175.176.351.317.492-.036.07-.247.387-.317.457L8 20.69l.387.422c.035.035.457.492 1.16.492.176 0 .387-.035.563-.105.176.281.387.563.598.703-.352.422-.774.809-1.372 1.09l-.492.246.211.563c.14.352.422.703.914.844a4.844 4.844 0 00-.21.914c-.106.668-.177.95-.74 1.16l-.527.212.141.527c.105.422.316.739.492.915l-.351.386s.844.633 1.652.704c0 0 .704.035 1.02-.352.14.457.317.88.492 1.23.352.774.563 1.232.317 1.654l-.563.949 1.09-.035c.493-.035.915-.035 1.302-.14v.07l-.106.808.95-.21c.105-.036.21-.071.28-.106.599.703 1.618 1.23 2.955 1.23h.07l-1.582.634 1.125.597c.738.387 1.582.704 2.532.985v.457l.562.176c.317.105 1.512.422 2.99.422 1.476 0 2.637-.317 2.988-.422l.563-.176-.14-.457c.949-.281 1.793-.598 2.531-.985l1.125-.597-1.582-.633h.07c1.372 0 2.392-.528 2.954-1.231.07.035.176.07.282.105l.949.211-.105-.809v-.07c.386.106.844.14 1.3.14l1.09.036-.456-.95c-.247-.421-.036-.879.316-1.652.176-.387.387-.809.492-1.231.211.176.422.246.669.316l.351.07c.492 0 .739-.105 1.055-.316l.598-.387-.352-.386c.211-.176.387-.493.492-.915l.141-.527-.527-.176c-.598-.21-.633-.492-.739-1.16a4.848 4.848 0 00-.21-.915c.527-.14.773-.527.914-.844l.21-.562-.492-.246c-.598-.282-1.02-.668-1.371-1.09.21-.141.422-.422.598-.704.175.07.351.106.562.106.704 0 1.125-.457 1.16-.493l.388-.422-.352-.492z" fill="#fff"/><path fill-rule="evenodd" clip-rule="evenodd" d="M19.007 23.081v4.537h9.635V23.08c0-.422.14-.844.281-1.23h-3.516c-.317.457-.915.738-1.583.738-.668 0-1.266-.281-1.582-.738h-3.517c.176.386.282.808.282 1.23zm2.672 10.198c1.336 0 1.688.035 2.18.528.493-.493.844-.528 2.145-.528 1.583 0 2.673-.95 2.673-2.426v-2.99h-9.67v2.99c0 1.512 1.09 2.426 2.672 2.426z" fill="#FFE600"/><path fill-rule="evenodd" clip-rule="evenodd" d="M19.57 35.283v-.914c.527.211 1.195.387 2.144.598l-.457 1.442a11.213 11.213 0 01-2.461-.809l.773-.317zm2.25.141c.316.07 1.125.176 2.04.176.82 0 1.555-.085 1.926-.128l.113-.013.457 1.512c-.738.176-1.618.317-2.497.317-.879 0-1.758-.14-2.496-.317l.457-1.547zM18.157 19.63c1.327-.712 3.943-2.115 2.01-3.582-.094-.07-.191-.14-.29-.21a8.58 8.58 0 01-.554-.423c-.28.218.018.71.188.992l.058.099s-.668.07-.844.07c-1.055 0-2.145-.633-1.582-1.829-.336.056-.427.335-.52.624a3.627 3.627 0 01-.078.22 5.281 5.281 0 01-.192-.129c-.272-.187-.618-.426-.898-.398.281.95 1.512 1.758 2.461 1.969-.949.527-2.742.914-3.692-.211-.621 1.178.127 1.716.97 2.324l.19.137c-1.962.89-2.633 1.851-3.277 2.774-.475.68-.936 1.341-1.892 1.939.208.104.974-.023 1.415-.096.156-.026.272-.045.308-.045-.492.633-.703.914-.844 1.196-.14.28-.21.597-.316 1.3-.106.563-.317 1.126-.985 1.478.133.345.507.209.788.106.09-.033.172-.063.232-.071-.01.01-.022.063-.04.141-.048.203-.134.57-.312.773.564-.034.73-.623.88-1.156.158-.565.3-1.068.879-.778a.652.652 0 01.281.844c-.458.936-.041 1.799.36 2.63.278.575.548 1.135.52 1.695.421 0 .878 0 1.124-.598.141.282.352.704.493 1.09l.352-.597c.21.984 1.125 1.863 2.356 1.969-.232-.355-.268-.762-.308-1.206-.062-.7-.132-1.492-.994-2.31.05-.04.12-.092.198-.149.195-.144.44-.323.54-.45-1.757.212-3.55-1.16-2.742-1.828.27-.217.467-.09.71.065.228.147.497.32.908.252l-.317-.317.387-.387c-.352-.035-.739-.281-.739-.281l.211-.352c-2.04 0-2.11-1.582-1.266-1.617.135-.012.282.069.47.173.353.195.85.469 1.676.354-.112-.134-.167-.297-.22-.452a1.99 1.99 0 00-.097-.251c.317 0 .668 0 .95-.14-.513-.061-.715-.225-1.073-.514l-.193-.155.597-.21c-.782-.392-.809-1.085-.837-1.8l-.007-.17c.078.042.158.089.24.137.399.235.841.495 1.308.32.14-.035.21-.105.21-.246-.808-.317-1.3-1.547.634-2.602l.205-.111zm9.957 14.74c-.492.21-1.16.386-2.11.597l.457 1.442c.985-.211 1.794-.528 2.462-.809l-.773-.317-.036-.914zM16.088 21.92c-.211-.21-.703-.878.387-2.039a6.292 6.292 0 00-.633.344 13.23 13.23 0 01-.317.184c1.098-1.176 2.086-1.718 2.873-2.15.626-.344 1.126-.618 1.453-1.085-1.055.738-3.904 1.125-5.17.773.704.493 2.392.422 2.813.352-.56.547-1.399 1.106-2.23 1.66-1.198.798-2.381 1.587-2.693 2.314.71-.778 1.193-.938 1.791-1.137l.073-.024-.283.44c-.382.586-.728 1.118-.983 1.74-.347.774-.758 1.207-1.112 1.58-.435.458-.783.826-.822 1.62.228-.73.619-1.104 1.009-1.478.212-.204.423-.407.609-.667-.07.457-.106.985-.106 1.583 0 .633.14 1.195.352 1.723-.07.738 0 1.934.809 2.743-.563-.704-.668-1.829-.633-2.286.395.768 1.255 1.714 2.06 2.6.485.532.95 1.043 1.28 1.479-.314-.528-.79-1.088-1.293-1.68-.904-1.06-1.894-2.224-2.188-3.49.317.282.668.317 1.336.282-.738-.105-1.16-.281-1.406-.773a5.783 5.783 0 01-.07-.81c-.036-.773.246-1.722.773-2.742 0 .668.527 1.653 1.653 1.828-1.02-.457-1.618-1.441-1.301-2.426.21-.352.422-.703.703-1.055.052-.064.098-.129.144-.192.079-.108.154-.211.243-.3-.106.492.492 1.02.879 1.09zm20.923 4.432c-.14-.704-.211-1.02-.317-1.301-.09-.205-.226-.38-.433-.65a20.35 20.35 0 01-.41-.546c.024 0 .114.015.24.037.418.071 1.24.212 1.483.104-.964-.587-1.425-1.245-1.904-1.93-.64-.915-1.315-1.877-3.266-2.782l.191-.138c.843-.608 1.591-1.146.97-2.324-.95 1.125-2.708.738-3.692.211.949-.176 2.18-1.02 2.461-1.97-.273-.054-.61.189-.879.382a4.207 4.207 0 01-.211.146c-.028-.069-.051-.139-.074-.208-.095-.284-.185-.55-.524-.636.563 1.196-.527 1.829-1.582 1.829-.176 0-.844-.07-.844-.07.016-.033.041-.076.07-.126.158-.272.438-.757.14-.965-.163.165-.359.297-.554.43-.098.067-.195.133-.29.203-1.983 1.54.825 2.98 2.112 3.64l.104.053c1.934 1.055 1.407 2.285.598 2.602 0 .14.106.21.211.246.48.15.934-.11 1.341-.342.07-.04.139-.079.206-.115l-.008.226c-.022.69-.043 1.33-.836 1.743l.598.211c-.107.078-.198.15-.28.214-.323.253-.51.398-.986.454.223.112.49.135.75.157l.2.019-.032.098c-.062.195-.135.426-.285.605.82.091 1.315-.172 1.668-.359.191-.101.34-.18.477-.168.844.07.774 1.617-1.266 1.617l.211.352s-.387.211-.738.281c.14.106.281.247.387.387l-.317.282c.408.068.668-.103.892-.25.238-.156.435-.285.726-.067.808.668-.985 2.04-2.743 1.829.1.125.345.305.54.449.078.057.148.108.198.148-.873.83-.947 1.633-1.012 2.34-.04.433-.075.83-.289 1.177 1.231-.07 2.145-.985 2.356-1.97l.352.598c.093-.255.216-.51.33-.745.058-.12.114-.237.162-.345.282.563.703.598 1.16.598-.043-.57.23-1.142.51-1.728.393-.822.8-1.674.37-2.597-.14-.317-.07-.703.281-.844.603-.31.75.204.915.78.153.534.32 1.12.879 1.154-.157-.209-.256-.573-.31-.776-.02-.07-.033-.12-.042-.138.043.012.098.033.16.057.286.112.727.284.93-.092-.739-.387-.95-.95-1.055-1.477zm-2.04-.422c.036-.598 0-1.126-.105-1.583.185.26.397.463.609.667.39.374.78.749 1.008 1.478-.038-.795-.376-1.151-.808-1.606-.35-.37-.763-.805-1.125-1.594-.3-.732-.726-1.37-1.189-2.063a117.19 117.19 0 01-.078-.117l.038.013c.614.204 1.068.355 1.791 1.148-.312-.727-1.494-1.516-2.693-2.315-.83-.553-1.669-1.112-2.23-1.66.422.071 2.11.106 2.813-.35-1.266.35-4.079-.036-5.169-.774.34.463.836.736 1.452 1.076.786.434 1.769.976 2.873 2.159a5.29 5.29 0 00-.879-.528c1.055 1.126.598 1.829.387 2.04.422-.07 1.02-.598.88-1.09.105.14.245.316.386.492.246.352.492.703.703 1.055.317.985-.281 1.97-1.3 2.426a1.93 1.93 0 001.652-1.828c.527 1.02.809 1.97.773 2.743 0 .281-.035.562-.07.808-.246.493-.668.669-1.407.774.669.07 1.056.035 1.337-.281-.314 1.257-1.302 2.413-2.204 3.47-.511.598-.995 1.165-1.313 1.699.33-.436.795-.947 1.28-1.48.805-.885 1.666-1.831 2.061-2.6.035.458-.07 1.583-.633 2.287.809-.81.844-2.04.809-2.743.21-.493.316-1.09.351-1.723z" fill="#fff"/><path fill-rule="evenodd" clip-rule="evenodd" d="M23.86 22.589c.668 0 1.265-.281 1.582-.738h3.481a2.998 2.998 0 00-.281 1.23v4.537H26.18c0-.141.035-.528.035-.528-.316-.14-.492-.492-.386-.914l-.704.633c-.316.281-.598.351-.984.246l-2.743-.844c-.035.14-.211.422-.457.352-.317-.07-.282-.422-.211-.563-.07-.07-.07-.246.035-.281-.106-.07-.07-.211 0-.247-.07-.035-.07-.14-.07-.21h-.176c-.422 0-.317-.844.14-.634l.352.176.035-2.004.809-.703.422.914-.703 1.934c.562-.105.773.105.703.317l1.758.21a.552.552 0 00.528-.21l.387-.458c-.317-.07-.458-.28-.528-.562-.563-.14-.774-.633-.703-1.16a.934.934 0 01-.317-.528c.14.035.317.035.457.035zm-2.328 7.013c-.075.027-.11.04-.17-.05l-.07-.07a.233.233 0 00-.003-.03c-.007-.047-.017-.119.038-.147l.528-.633-.492-.386.633.246.21-.282c.07.036.036.212.036.212.246 0 .984.351 1.02 1.265 0 0 .175.247.386.247l1.09.07c.045 0 .108-.023.188-.052.232-.084.607-.22 1.078.017.141-.106.282-.176.457-.176.493-.035.88.316 1.161.668.211.281.492.668.492.668-.14.14-.246.176-.351.14-.141-.07-.211-.175-.247-.35-.07-.282-.351-.493-.351-.493.097.161.134.352.167.518l.009.044a2.805 2.805 0 01-.43-.594c-.127-.216-.227-.387-.38-.425-.14-.035-.28 0-.421.176.067.167.102.343.136.512.037.184.072.36.145.507.106.176.14.211.176.247.132.066.078.225.042.331l-.007.02-.176 1.02h-.28l.175-.985c.017-.152-.17-.231-.416-.335-.264-.112-.596-.252-.815-.544-.352.422-1.371.317-1.828.246-.176 0-.352 0-.458.176-.056.085-.112.079-.168.073l-.043-.002-.808-.176c-.141-.035-.211 0-.282.14l-.175.352c-.036.105-.036.14.035.211l.105.14c-.035.141-.176.282-.176.282l-.176-.211c-.105-.105-.105-.246-.035-.387l.247-.563a.237.237 0 01.21-.14h1.02l-.316-.492c-.125-.228-.041-.553.034-.847.052-.205.1-.395.071-.525-.024.297-.294.28-.475.27-.076-.005-.137-.01-.158.012l-.14.07-.042.015z" fill="#fff"/><path fill-rule="evenodd" clip-rule="evenodd" d="M25.899 15.52l-.492 2.884-1.407.739v-2.99l1.899-.632zm-5.31 15.227c-.14.106-.14.282-.07.457l.105.176.246-.176-.07-.105c-.035-.07-.035-.176.035-.211l.352-.246c.105-.07.14-.07.21-.07l.704.14s-.105-.14-.14-.316l-.669-.106c-.091 0-.13.027-.207.08a3.033 3.033 0 01-.039.026l-.457.351zm4.571 2.145h.282l.422-1.055c0-.035.035-.07.035-.07-.158-.053-.257-.105-.356-.158l-.101-.053c.02.028.042.053.062.077.078.095.135.162.078.275l-.422.984zm-.843-16.422l1.265-.457s-.246.211-.527.387c-.246.176-.738.387-.738.387v-.317zm1.16.282l-1.16.422v.316s.492-.21.738-.387c.281-.21.422-.351.422-.351zm-1.16 1.16l1.02-.387s0 .14-.282.317c-.246.176-.738.387-.738.387v-.317zm-2.251 3.13l-.035-.07c-.387-.598-.844-1.231-1.407-1.302l1.442-.844 1.758.95 1.758-.95 1.442.844c-.527.07-.984.739-1.336 1.301l-.035.07h-.387v.071c-.035.457-.457 1.055-1.407 1.055-.422 0-.773-.14-.984-.317-.211-.14-.317-.351-.387-.527a.44.44 0 00-.018-.105.442.442 0 01-.017-.106v-.07h-.387z" fill="#fff"/><path fill-rule="evenodd" clip-rule="evenodd" d="M26.004 13.622a4.504 4.504 0 00-2.145-.563c-.808 0-1.617.247-2.11.563a24.604 24.604 0 01-.041-.112c-.085-.228-.154-.414-.275-.627l.492.07.387-.843.739.387.808-.81.81.81.738-.387.422.844.492-.07c-.14.246-.246.457-.317.738zm-2.145.633c-1.09 0-1.899.352-2.074.774l2.074.808 2.075-.808c-.176-.422-.985-.774-2.075-.774zm-.14 1.899v2.989l-1.407-.739-.492-2.883 1.899.633zm-1.055 1.688c.281.21.738.387.738.387v-.317l-1.02-.387s0 .106.282.317zm.738-1.372v.317s-.457-.176-.738-.387c-.282-.211-.528-.387-.528-.387l1.266.457zm0 1.02v-.316l-1.16-.422s.14.14.422.351c.281.211.738.387.738.387zm13.996 2.11c.281-.035.492-.106.738-.317-.09-.022-.196-.052-.315-.085-.625-.175-1.606-.449-2.463-.301-.351.035-.527.176-.387.246.528.351 1.231 1.195 1.724 2.18.422-.527.246-1.23.175-1.442.165.103.306.195.43.276.515.334.736.477 1.047.392-.246-.316-.527-.597-.95-.949zm-24.65-.457c-.563.351-1.231 1.195-1.724 2.18-.422-.527-.246-1.23-.14-1.442a28.72 28.72 0 00-.43.276c-.516.334-.736.477-1.047.392.21-.316.492-.597.914-.949a1.47 1.47 0 01-.739-.317c.09-.022.196-.052.315-.085.626-.175 1.607-.449 2.463-.301.317.035.493.176.387.246z" fill="#fff"/><path fill-rule="evenodd" clip-rule="evenodd" d="M17.124 30.272c-.05.04-.104.08-.157.124.678.775.737 1.496.795 2.2.046.573.092 1.135.471 1.703-1.618 0-2.637-.914-2.919-1.723-.035.281-.21.562-.633.633a1.567 1.567 0 00-.21-.95c-.317.246-.915.317-1.689.352.417-.716.076-1.441-.294-2.226-.41-.87-.857-1.817-.339-2.908.141-.281-.28-.492-.316-.176-.246 1.758-1.266 2.18-2.145 1.618.115-.132.2-.202.274-.264.086-.071.16-.133.253-.264-.562.14-.879-.281-1.02-.809.94-.326 1.037-.913 1.153-1.61.084-.503.178-1.064.606-1.625-.633.106-1.125.106-1.372-.527 1.123-.527 1.694-1.343 2.283-2.183.63-.897 1.279-1.823 2.64-2.459-1.476-1.09-1.055-2.11-.386-3.13.738 1.266 1.969 1.442 2.742 1.02-.643-.228-1.041-.787-1.397-1.287-.247-.346-.474-.664-.748-.823.423-.422.95-.457 1.548-.035.304-.76 1.133-.653 1.466-.61.052.007.092.012.116.012-.281.282-.527.668-.492 1.055.105.88 1.547.739 1.547.739-.281-.598-.14-.95.492-1.266.067.173.331.372.639.603.503.38 1.125.847 1.19 1.436.173 1.418-1.525 2.326-3.02 3.125l-.075.04c-1.687.914-1.054 1.899-.457 1.934.352 1.055-.95 1.231-1.688.809 0 .14.106.985 1.231 1.055-.07.352-.281.457-.563.563.212.14.845.175 1.196.175-.07.457-.563.81-1.16.88.035.14.316.351.562.422-.668.668-2.461.246-2.813-.141-.176-.176-.387.07-.176.351.211.282 1.09.563 1.829.352.07.387-.07.563-.176.668 0 0 .703.07.88.176-.054.24-.268.399-.415.508-.047.034-.088.064-.113.09.105.105.281.351.316.527-.316.141-1.195.387-1.688-.14-.21-.211-.422-.07-.21.21.703.95 2.39.985 2.988.669.03.666-.226.863-.546 1.107zm-2.091 2.233l.352-.597c.21.984 1.125 1.863 2.32 1.969-.231-.355-.267-.762-.307-1.206-.062-.7-.132-1.492-.994-2.31.05-.04.12-.092.198-.149.195-.144.44-.324.54-.45-1.757.212-3.55-1.16-2.742-1.828.29-.218.487-.089.726.067.223.147.483.318.892.25l-.317-.282c.106-.14.246-.281.387-.387-.352-.07-.739-.28-.739-.28l.211-.353c-2.04 0-2.11-1.547-1.266-1.617.137-.012.286.067.478.168.352.188.848.45 1.668.36-.15-.18-.223-.41-.285-.606a7.964 7.964 0 00-.032-.098l.2-.019c.259-.022.526-.045.75-.157-.477-.056-.663-.201-.986-.454a10.97 10.97 0 00-.28-.214l.597-.21c-.792-.413-.813-1.054-.835-1.744l-.009-.226c.068.036.136.075.207.115.407.233.86.492 1.34.342.106-.035.212-.105.212-.246-.81-.317-1.337-1.547.598-2.602l.104-.054c1.287-.66 4.095-2.1 2.11-3.639-.093-.07-.19-.136-.288-.203-.196-.133-.391-.266-.555-.43-.265.207.013.684.172.958.03.053.057.098.074.133 0 0-.668.07-.844.07-1.055 0-2.145-.633-1.582-1.829-.34.085-.429.352-.524.636-.023.069-.046.14-.074.208-.063-.039-.134-.09-.212-.146-.268-.193-.605-.436-.878-.381.281.95 1.512 1.793 2.461 1.969-.984.527-2.742.914-3.692-.211-.622 1.178.126 1.716.97 2.324.063.045.127.09.19.137-1.95.905-2.624 1.868-3.265 2.783-.48.684-.94 1.343-1.904 1.93.243.107 1.065-.033 1.482-.104a3 3 0 01.241-.037c-.161.223-.296.399-.41.546-.207.27-.343.445-.434.65-.105.28-.175.597-.316 1.3-.106.563-.317 1.126-.985 1.477.203.377.644.205.93.093.062-.024.117-.045.16-.057a1.194 1.194 0 00-.041.138c-.055.203-.154.567-.31.776.537-.034.697-.612.845-1.142.161-.581.306-1.105.913-.792.316.14.422.527.281.844-.43.923-.023 1.775.37 2.597.28.586.553 1.157.51 1.728.421 0 .843-.035 1.125-.598.048.108.104.224.162.345.114.235.237.49.33.745zm-1.899-5.485c.281.316.668.351 1.336.281-.738-.105-1.16-.281-1.406-.773a5.783 5.783 0 01-.07-.81c-.036-.773.246-1.722.773-2.742a1.93 1.93 0 001.653 1.828c-1.02-.457-1.618-1.441-1.301-2.426.21-.352.457-.703.703-1.055.14-.176.281-.352.387-.492-.14.492.457 1.02.879 1.09-.211-.211-.668-.914.387-2.04-.317.141-.633.352-.88.528 1.098-1.176 2.086-1.718 2.874-2.15.626-.344 1.125-.618 1.452-1.085-1.055.738-3.903 1.125-5.17.773.704.457 2.392.422 2.814.352-.562.547-1.4 1.105-2.23 1.66-1.199.798-2.382 1.587-2.693 2.314.734-.804 1.19-.948 1.85-1.157l.013-.004-.077.117c-.463.693-.889 1.33-1.188 2.063-.363.789-.776 1.224-1.126 1.594-.432.455-.77.811-.809 1.606.223-.711.614-1.085.995-1.45.223-.213.442-.423.623-.695-.105.457-.14.985-.105 1.583.035.633.14 1.23.351 1.723-.035.703 0 1.934.809 2.743-.563-.704-.668-1.829-.633-2.286.395.768 1.256 1.714 2.06 2.6.486.532.95 1.043 1.28 1.479-.322-.503-.784-1.034-1.27-1.594-.944-1.085-1.98-2.276-2.28-3.575zm20.221-5.884l-.072-.024.078.117c.463.693.889 1.33 1.188 2.063.348.774.759 1.207 1.113 1.58.434.458.783.826.822 1.62-.228-.73-.619-1.104-1.009-1.478a4.738 4.738 0 01-.61-.667c.071.457.142.985.106 1.583 0 .633-.14 1.195-.351 1.723.07.738 0 1.934-.809 2.743.563-.704.668-1.829.633-2.286-.395.768-1.256 1.714-2.06 2.6-.486.532-.95 1.043-1.28 1.479.319-.516.788-1.061 1.283-1.637.923-1.073 1.935-2.25 2.233-3.532-.317.281-.668.316-1.337.281.739-.105 1.161-.281 1.407-.773.035-.247.07-.528.07-.81.036-.773-.246-1.722-.773-2.742 0 .668-.528 1.652-1.653 1.828 1.02-.457 1.618-1.441 1.301-2.426-.21-.352-.422-.703-.703-1.055a5.08 5.08 0 01-.144-.192 2.481 2.481 0 00-.243-.3c.105.492-.492 1.02-.88 1.09.212-.211.704-.88-.386-2.04.281.141.633.317.88.528-1.098-1.176-2.086-1.718-2.874-2.15-.626-.344-1.125-.618-1.452-1.085 1.055.738 3.903 1.125 5.17.773-.704.492-2.392.422-2.814.352.561.547 1.4 1.105 2.23 1.66 1.199.798 2.382 1.587 2.693 2.314-.677-.779-1.158-.938-1.757-1.137zm3.41 3.211c.633.106 1.125.106 1.371-.527-1.118-.526-1.698-1.345-2.293-2.186-.64-.906-1.299-1.837-2.665-2.456 1.477-1.09 1.055-2.11.387-3.13-.739 1.266-1.97 1.442-2.743 1.02.643-.228 1.042-.787 1.398-1.287.247-.346.473-.664.747-.823-.422-.422-.914-.457-1.547-.035-.274-.76-1.127-.652-1.466-.61-.053.007-.093.012-.117.012.282.282.563.668.493 1.055-.106.88-1.548.739-1.548.739.282-.598.176-.95-.492-1.266-.079.17-.338.37-.639.601-.504.388-1.123.865-1.19 1.438-.136 1.439 1.495 2.31 2.977 3.102l.118.063c1.688.914 1.055 1.899.457 1.934-.352 1.055.95 1.231 1.688.809 0 .14-.105.985-1.23 1.055.105.316.28.422.562.563-.211.175-.88.175-1.196.175.035.457.528.81 1.16.88-.034.14-.316.351-.562.422.668.668 2.462.21 2.813-.141.176-.176.387.07.176.351-.21.282-1.09.563-1.828.352-.07.422.07.563.175.668 0 0-.703.07-.914.176.053.24.268.399.415.508.047.034.087.064.113.09-.106.105-.282.351-.317.527.317.141 1.23.387 1.688-.14.211-.211.422-.07.211.21-.703.95-2.391.985-2.989.669 0 .68.245.87.567 1.122.044.035.09.07.136.109-.677.774-.737 1.495-.794 2.193-.047.569-.092 1.122-.472 1.675 1.618 0 2.638-.88 2.92-1.723.034.281.175.562.632.633-.035-.317.07-.633.211-.95.317.246.914.317 1.688.352-.417-.718-.074-1.444.297-2.227.41-.866.853-1.801.336-2.872-.14-.317.281-.492.316-.176.247 1.758 1.266 2.145 2.145 1.618-.11-.126-.199-.196-.276-.256-.095-.075-.173-.136-.251-.272.598.14.88-.281 1.02-.809-.887-.322-.977-.898-1.084-1.583-.08-.51-.169-1.081-.604-1.652zm.181 3.658c-.018-.078-.03-.131-.04-.141.06.008.14.038.232.071.28.103.654.239.787-.107-.668-.351-.879-.914-.984-1.476-.106-.704-.176-1.02-.317-1.302-.14-.28-.352-.562-.844-1.195.037 0 .152.019.308.045.442.073 1.207.2 1.415.096-.955-.598-1.416-1.258-1.892-1.939-.644-.923-1.314-1.883-3.277-2.773.063-.047.127-.092.19-.138.844-.608 1.592-1.146.97-2.324-.949 1.125-2.742.738-3.692.21.95-.21 2.18-1.019 2.462-1.968-.28-.028-.627.21-.898.398-.07.049-.135.093-.192.13-.029-.072-.053-.147-.077-.221-.095-.289-.185-.568-.521-.624.563 1.196-.528 1.829-1.583 1.829-.175 0-.844-.07-.844-.07.02-.047.052-.107.088-.175.152-.287.38-.716.123-.916-.164.141-.359.282-.554.422-.098.07-.196.141-.29.211-1.933 1.467.684 2.87 2.01 3.582h.001l.205.11c1.934 1.056 1.407 2.286.598 2.603 0 .14.07.21.21.246.467.175.91-.085 1.308-.32.082-.048.162-.095.24-.137l-.007.17c-.028.715-.055 1.408-.837 1.8l.598.21-.194.155c-.357.29-.56.453-1.072.513.223.112.49.135.75.157l.2.019a1.986 1.986 0 00-.098.252c-.053.154-.107.317-.22.451.826.115 1.323-.16 1.676-.354.188-.104.335-.185.47-.173.844.035.773 1.617-1.266 1.617l.21.352s-.386.246-.738.281l.387.387-.316.281c.41.069.68-.104.908-.251.242-.155.438-.282.71-.065.808.668-.985 2.04-2.744 1.829.101.125.346.305.541.449h.001c.078.057.147.109.197.148-.861.819-.931 1.61-.994 2.311-.04.444-.075.851-.307 1.206 1.23-.106 2.145-.985 2.356-1.97l.352.598c.14-.386.351-.808.492-1.09.281.598.738.598 1.16.598-.029-.563.239-1.125.513-1.703.394-.83.802-1.689.366-2.622a.652.652 0 01.282-.844c.602-.292.75.22.914.79.153.53.32 1.11.88 1.144-.178-.203-.265-.57-.312-.773zm-16.603 3.2l.246.492.492-.422-.21.422a.493.493 0 00.07.562l.14.176-.316.598h.246l.211-.422s.316-.281.387-.598c-.106-.07-.14-.14-.106-.21l.106-.212.005-.011.006-.012c.025-.055.037-.078.13-.047l.808.176c.106.035.246.07.352-.106.088-.147.127-.146.283-.142l.104.002.422.035c.562.07 1.125-.106 1.371-.247.04.1.112.187.18.27.054.064.106.126.137.188.018.018.008.046-.007.084a.35.35 0 00-.029.127l-.492 1.16h.703l.422-1.02a.541.541 0 01.141-.21l-.246 1.23h.703l.176-1.23c.035-.282 0-.352-.105-.458-.196-.171-.256-.48-.31-.757a2.754 2.754 0 00-.077-.333c.035-.035.105-.035.175-.035.098 0 .195.185.304.392.049.093.1.19.154.276.351.492.844 1.055 1.406.281a3.55 3.55 0 01-.05-.078.902.902 0 00-.126-.168l-.14-.176c-.046-.046-.153-.165-.273-.3a14.005 14.005 0 00-.43-.473c-.422-.422-1.02-.352-1.302-.14-.435-.218-.891-.1-1.14-.034a.835.835 0 01-.16.033l-.985-.07c-.036 0-.106-.035-.176-.106l.176-.07c-.176-.703-.598-1.301-1.337-1.407 0 0-.035-.21-.14-.281l-.211.246c-.041 0-.083.012-.117.022-.024.007-.045.013-.06.013l-.948-.351.703.738s-.387.528-.493.633c-.07.106-.07.176 0 .282l.141.175c.07.106.14.106.281.035l.141-.07c.032-.032.092-.02.158-.008.08.014.17.031.229-.027-.07.21-.106.387-.106.563l-.633-.07c-.14-.036-.21 0-.28.07l-.564.422a.488.488 0 00-.14.597zm.738.07l-.07-.141c-.063-.094-.041-.104.014-.13a1.7 1.7 0 00.021-.01l.246-.176c.07-.036.106-.036.211-.036l.774.176h-.809c-.176 0-.246.07-.316.211l-.07.106zm4.783.527c.015-.015.023-.023.028-.034.007-.014.007-.03.007-.071l-.074-.03a2.231 2.231 0 01-.383-.181l.032.042c.087.114.14.183.108.31l-.422 1.02h.282l.422-1.056zm-4.185-2.32l-.14.07c-.07.035-.141.07-.212-.035l-.07-.07c-.035-.036-.035-.106.035-.177l.528-.633-.457-.351.633.246.246-.282c.07.07.035.212.035.212.246 0 .985.351 1.02 1.265 0 0 .175.247.386.247l1.09.07a.67.67 0 00.192-.053c.23-.085.588-.216 1.004.018.14-.07.317-.14.457-.176.493-.035.88.316 1.16.668a8.8 8.8 0 01.493.668c-.105.14-.246.176-.352.14-.14-.07-.21-.21-.246-.35-.07-.282-.351-.493-.351-.493.062.104.088.22.113.334.017.08.034.157.063.229-.19-.19-.309-.401-.41-.582-.126-.222-.225-.4-.4-.438-.14-.035-.28.035-.421.176.067.167.102.343.136.512.036.184.072.36.145.507.086.172.125.204.156.229a.274.274 0 01.02.018c.126.094.082.217.047.318l-.012.033-.176 1.02h-.281l.176-.985c.034-.155-.152-.235-.405-.342-.262-.11-.594-.251-.826-.537-.352.422-1.407.317-1.829.246-.175-.035-.351 0-.457.176-.056.085-.112.079-.169.073a.425.425 0 00-.042-.002l-.809-.176c-.14-.035-.21 0-.28.14l-.177.352c-.035.07-.035.14.035.211l.07.07c-.034.176-.175.282-.175.282l-.14-.176a.377.377 0 01-.036-.387l.246-.563c.035-.07.07-.14.211-.14h1.02l-.316-.493c-.155-.243-.06-.599.024-.908.05-.18.094-.346.081-.463-.027.322-.34.296-.518.281a.318.318 0 00-.115 0zm-.598.914l-.492.351c-.14.14-.14.282-.035.457l.105.176.247-.176-.07-.105c-.036-.07-.036-.176.034-.211l.352-.246c.07-.07.105-.07.211-.07l.703.14s-.105-.14-.14-.316l-.668-.106a.32.32 0 00-.247.106zm1.583-12.554c.246.176.738.387.738.387v-.317l-1.02-.387s0 .106.282.317zm.738-.704v.317s-.457-.176-.738-.387c-.282-.21-.422-.352-.422-.352l1.16.422zm0-.351v-.317l-1.266-.457s.246.211.528.387c.281.176.738.387.738.387zm4.853 4.184h-1.301c.07-.175.281-.386.668-.386s.563.21.633.386zm-2.673-4.958l-1.265.457v.317s.457-.176.738-.387c.281-.211.527-.387.527-.387zm-1.265 1.9l1.02-.388s0 .106-.282.317c-.281.21-.738.387-.738.387v-.317zm1.16-1.161l-1.16.422v.316s.457-.176.738-.387c.281-.21.422-.351.422-.351zm-6.013 4.22c.07-.212.246-.387.633-.387.386 0 .598.21.668.386h-1.301z" fill="#000"/><path fill-rule="evenodd" clip-rule="evenodd" d="M23.86 13.798c1.336 0 2.566.633 2.566 1.371l-.035.176-.527 3.094 2.532 1.477c.28.176.633.598.668 1.055h-.457c-.106-.457-.458-.949-1.09-.914-.563.035-.915.387-1.267.914l-.105.141-.14.211h3.762c-.281.527-.527 1.125-.527 1.758v7.772c0 2.004-1.548 2.954-3.2 2.954h-.177c-1.142-.002-1.334-.002-2.004.668-.675-.675-.85-.675-1.87-.67l-.31.002c-1.653 0-3.2-.95-3.2-2.954V23.08c0-.633-.246-1.195-.527-1.758h3.762l-.14-.21-.106-.142c-.316-.527-.668-.879-1.266-.914-.668 0-1.02.457-1.09.914h-.457c.07-.457.387-.879.668-1.055l2.532-1.477-.527-3.094-.036-.176c0-.738 1.231-1.371 2.567-1.371zm-.141 2.356l-1.9-.633.493 2.883 1.407.739v-2.99zm-1.442 5.697c.246.351.668.597 1.125.703.035.176.14.387.317.527-.07.528.14 1.02.703 1.16.07.282.211.493.492.563l-.387.458a.552.552 0 01-.527.21l-1.758-.21c.07-.212-.14-.422-.704-.317l.704-1.934-.422-.914-.809.703v2.004l-.352-.175c-.457-.211-.598.633-.14.633h.176c0 .07 0 .175.07.21-.07.036-.106.176 0 .247-.106.035-.106.21-.035.281-.106.14-.106.492.21.563.247.07.423-.211.458-.352l2.743.844c.387.105.668.035.984-.246l.704-.633c-.106.422.07.773.386.914 0 0-.035.387-.035.528h-7.173V23.08c0-.422-.106-.844-.282-1.23h3.552zm2.989 2.602a.941.941 0 01-.035-.915c-.106-.246-.106-.492-.106-.703-.246-.035-.527-.176-.668-.387-.176.07-.387.106-.598.106h-.176a.854.854 0 00.669.563l-.035.21c-.141-.035-.282-.07-.387-.14 0 .351.175.633.492.738v-.21s.211.773.738.843l.106-.105zm.738 1.16c-.01.02-.022.039-.034.059-.034.053-.071.11-.071.187l-.281.282c.07-.422-.211-.915-.493-1.126l.317-.316.07.07c-.14.246.07.774.492.844zm-1.125-.387l-.246.247c.211.246.422.844.281 1.265a.346.346 0 00.088-.07c.027-.026.053-.053.088-.07l.246-.246c.106-.457-.21-.915-.457-1.126zm-.774.422c.106 0 .176 0 .282-.035.176.246.316.844.105 1.23-.052 0-.114-.008-.175-.017-.062-.008-.124-.017-.176-.017l-.106-.035c.176-.282.14-.81.07-1.126zm-.246-.035l-.351-.035c.035.246-.035.739-.211.95l.386.105c.212-.246.247-.738.176-1.02zm-1.055-.105l.422.035c.036.21-.035.703-.175.914l-.422-.105c.14-.211.21-.598.175-.844zm-1.934-.282c0 .106.106.247.282.176.175-.07.246-.035.281.106-.14.21-.14.527.246.633.051-.102.083-.259.11-.391l.03-.137c-.072-.055-.127-.129-.177-.197a.632.632 0 00-.139-.154l-.009-.006c-.104-.07-.247-.166-.624-.03zm.282.985c0 .07-.07.14-.176.14a.17.17 0 01-.07-.21s.105.035.246.07zm-.598-1.371c-.07 0-.14.14-.035.21.07.036.492 0 .457 0-.047-.023-.098-.054-.149-.085-.101-.063-.203-.125-.273-.125zm.352.984c.07.07.316.035.316.035v.035c-.07.176-.387.106-.317-.07zm.035-.281c-.035.105.14.21.316.14v-.105s-.246.035-.316-.035zm.562-1.9l-.351 1.232.105-1.97.528-.457.28.563-.667 1.934.176-1.301c0-.105-.07-.105-.07 0zm.528 1.513c-.106-.07-.492-.035-.492-.035s.28.14.421.176c.106.035.141-.106.07-.141zm.07.246l.422.035a1.36 1.36 0 01-.176.81l-.387-.071c.082-.19.1-.379.12-.584l.021-.19zm5.416 7.526c.738-.422 1.16-1.126 1.16-2.075v-3.024h-9.67v2.989c0 .843.351 1.476.914 1.899l.176-.352h.246l-.246.492.21.106.282-.563h.246l-.352.668c.352.14.739.211 1.161.211 1.336 0 1.688.035 2.18.528.492-.458.844-.528 2.18-.528.422 0 .81-.07 1.16-.21l.352-.669h.247l-.247.528zm1.441-11.077c-.14.386-.281.808-.281 1.23v4.537h-.528c-.246-.247-.457-1.02-.457-1.02-.14.281.035.844.176 1.02H27.2c-.176-.211-.316-1.02-.316-1.02-.212.246-.07.844.035 1.02h-.457a1.96 1.96 0 01.07-.669c-.246-.035-.492-.175-.492-.422.105.106.175.106.316.106l.176-.14c-.633.035-.668-.669-.176-1.02-.492 0-.88-.282-.703-.81-.352-.175-.493-.808-.211-1.054-.176-.211-.211-.633-.106-.88-.246 0-.527-.105-.703-.28h-.035c.316-.141.598-.317.773-.599h3.587zm-3.27-.915c.352-.562.809-1.195 1.336-1.3l-1.371-.845-1.758.95-1.759-.95-1.441.844c.492.066.892.652 1.258 1.187l.078.114.035.07h.387v.07c0 .071 0 .142.035.212.07.176.176.387.387.527.21.176.562.317.984.317.95 0 1.372-.598 1.407-1.055v-.07h.387l.035-.07zm-.281-2.532L24 19.143v-2.99l1.899-.632-.492 2.883zm-3.622-3.375l2.074.808 2.075-.808c-.176-.422-.985-.774-2.075-.774-1.09 0-1.899.352-2.074.774zm6.68 9.53c-.702 0-.843-.845-.843-.845-.211.598.317 1.055.844 1.055v-.21zm-.948 1.406l.07.21c-.492.142-1.16-.35-.985-.984 0 0 .317.915.915.774zm.492-.668c-.704.105-1.02-.704-1.02-.704-.07.457.211.915.668.95-.105.598.457.879.914.668l-.07-.211c-.387.14-.774-.281-.492-.703zm-.422-2.567v.21c-.528-.035-1.055-.457-.844-1.054 0 0-.106.633.844.844z" fill="#000"/><path fill-rule="evenodd" clip-rule="evenodd" d="M21.925 28.813c0-.07.035-.105.07-.105.07 0 .106.07.106.105 0 .07-.07.106-.105.106-.036 0-.07-.035-.07-.106zm-.281 3.587l-.352.668h.246l.352-.668h-.246zm.492 0l-.351.668h.28l.317-.668h-.246zm1.688.668l.352-.668h.246l-.352.668h-.246zm.844-.668l-.316.668h.246l.316-.668h-.246zm-1.336.668l.316-.668h.282l-.352.668h-.246zm3.305 0h.247l.351-.668h-.281l-.317.668zm-4.325 0l.317-.668h.28l-.35.668h-.247zm.844-.668l-.352.668h.282l.316-.668h-.246zM24.703 11.653c.106 0 .246-.07.246-.211 0-.106-.175-.457-.175-.457s-.247.316-.247.457c-.035.105.07.21.176.21zm1.477 2.391c-.457-.352-1.266-.703-2.32-.703-1.056 0-1.864.351-2.322.738 0 0-.14-.809-.597-1.547l.844.105.422-.95.843.423.81-.809.808.809.844-.457.422.95.844-.106c-.457.703-.598 1.547-.598 1.547zm-3.868-1.934l-.422.844-.527-.07c.121.212.19.398.274.626l.042.112c.528-.316 1.336-.563 2.145-.563.809 0 1.618.247 2.145.563l.042-.112c.084-.228.153-.414.275-.627l-.493.07-.386-.843-.739.387-.809-.81-.809.81-.738-.387zm4.044-.035c-.035.105-.176.176-.281.105-.106-.07-.14-.21-.106-.316.07-.106.422-.282.422-.282s.035.387-.035.493zm-3.587-.598c0 .105.106.21.246.176.141 0 .211-.106.211-.246 0-.106-.28-.422-.28-.422s-.212.351-.177.492zm-1.055.387c.07.105.035.246-.105.316-.106.035-.211 0-.282-.105-.07-.14-.035-.493-.035-.493s.352.176.422.282zm16.422 7.877c.282-.106.528-.387.633-.633a6.638 6.638 0 01-.65-.152c-.948-.25-2.447-.644-3.71-.095.169-.159.335-.281.488-.394.386-.284.682-.503.707-1.082.246.175.669.28.915-.141-.114-.32-.332-.269-.49-.232-.086.02-.154.035-.179-.014-.024-.062.033-.072.124-.087.17-.029.453-.077.545-.511-.335-.12-.507.021-.605.101-.046.038-.076.062-.099.04-.02-.021 0-.052.03-.1.072-.108.202-.305.005-.674-.337.193-.327.418-.322.553.003.061.004.104-.03.115-.048.013-.067-.027-.094-.082-.05-.102-.125-.257-.468-.234-.047.397.202.53.343.606.07.038.115.062.08.097-.04.039-.088.001-.154-.05-.11-.086-.27-.21-.515-.055 0 .492.387.738.809.633-.038.494-.303.67-.633.888-.279.186-.605.402-.88.87.87.447 1.427 1.13 1.952 1.774.26.32.512.63.792.898.281-.176.738-1.02.738-1.02.88.669 1.512 0 1.512 0-.178-.178-.274-.318-.37-.46a2.846 2.846 0 00-.474-.56zm-1.477 1.582c.458-.527.282-1.23.176-1.442.22.132.399.247.548.343.446.286.63.404.894.325-.211-.316-.492-.597-.914-.949.246-.035.492-.106.738-.317a12.58 12.58 0 01-.315-.085c-.625-.175-1.606-.449-2.463-.301-.316.035-.492.176-.387.246.563.351 1.231 1.195 1.723 2.18zM23.05 35.846l.563.035.106-.035c-.052.172-.112.31-.168.44a2.562 2.562 0 00-.149.404c-.035.14-.07.211-.176.211-.07.035-.175 0-.175-.105 0-.123.119-.27.246-.427.092-.112.187-.23.246-.347l-.246-.035c-.106-.035-.211 0-.211 0 0 .035 0 .07-.035.07h-.07l.07-.21zm.95.211v.176c.246 0 .563.07.527.352 0 .246-.21.351-.422.351-.105 0-.316-.035-.316-.176 0-.07.035-.14.105-.14.07 0 .141.035.141.105 0 .027-.005.049-.01.067-.006.03-.012.052.01.074h.07c.106-.035.176-.176.176-.281 0-.211-.14-.317-.386-.317l.035-.387c.093 0 .195-.01.292-.019.087-.008.169-.016.235-.016l.035.211H24zm1.04-.207a.315.315 0 00-.266.313c0 .28.316.386.527.28.035.212 0 .388-.105.388-.07 0-.07-.07-.07-.106-.036-.07-.071-.105-.141-.07-.106 0-.106.07-.106.105.035.106.176.106.246.106.282-.035.422-.246.422-.492 0-.282-.176-.528-.457-.528H25.055a.032.032 0 00-.015.004zm0 0c-.03.015-.055.071-.055.102 0 .14.035.422.21.422.036 0 .07 0 .07-.036 0-.102-.032-.472-.197-.491a.281.281 0 00-.028.003z" fill="#000"/><path fill-rule="evenodd" clip-rule="evenodd" d="M10.32 20.69s.458.844.74 1.02c.25-.25.48-.538.718-.836.531-.663 1.102-1.375 2.024-1.837-.285-.46-.614-.677-.892-.86-.338-.223-.6-.396-.62-.898.387.106.774-.14.809-.633-.27-.157-.424-.028-.528.059-.06.05-.102.085-.14.047-.036-.036.008-.06.08-.098.14-.075.389-.208.342-.606-.36 0-.447.158-.499.254-.03.054-.048.088-.099.063-.033-.011-.032-.05-.03-.108.006-.127.016-.344-.322-.56-.19.358-.074.538 0 .65.034.052.058.09.035.123-.024.038-.063.009-.122-.037-.108-.082-.286-.217-.58-.103.086.393.35.447.52.482.105.021.174.035.147.115-.024.05-.091.03-.174.007-.155-.044-.367-.105-.459.24.247.422.668.316.915.14.05.604.334.812.71 1.087.15.11.315.23.485.39-1.267-.523-2.772-.14-3.72.101a7.036 7.036 0 01-.64.145c.105.247.351.528.633.633-.256.237-.37.418-.474.587-.083.133-.16.259-.3.398-.07.035.563.703 1.442.035zm18.04 14.382v-1.125c-.843.387-1.969.704-3.375.844l-.07.387c.045 0 .105.007.172.014.086.01.185.021.284.021-.527.07-1.195.106-1.547.106-.387 0-1.055-.036-1.582-.106.123 0 .223-.012.305-.022.058-.007.108-.013.152-.013l-.07-.387c-1.407-.14-2.497-.457-3.376-.844v1.125l-1.16.493c.878.457 1.863.809 3.023 1.125l-.14.457c.668.176 1.723.387 2.813.387s2.145-.21 2.813-.387l-.14-.457a13.217 13.217 0 003.024-1.125l-1.126-.492zm-5.731.704l-.025.027c-.052.058-.164.185-.397.36l.035.035c.021 0 .043-.014.073-.032a.803.803 0 01.067-.038l-.14.527c0 .035-.035.035-.07.035h-.106v.07l.492.106v-.07l-.07-.035c-.035 0-.035-.036-.035-.07l.246-.915h-.07zm-3.06-.493l-.773.317c.668.281 1.477.598 2.426.809l.457-1.442c-.95-.21-1.617-.387-2.11-.598v.914zm4.29 1.97c-.879 0-1.758-.14-2.496-.317l.457-1.512c.316.07 1.09.176 2.04.176.914 0 1.722-.105 2.039-.176l.457 1.512c-.738.211-1.618.317-2.497.317zm2.145-2.286l.457 1.442a12.186 12.186 0 002.427-.809l-.774-.317v-.914c-.492.211-1.16.387-2.11.598zM10.321 19.6c-.387.316-.703.633-.914.95.298.081.492-.047.954-.353.136-.09.295-.196.487-.316-.07.211-.246.915.176 1.442.493-.985 1.196-1.829 1.723-2.18.14-.07-.07-.211-.387-.246-.856-.148-1.837.126-2.463.301-.119.033-.225.063-.315.085.247.211.458.282.739.317z" fill="#000"/><path d="M23.156 20.057v.492c.176-.21.492-.175.492-.175v.703s0 .352-.14.492h.703c-.105-.14-.14-.492-.14-.492v-.703s.316-.036.492.175v-.492h-1.407z" fill="#000"/></svg>