<svg width="48" height="48" fill="none" xmlns="http://www.w3.org/2000/svg"><path fill="#F6F6F6" d="M0 0h48v48H0z"/><path d="M0 41.833c1.474-2.074 4.905-2.488 5.48-4.93.6-2.65 2.718-3.019 4.215-4.355 1.497-.922 3.017-1.82 4.514-2.742.092-.276.207-.553.322-.83.138-.115.3-.23.46-.345.116-.092.231-.161.346-.23.806-.553 17.848-14.377 20.243-16.428.253-.207.483-.438.714-.668 1.312-1.313 2.625-2.604 3.938-3.917l.115-.115c.069-.07.138-.161.207-.23l.346-.346c.069-.092.16-.161.23-.23C42.19 5.245 46.503.069 46.503 0H48v20.544c-1.29.783-1.29 1.92-3.178 2.965l-.23.23c-.092.069-.161.138-.254.207-.046.023-.23.23-.23.23l-1.589 1.176c-.069.069-.161.138-.23.207-.3.23-.599.484-.898.714l-.115.116c-.139.092-.438.345-.461.345-.161.138-.322.3-.484.438-.253.161-.53.322-.783.484-.138.115-.253.207-.368.322-.023.046-.07.07-.115.115-.254.23-.53.461-.783.692-.092.069-.207.16-.323.253-1.128 1.037-2.28 2.05-3.408 3.064-.023.023-.99.784-1.036.807-.115.046-.415.368-.46.438-.093.023-.968.576-1.014.622 0 .046-.023.092-.023.115-.023.345-.023.622.46.46.023 0 .806-.621.922-.69 0 0 .453-.254.806-.461.944-1.314 2.625-1.152 3.822-1.936l.023-.023c.23-.161.484-.322.737-.484.093-.046.162-.092.254-.138.99-.622 4.053-2.557 4.398-2.765.162-.092.3-.184.438-.276.69-.46 1.405-.899 2.095-1.36.116-.115.208-.23.323-.345.069-.092.138-.207.207-.3l.553-.69c.322-.254.806-.853.944-.9V48H0v-2.304l8.06-4.8c.346-.23 6.103-3.556 6.471-3.74.054-.115.054-.115.054-.254a.355.355 0 00-.054-.207c-.115-.023.07 0-.138 0-.069.023-2.234 1.014-2.257 1.037-.069.046-.437.3-.483.322-.691.346-1.942.768-2.633 1.114C6.9 40.228 3.984 42.34 1.865 43.4c-.621.322-1.243.622-1.865.921v-2.488z" fill="url(#paint0_linear-Banks-Banks-Tochka)"/><path fill-rule="evenodd" clip-rule="evenodd" d="M33 15H15v6h6v14h6V21h6v-6z" fill="#17191E"/><defs><linearGradient id="paint0_linear-Banks-Banks-Tochka" x1="23.685" y1="73.179" x2="72.266" y2="27.216" gradientUnits="userSpaceOnUse"><stop stop-color="#E4ACCE"/><stop offset=".564" stop-color="#95B6E8"/><stop offset="1" stop-color="#A2DBFB"/></linearGradient></defs></svg>