<svg width="48" height="48" fill="none" xmlns="http://www.w3.org/2000/svg"><path fill="#F6F6F6" d="M0 0h48v48H0z"/><path d="M8 20.798h6.668C17.653 26 22 30.329 27.202 33.332V40C18.194 36.928 11.055 29.805 8 20.798z" fill="#00AFAA"/><path d="M27.202 20.798v12.534C22 30.347 17.671 26 14.668 20.798h12.534z" fill="#00539B"/><path d="M27.202 20.798H14.668A33.595 33.595 0 0111.16 12h7.244a8.795 8.795 0 018.798 8.798z" fill="#00AFAA"/><path d="M36 29.596v7.244a33.046 33.046 0 01-8.798-3.526V20.798A8.795 8.795 0 0136 29.596z" fill="#F39A00"/><path d="M27.132 12A11.691 11.691 0 0036 20.868V12h-8.868z" fill="#00AFAA"/></svg>