<svg width="48" height="48" fill="none" xmlns="http://www.w3.org/2000/svg"><path fill="#A30046" d="M0 0h48v48H0z"/><path fill-rule="evenodd" clip-rule="evenodd" d="M32.227 32.062c2.12-.408 3.726-2.297 3.726-4.559a4.662 4.662 0 00-2.477-4.122c-.705-.393-.82-1.169-.363-1.875a3.551 3.551 0 00.604-1.992c0-1.793-1.315-3.28-3.017-3.52a9.12 9.12 0 00-.296.002 1.582 1.582 0 00-.089-.003h-4.698v11.223c0 4.387-3.745 7.957-8.325 7.957-4.54 0-8.228-3.554-8.292-7.89a9.507 9.507 0 008.039 4.89c.09.003.181.006.273.006 2.892 0 5.232-2.227 5.232-4.963V13h7.771c3.197 0 5.766 2.261 6.343 5.287a4.294 4.294 0 000 0c.077.397.118.808.118 1.227 0 .784-.339 1.566-.596 2.263 1.843 1.382 2.794 3.377 2.82 5.635v.37c-.076 4.143-3.556 7.332-7.722 7.332h-4.944c-.845 0-1.53-.671-1.53-1.498 0-.826.685-1.496 1.53-1.496h4.944c.17 0 .338-.01.502-.028.15-.007.3-.017.447-.03zM9 27.18v-9.988C9 14.88 10.92 13 13.283 13h3.037c.845 0 1.53.67 1.53 1.497 0 .826-.685 1.496-1.53 1.496h-3.037c-.113 0-.226.004-.338.012a1.205 1.205 0 00-.886 1.153V27.18c0 2.65 2.206 4.855 4.973 4.99a9.491 9.491 0 01-8.03-4.888L9 27.18z" fill="#fff"/></svg>