<svg width="48" height="48" fill="none" xmlns="http://www.w3.org/2000/svg"><path fill="#ED1C24" d="M0 0h48v48H0z"/><path fill-rule="evenodd" clip-rule="evenodd" d="M24.146 14.116c-.082.135-.165.271-.247.412a2.948 2.948 0 01-.215-.233l-.053-.078a5.888 5.888 0 01-.285-.44c-.735-1.318-1.128-2.748-1.464-4.207l-.006-.025c-.062-.269-.094-.405-.18-.474-.087-.07-.233-.07-.527-.07h-1.745c.037.21.07.416.102.617.07.43.135.838.233 1.237.542 2.185 1.514 4.122 3.245 5.63.483.426 1.244.478 1.688 0 .08-.086.169-.161.258-.237.078-.065.155-.131.226-.203 1.599-1.61 2.465-3.587 2.9-5.793.053-.268.087-.54.123-.824.017-.139.035-.281.055-.428-.246 0-.484.002-.716.003-.45.003-.88.006-1.311-.003-.232-.004-.301.078-.35.304-.283 1.346-.631 2.677-1.23 3.923-.145.303-.32.59-.501.89zm7.622-3.59c-.143-.145-.29-.295-.446-.451-.18.295-.365.582-.546.864-.367.571-.724 1.126-1.026 1.71-.896 1.757-1.37 3.619-1.106 5.617.045.337.507.792.844.842 1.276.184 2.518.019 3.739-.353a12.25 12.25 0 004.38-2.397l-.27-.262a30.26 30.26 0 01-1.105-1.114c-.201-.217-.34-.208-.575-.054-1.26.825-2.557 1.578-4.01 2.014-.222.062-.45.109-.678.155-.103.02-.205.041-.306.064l-.107-.093a27.7 27.7 0 00.134-.493c.095-.359.19-.717.317-1.068.455-1.245 1.125-2.381 1.852-3.484.104-.149.16-.256 0-.411-.357-.343-.705-.695-1.09-1.086zM9.02 28.557v-2.367l.192-.044c1.838-.425 3.688-.853 5.328-2.048-.072-.051-.138-.1-.202-.148a5.146 5.146 0 00-.389-.27c-1.152-.7-2.423-1.073-3.714-1.41-.15-.038-.3-.069-.452-.1-.185-.037-.37-.075-.552-.126-.091-.026-.22-.146-.223-.224C9 21.126 9 20.428 9 19.702c1.14.082 2.262.33 3.33.736 1.656.63 3.14 1.516 4.26 2.927a1.107 1.107 0 01-.008 1.463c-1.32 1.618-3.057 2.585-5.02 3.165-.56.166-1.135.28-1.723.397-.27.054-.543.108-.819.168zm8.255-12.05c.05.188.1.377.157.562l-.13.086c-.982-.086-1.865-.46-2.738-.911a44.592 44.592 0 01-1.805-1.005c-.25-.144-.498-.287-.745-.427L10.42 16.41c.015.021.033.04.053.056l.157.126c.127.103.255.206.388.297 2.11 1.508 4.41 2.431 7.055 2.276h.008c.298-.013.586-.025.85-.256.35-.306.434-.674.457-1.096.114-2.036-.448-3.904-1.43-5.657a18.442 18.442 0 00-.891-1.392 43.523 43.523 0 01-.443-.657l-.426.435c-.355.364-.684.702-1.023 1.028-.18.167-.18.275-.052.489l.125.221c.56.992 1.122 1.985 1.618 3.01.185.382.296.8.408 1.218zm-7.029 14.78a12.029 12.029 0 015.312-2.575c.91-.2 1.85-.23 2.772-.087.319.051.75.488.794.8a8.637 8.637 0 01-.35 3.806 12.297 12.297 0 01-2.345 4.301l-1.635-1.619c1.036-1.64 2.07-3.3 2.42-5.363-1.924.278-3.47 1.229-4.988 2.161-.122.075-.242.15-.363.223l-1.617-1.647zm27.195.444l.406-.409c-.25-.16-.49-.323-.727-.482-.47-.316-.924-.622-1.4-.89-1.716-.952-3.547-1.494-5.534-1.374l-.099.006c-.288.014-.575.028-.83.258-.337.297-.438.646-.465 1.058-.111 1.63.249 3.17.897 4.651a12.136 12.136 0 001.902 3.041c.154-.154.306-.309.456-.463a30.4 30.4 0 01.9-.894c.213-.198.241-.34.072-.596-.826-1.24-1.56-2.535-2.007-3.971-.07-.227-.114-.461-.157-.695-.02-.107-.04-.215-.063-.32l.1-.106c.163.047.327.091.492.135.359.096.718.193 1.07.321 1.23.454 2.356 1.12 3.458 1.828.097.061.308.099.369.042.385-.36.756-.734 1.16-1.14zm1.547-3.243a12.446 12.446 0 01-4.195-1.116 9.984 9.984 0 01-3.23-2.362 1.348 1.348 0 01-.006-1.838c1.246-1.393 2.783-2.316 4.538-2.873.631-.2 1.282-.341 1.953-.487.308-.067.62-.135.936-.21 0 .833 0 1.553-.012 2.273 0 .065-.17.159-.272.18-1.409.308-2.808.67-4.105 1.325-.25.125-.487.273-.75.436-.132.082-.27.168-.42.257.144.09.272.177.392.258.202.136.382.258.574.36 1.317.698 2.741 1.087 4.189 1.39.31.066.435.17.419.512-.024.436-.02.872-.015 1.322.002.189.004.379.004.573zM27.756 38.974l.53-.001c-.04-.214-.074-.422-.108-.625-.072-.438-.141-.855-.245-1.266-.533-2.16-1.501-4.07-3.202-5.575-.483-.424-1.303-.461-1.728 0-.08.086-.17.163-.26.24a3.78 3.78 0 00-.222.202c-1.604 1.622-2.464 3.62-2.897 5.824-.052.264-.084.531-.118.81l-.05.393c.202 0 .398-.003.589-.005.429-.006.833-.011 1.236.014.383.023.521-.104.598-.48.306-1.47.704-2.916 1.439-4.242a6.68 6.68 0 01.338-.525c.071-.105.149-.218.233-.346.105.192.213.372.316.545.215.36.413.691.537 1.049.282.817.529 1.648.776 2.479.124.417.248.834.377 1.25.03.097.128.246.197.246.54.015 1.08.014 1.664.013z" fill="#fff"/></svg>