<svg width="48" height="48" fill="none" xmlns="http://www.w3.org/2000/svg"><path fill="#00707B" d="M0 0h48v48H0z"/><circle cx="24" cy="24" r="15" fill="#fff"/><path d="M21.72 20.026h2.295V23l3.56-2.975H30.9l-4.76 3.977 4.76 3.971h-3.323l-3.561-2.971v2.971H21.72v-7.948z" fill="#00707B"/><path d="M18.238 24c0-3.27 2.693-5.922 6.014-5.922 1.195 0 2.309.343 3.245.935h3.442a8.419 8.419 0 00-6.687-3.273c-4.632 0-8.388 3.698-8.388 8.26 0 4.562 3.756 8.26 8.388 8.26a8.42 8.42 0 006.687-3.273h-3.442a6.054 6.054 0 01-3.245.935c-3.321 0-6.014-2.651-6.014-5.922z" fill="#00707B"/><path d="M14.844 19.013a10.704 10.704 0 019.408-5.533c4.446 0 8.258 2.675 9.866 6.479L29.317 24l4.83 3.974c-1.593 3.84-5.423 6.545-9.895 6.545a10.705 10.705 0 01-9.408-5.532h-2.63c1.978 4.624 6.623 7.87 12.038 7.87 6 0 11.054-3.984 12.583-9.413L32.64 24l4.212-3.366.005.002c-1.502-5.47-6.576-9.493-12.605-9.493-5.415 0-10.06 3.246-12.038 7.87h2.63z" fill="#00707B"/></svg>