<svg width="48" height="48" fill="none" xmlns="http://www.w3.org/2000/svg"><path fill="#2E4B97" d="M0 0h48v48H0z"/><path fill-rule="evenodd" clip-rule="evenodd" d="M25.128 13.597L24 12 9 33.29h2.252l13.876-19.693zm.27.382l.99 1.407L13.773 33.29h-1.983l13.607-19.312zm1.259 1.789l1.124 1.596-11.22 15.927h-2.248l12.344-17.523zm1.393 1.981L39 33.291h-7.542l-7.18-10.19 3.772-5.352zm-.966 13.017c0-1.391-1.386-2.527-3.084-2.527-1.698 0-3.08 1.136-3.08 2.527 0 1.392 1.382 2.525 3.08 2.525 1.698 0 3.084-1.133 3.084-2.525z" fill="#fff"/></svg>