<svg width="48" height="48" fill="none" xmlns="http://www.w3.org/2000/svg"><path fill="#293C7F" d="M0 0h48v48H0z"/><path d="M13.324 30.1a18.589 18.589 0 004.096 1.46 22.64 22.64 0 006.26.537c2.483-.124 4.891-.603 7.201-1.532 1.762-.707 3.388-1.645 4.77-2.963 1.059-1.011 1.888-2.173 2.303-3.597.212-.726.313-1.468.195-2.221-.039-.239-.154-.469-.253-.694-.024-.054-.124-.108-.188-.108-3.368-.005-6.736-.005-10.104-.008-.123 0-.191.028-.225.16-.139.566-.29 1.129-.435 1.695-.016.061-.018.126-.028.204l.167.014c1.192.063 2.384.106 3.572.192.706.05 1.408.15 2.084.38.137.047.275.11.399.188.188.118.24.256.14.453-.102.202-.227.4-.379.57-.51.573-1.125 1.024-1.758 1.45-1.408.95-2.882 1.78-4.49 2.35-.601.212-1.213.303-1.843.156-.45-.104-.648-.346-.659-.813-.016-.655.12-1.293.267-1.924.177-.763.395-1.517.594-2.274l.031-.123c-.13-.01-.25-.025-.37-.03-.444-.017-.886-.026-1.329-.052-.144-.009-.22.047-.296.162-.637.974-1.374 1.86-2.303 2.577-1.052.81-2.246 1.34-3.497 1.752-1.448.478-2.92.85-4.43 1.067-.135.019-.273.022-.405.043-.307.05-.542-.055-.787-.247-1.494-1.164-2.302-2.715-2.565-4.556-.223-1.563.202-2.995 1.042-4.313.838-1.313 1.972-2.329 3.268-3.17 1.856-1.203 3.893-1.957 6.046-2.414a21.653 21.653 0 015.35-.454c2.843.108 5.566.705 8.087 2.075a9.921 9.921 0 011.837 1.265c-.053-.025-.105-.047-.156-.072-1.698-.86-3.503-1.389-5.378-1.692a22.151 22.151 0 00-4.06-.278c-3.403.082-6.662.764-9.694 2.362-1.504.793-2.85 1.79-3.927 3.119-.79.974-1.342 2.06-1.575 3.303-.17.901-.054 1.758.301 2.596.195.459.188.452.678.54 1.031.187 2.066.196 3.106.11 1.058-.087 2.091-.287 3.088-.658 1.718-.638 3.066-1.765 4.206-3.17a.35.35 0 00.038-.059c.005-.008 0-.022 0-.048-.387-.018-.775-.03-1.16-.053-1.734-.104-3.464-.238-5.15-.68-.39-.102-.769-.262-1.14-.424a1.417 1.417 0 01-.436-.326c-.247-.262-.238-.58.039-.807.188-.153.41-.28.636-.373.665-.273 1.37-.385 2.082-.462 1.273-.139 2.549-.04 3.824-.012 1.223.028 2.445.072 3.668.098.075.002.17-.066.221-.13.423-.53.815-1.086 1.26-1.599.479-.554 1.052-1 1.758-1.245.428-.15.867-.164 1.312-.117.228.024.278.098.214.359-.108.434-.232.864-.359 1.294-.134.452-.28.901-.418 1.35-.02.062-.025.126-.04.217h.239c3.32 0 6.641.002 9.96-.004.15 0 .23.04.3.176.444.857.777 1.75.856 2.717.087 1.1-.138 2.148-.612 3.143-.655 1.374-1.653 2.465-2.845 3.387-1.682 1.3-3.584 2.152-5.617 2.727a20.81 20.81 0 01-4.125.72c-2.847.214-5.634-.062-8.34-1.004-1.453-.508-2.809-1.203-4.014-2.171a2.413 2.413 0 01-.105-.091zm12.578-2.892c-.143.61.195.604.509.557.132-.019.266-.052.393-.096 1.403-.479 2.671-1.209 3.85-2.099.227-.172.438-.378.623-.598.242-.287.172-.557-.176-.704a2.434 2.434 0 00-.676-.191c-1.195-.13-2.392-.24-3.59-.36-.1-.01-.128.038-.152.125-.157.58-.337 1.153-.474 1.738-.126.537-.208 1.084-.307 1.628zm-2.56-6.156c-.388 0-.758-.007-1.127.002-1.688.035-3.377.064-5.065.12-.42.014-.841.096-1.254.186-.237.051-.26.227-.074.387.079.068.173.128.269.168.18.075.362.146.549.193 1.712.437 3.469.54 5.223.652a.206.206 0 00.15-.067c.444-.542.883-1.089 1.33-1.64zm2.802-.033c-.448 0-.864-.003-1.28.005-.05.002-.112.056-.145.103-.366.535-.728 1.072-1.09 1.608-.032.046-.053.096-.088.159.068.009.108.015.15.017.488.016.977.026 1.465.052.126.007.174-.03.22-.14.228-.543.463-1.083.697-1.623.019-.04.033-.083.071-.181zm-.794-.601c.34 0 .68.005 1.02-.005.06-.002.142-.061.171-.117.143-.27.276-.547.4-.826.052-.117.095-.242.11-.37.025-.188-.044-.242-.224-.188a.999.999 0 00-.258.112c-.528.335-.984 1.127-1.22 1.394z" fill="#fff"/></svg>