<svg width="48" height="48" fill="none" xmlns="http://www.w3.org/2000/svg"><path fill="#005797" d="M0 0h48v48H0z"/><path fill-rule="evenodd" clip-rule="evenodd" d="M26.229 25.15L25.15 26.23l.728 1.69 2.069-2.069-1.72-.7zm-1.457 1.254h-1.515l-.7 1.69h2.914l-.699-1.69zm1.632-3.147v1.486l1.69.728V22.53l-1.69.728zm-3.555 2.972l-1.078-1.078-1.69.7 2.069 2.068.7-1.69zm3.03-6.148l-.728 1.69 1.078 1.078 1.719-.7-2.069-2.068zm-2.622 1.544h1.515l.7-1.719h-2.914l.699 1.72zm-1.632 3.118v-1.486l-1.719-.728v2.942l1.72-.728zm.146-1.894l1.078-1.078-.7-1.69-2.068 2.069 1.69.7zm1.136-4.05h10.344c.35 0 .728.117.99.408.263.262.408.612.408.99 0 .35-.145.73-.408.991l2.36 2.36A4.7 4.7 0 0038 20.198a4.765 4.765 0 00-1.398-3.38 4.699 4.699 0 00-3.351-1.399h-6.993l-3.35 3.38zm4.021.729l7.313 7.313c.233.262.408.612.408.99 0 .408-.175.758-.408 1.02a1.535 1.535 0 01-1.02.408v3.35c1.34 0 2.506-.553 3.38-1.398A4.757 4.757 0 0038 27.831a4.759 4.759 0 00-1.398-3.35l-4.925-4.953h-4.749zm2.302 3.38V33.25c0 .35-.146.7-.408.99-.291.263-.64.408-.99.408-.38 0-.729-.145-1.02-.408l-2.36 2.36a4.749 4.749 0 006.73 0 4.699 4.699 0 001.399-3.35v-6.993l-3.351-3.35zm-.758 4.02l-7.313 7.284c-.262.262-.612.437-.99.437-.38 0-.729-.175-.991-.437-.262-.233-.408-.582-.408-.99h-3.35c0 1.31.524 2.505 1.369 3.38.874.844 2.068 1.398 3.38 1.398a4.759 4.759 0 003.35-1.398l4.953-4.954v-4.72zm-3.38 2.302H14.779c-.378 0-.728-.146-1.02-.437a1.387 1.387 0 01-.407-.99c0-.35.145-.7.408-.991l-2.36-2.36a4.749 4.749 0 000 6.73 4.765 4.765 0 003.38 1.399h6.963l3.35-3.351zm-4.02-.816l-7.313-7.313a1.406 1.406 0 01-.408-.99c0-.38.174-.73.408-.991.262-.263.611-.408.99-.408v-3.35a4.64 4.64 0 00-3.35 1.398A4.64 4.64 0 0010 20.11c0 1.311.524 2.506 1.399 3.38l4.924 4.924h4.749zm-2.273-3.321V14.749c0-.35.117-.7.408-.99.262-.263.641-.408.99-.408.35 0 .73.145.991.408l2.36-2.36A4.65 4.65 0 0020.198 10a4.765 4.765 0 00-3.38 1.399 4.843 4.843 0 00-1.37 3.35v6.993l3.351 3.35zm.758-3.992l7.284-7.313a1.406 1.406 0 011.02-.408c.378 0 .728.145.99.408.233.233.408.582.408.99h3.35a4.757 4.757 0 00-1.398-3.38 4.786 4.786 0 00-3.35-1.369c-1.34 0-2.506.525-3.38 1.37l-4.924 4.953V21.1zm5.273 4.924l1.195-1.195v-1.66l-1.195-1.195h-1.66l-1.195 1.195v1.66l1.195 1.195h1.66zm-2.68 2.447l-2.593-2.622v-3.7l2.593-2.622h3.7l2.622 2.622v3.7l-2.622 2.622h-3.7z" fill="#fff"/></svg>