<svg width="48" height="48" fill="none" xmlns="http://www.w3.org/2000/svg"><path fill="#882132" d="M0 0h48v48H0z"/><path d="M18.161 11.015l-.047-.996c.084-.009.14-.019.195-.019 1.624 0 3.25.014 4.874.01.27 0 .4.097.513.346a3228.04 3228.04 0 004.916 10.852c.139.305.248.62.389.922a1.199 1.199 0 00.83.67c2.735.762 5.106 2.15 7.054 4.223 1.156 1.23 1.932 2.657 2.092 4.374.134 1.438-.299 2.593-1.576 3.386-1.46.907-2.99 1.19-4.615.562-1.004-.388-1.745-1.149-2.43-1.948-1.149-1.325-1.865-2.89-2.532-4.493-.715-1.722-1.496-3.416-2.24-5.126-.078-.177-.17-.237-.37-.206-5.348.807-9.014 3.76-11.078 8.728-.166.401-.162.877-.208 1.32-.008.074.128.216.215.233.462.092.93.154 1.397.225.134.021.27.035.404.052v1.137H9c.126-.39.223-.754.36-1.102 1.507-3.857 3.756-7.146 7.284-9.439 2.424-1.574 5.066-2.448 7.971-2.478.068 0 .136-.009.249-.017-.036-.112-.057-.207-.092-.294-1.331-3.063-2.663-6.124-3.996-9.184a5.27 5.27 0 00-.318-.612c-.389-.638-.916-1.056-1.704-1.062-.183 0-.365-.035-.593-.064zm11.567 12.663c.092.213.13.327.184.438.32.701.624 1.411.966 2.102.881 1.78 1.461 3.712 2.629 5.348.52.732 1.157 1.343 2.005 1.694.847.352 1.612.185 2.3-.358.688-.542.83-1.29.693-2.09a5.638 5.638 0 00-1.326-2.765c-1.575-1.819-3.516-3.096-5.786-3.878-.52-.179-1.052-.31-1.665-.49z" fill="#fff"/></svg>