<svg width="48" height="48" fill="none" xmlns="http://www.w3.org/2000/svg"><path fill="#FE5000" d="M0 0h48v48H0z"/><path d="M32.719 11H15.326A4.323 4.323 0 0011 15.318v17.364A4.323 4.323 0 0015.326 37h17.347A4.323 4.323 0 0037 32.682V15.318C37.044 12.934 35.107 11 32.72 11zm2.974 21.232c-.046.045-.136.09-.18.045a22.153 22.153 0 00-11.49-3.194c-4.191 0-8.157 1.17-11.491 3.194-.045.045-.135 0-.18-.045-.045-.09 0-.135.045-.18 3.064-2.34 5.677-5.308 7.705-8.817 2.028-3.508 3.29-7.287 3.785-11.065 0-.045.045-.135.135-.135.09 0 .135.045.135.135.496 3.778 1.758 7.557 3.785 11.065a29.668 29.668 0 007.705 8.772c.09.09.09.135.046.225z" fill="#fff"/></svg>