<svg width="48" height="48" fill="none" xmlns="http://www.w3.org/2000/svg"><path fill="#252A6C" d="M0 0h48v48H0z"/><path fill-rule="evenodd" clip-rule="evenodd" d="M21.174 18.292v-7.917c2.163-.5 4.412-.5 6.575 0v7.93l6.894-3.966a15.17 15.17 0 013.28 5.692c-.575.33-1.148.662-1.718.992-1.494.864-2.974 1.72-4.47 2.547-.215.118-.652 0-.91-.149a277.133 277.133 0 01-5.696-3.298c-.476-.284-.828-.293-1.313 0a241.875 241.875 0 01-5.77 3.337c-.237.134-.637.237-.836.127-1.758-.977-3.5-1.988-5.27-3.014l-.002-.002-.923-.535a15.047 15.047 0 013.272-5.69l6.887 3.946zm-3.044 5.792c.405.247.819.484 1.232.721.953.547 1.906 1.094 2.762 1.758 1.638 1.284 3.048 1.219 4.673-.012.876-.664 1.861-1.188 2.844-1.71.332-.176.663-.352.99-.533.206-.115.566-.182.747-.08a453.52 453.52 0 015.244 3.006l1.29.746a15.247 15.247 0 01-3.286 5.686l-6.9-3.97v.952c0 .585-.002 1.169-.004 1.753-.006 1.498-.012 2.995.02 4.493.013.624-.192.835-.788.919a15.8 15.8 0 01-5.773-.172V29.7l-6.909 3.967A15.257 15.257 0 0111 28.006l.336-.204c.294-.18.587-.358.884-.53l1.091-.632c1.313-.761 2.626-1.523 3.948-2.27a4.32 4.32 0 01.855-.278l-.022-.03a.604.604 0 01.009.004c-.004-.005-.006-.01-.005-.012l.054.009a1.326 1.326 0 01-.02.021zm.02-.021c.042-.047.083-.098.123-.148.104-.129.207-.258.34-.336.805-.475 1.614-.94 2.422-1.405.942-.54 1.883-1.082 2.816-1.637.45-.268.78-.251 1.229.018.404.241.81.48 1.216.72 1.443.851 2.891 1.705 4.297 2.675a72.765 72.765 0 00-1.094-.216 58.184 58.184 0 01-1.37-.275c-1.389-.303-2.64-.16-3.915.623-.707.433-1.725.513-2.596.486-.835-.026-1.667-.18-2.5-.333-.322-.06-.645-.12-.968-.172z" fill="#fff"/></svg>