<svg width="48" height="48" fill="none" xmlns="http://www.w3.org/2000/svg"><path fill="#DB082B" d="M0 0h48v48H0z"/><path d="M37.948 12.106a.398.398 0 00-.262-.106h-4.135a.615.615 0 00-.575.476l-1.309 12.33c-.052.264-.837 6.56-7.222 6.56h-6.438a.615.615 0 00-.575.477l-.419 4.18c0 .106 0 .211.105.264a.398.398 0 00.261.106h6.438c11.514 0 12.822-11.323 12.875-11.8L38 12.37c0-.105 0-.211-.052-.264zM23.555 17.08h6.438a.615.615 0 00.575-.476l.419-4.18c0-.106 0-.212-.105-.265a.397.397 0 00-.261-.106h-6.438C12.67 12 11.308 23.27 11.256 23.747L10 36.076c0 .106 0 .211.105.264a.397.397 0 00.261.106h4.135a.615.615 0 00.576-.476l1.308-12.329c0-.264.785-6.561 7.17-6.561zm-.262 6.19h3.926c1.046 0 1.988-.846 2.093-1.851l.157-1.535c0-.106 0-.212-.105-.264a.397.397 0 00-.261-.106h-1.466-3.977c-1.884 0-4.815 1.27-5.181 4.762-.367 3.492 2.302 4.762 4.186 4.762h3.298c1.046 0 1.988-.846 2.093-1.852l.157-1.481c0-.106 0-.212-.105-.265a.398.398 0 00-.261-.106h-1.518-3.245c-.628 0-.89-.635-.837-.952.052-.37.104-1.111 1.046-1.111z" fill="#fff"/></svg>