<svg width="48" height="48" fill="none" xmlns="http://www.w3.org/2000/svg"><path fill="#0A3883" d="M0 0h48v48H0z"/><path d="M32.617 34.985l6.31-10.93-6.31-10.931h-2.3l6.31 10.931-6.31 10.93h2.3z" fill="#fff"/><path d="M34.29 24.056l-6.311-10.932s-12.636-.004-12.637 0a10.151 10.151 0 018.088 10.963c2.907 1.79 4.841 4.956 4.841 8.567 0 .79-.081 1.593-.256 2.331l6.275-10.93z" fill="#fff"/><path d="M28.015 34.985c-.833-6.17-6.129-10.93-12.516-10.93 2.408 0 3.961-1.707 3.963-3.989 0-1.281-1.338-5.027-4.12-6.942L9.043 24.056l6.312 10.931 12.659-.002z" fill="#fff"/></svg>