<svg width="48" height="48" fill="none" xmlns="http://www.w3.org/2000/svg"><path fill="#F6F6F6" d="M0 0h48v48H0z"/><path d="M17.783 17.783L21.42 9l2.572 6.21-1.367 5.483-4.843-2.91z" fill="#003B6E"/><path d="M17.783 17.783L21.42 9l-4.658 1.93a1.68 1.68 0 00-.91 2.195l1.93 4.658zM30.203 30.203l-3.638 8.783-2.572-6.21 1.367-5.482 4.843 2.91z" fill="#0079C7"/><path d="M30.203 30.203l-3.638 8.783 4.658-1.93a1.68 1.68 0 00.91-2.195l-1.93-4.658zM15.21 23.993l-3.637-8.782 6.21 2.572 2.91 4.843-5.483 1.367z" fill="#003B6E"/><path d="M15.21 23.993l-3.637-8.782-1.93 4.657a1.68 1.68 0 00.91 2.196l4.658 1.93zM32.776 23.993l3.638 8.783-6.21-2.573-2.91-4.843 5.482-1.367z" fill="#0079C7"/><path d="M32.776 23.993l3.638 8.783 1.929-4.658a1.68 1.68 0 00-.91-2.195l-4.657-1.93zM17.783 30.203L9 26.565l6.21-2.572 5.482 1.367-2.909 4.843z" fill="#003B6E"/><path d="M17.783 30.203L9 26.565l1.93 4.658a1.68 1.68 0 002.195.91l4.658-1.93zM30.203 17.783l8.783 3.638-6.21 2.572-5.482-1.367 2.91-4.843z" fill="#0079C7"/><path d="M30.203 17.783l8.783 3.638-1.929-4.658a1.68 1.68 0 00-2.196-.91l-4.658 1.93z" fill="#003B6E"/><path d="M23.993 32.776l-8.782 3.637 2.572-6.21 4.843-2.91 1.367 5.483z" fill="#0079C7"/><path d="M23.993 32.776l-8.782 3.637 4.657 1.93a1.68 1.68 0 002.196-.91l1.93-4.657zM23.993 15.21l8.783-3.637-2.573 6.21-4.843 2.91-1.367-5.483z" fill="#003B6E"/><path d="M23.993 15.21l8.783-3.637-4.658-1.93a1.68 1.68 0 00-2.196.91l-1.929 4.657z" fill="#0079C7"/></svg>