<svg width="48" height="48" fill="none" xmlns="http://www.w3.org/2000/svg"><path fill="#00609D" d="M0 0h48v48H0z"/><path fill-rule="evenodd" clip-rule="evenodd" d="M26.028 38.995l2.22-5.333h-2.655c-1.35 0-1.81-.966-1.496-1.834l3.74-9.29s.338-.7-.265-1.062c-.676-.386-1.037.313-1.037.313l-6.83 10.763c-.193.313-.82 1.11-1.833.651-1.014-.458-.7-1.52-.628-1.689l3.572-8.518s.361-.82-.025-1.424c-.362-.579-.772-.627-1.206-.651h-1.93L15 27.195l.048-9.339L22.746 9l-2.485 5.912h3.04c.434 0 .869.241 1.11.603.217.362.29.869.048 1.448l-3.837 9.266c-.12.266-.169.797.387 1.038a.716.716 0 00.965-.29l6.684-10.834c.458-.748 1.11-1.159 1.93-.773.966.459.724 1.424.604 1.738l-3.403 8.542c-.7 1.738.676 2.027 1.28 2.027h1.592l2.606-6.37.193 9.483-7.432 8.205z" fill="#fff"/></svg>