<svg width="48" height="48" fill="none" xmlns="http://www.w3.org/2000/svg"><path fill="#8D261F" d="M0 0h48v48H0z"/><path fill-rule="evenodd" clip-rule="evenodd" d="M12.78 14.387c2.1-2.13 4.38-3.6 7.17-4.53 2.88-.99 6.84-1.14 9.48-.36 6.029 1.8 9.479 7.47 8.639 14.25-.81 6.66-6.03 12.63-12.78 14.669-2.91.87-7.47.75-10.02-.24-2.549-1.02-6.299-4.62-6.269-6.03.03-.39 4.14-3.93 4.56-3.93.09 0 .39.54.69 1.23l.57 1.23-.96.75c-.54.39-.96.9-.96 1.14 0 .21.54.81 1.17 1.32 4.83 3.84 11.79 3 16.86-2.04 2.159-2.13 3.329-4.14 4.019-6.84.6-2.31.57-3.84-.15-6.179-.75-2.46-2.88-4.92-5.22-6.06-3.84-1.86-8.82-1.14-13.05 1.95l-1.29.96.81.84.81.87-.6.87c-.539.744-.853 1.195-1.226 1.25-.56.082-1.25-.728-3.033-2.78l-.72-.81 1.5-1.53zm5.37 17.82c-7.05-3.69-4.68-14.43 3.72-16.8 1.74-.48 4.5-.27 5.97.48 2.25 1.14 3.539 2.94 3.929 5.46l.24 1.47h-14.34l.36-.69c.87-1.68.93-1.71 5.7-1.71 3.87 0 4.44-.06 4.29-.45-.33-.84-2.64-1.95-4.05-1.95-1.59 0-3.99 1.08-5.13 2.28-1.08 1.17-2.04 3.33-2.04 4.65 0 2.64 2.4 5.07 5.1 5.07 1.44 0 4.05-1.05 4.77-1.89.36-.48.06-.51-4.11-.51h-4.5l-.33-.93c-.18-.54-.33-1.08-.33-1.2 0-.15 3.18-.27 7.05-.27 5.43 0 7.05.09 7.05.36 0 .78-1.77 3.45-3 4.56-2.07 1.86-4.23 2.7-6.9 2.7-1.68 0-2.55-.15-3.45-.63z" fill="#fff"/></svg>