<svg width="48" height="48" fill="none" xmlns="http://www.w3.org/2000/svg"><path fill="#054497" d="M0 0h48v48H0z"/><path fill-rule="evenodd" clip-rule="evenodd" d="M24 39c8.284 0 15-6.716 15-15 0-8.284-6.716-15-15-15-8.284 0-15 6.716-15 15 0 8.284 6.716 15 15 15zM21.418 17.25c-.792.561-.94.825-.94 1.205l-.047-.052c-.132-.143-.25-.271-.25-.493 0-.247.08-.472.33-.693.102-.09.231-.198.365-.31.232-.194.478-.4.625-.548.23-.23.38-.478.412-.693h.008a.973.973 0 01.19-.016c.183 0 .347.099.347.297 0 .313-.248.742-1.04 1.303zm-7.325 1.914v12.23c0 .136.11.244.246.244h2.246c.136 0 .246-.11.246-.247v-8.943h1.618c.136 0 .247-.11.247-.247v-1.585a.247.247 0 00-.247-.247h-1.618v-.924c0-1.485.99-1.518 1.353-1.518.197 0 .439.025.624.05a.255.255 0 00.28-.179c.15-.508.37-1.25.484-1.617.036-.116-.017-.238-.135-.269-.365-.097-1.085-.213-1.533-.213-3.25 0-3.811 2.26-3.811 3.465zm7.061 3.201v9.026c0 .136.11.247.247.247h2.245a.245.245 0 00.247-.245V20.558a.233.233 0 00-.202-.235 17.077 17.077 0 00-1.943-.102c-.9 0-1.543.054-1.983.09l-.096.008a.25.25 0 00-.23.249v1.543c0 .172.177.311.348.295.41-.038 1.028-.044 1.367-.04zm9.884-2.343c-1.435 0-2.724.783-3.713 1.73V20.6a.247.247 0 00-.247-.247h-2.047a.247.247 0 00-.247.247v10.792c0 .136.11.247.247.247h2.212c.137 0 .247-.11.247-.247v-7.555c.833-.665 2.01-1.388 2.739-1.388.974 0 1.402.61 1.402 2.145v6.8c0 .136.111.245.247.245h2.245a.246.246 0 00.247-.246v-7.558c0-3.003-1.732-3.812-3.332-3.812zM20.7 16.746c-.202.2-.378.375-.487.489-.1-.743.643-1.485 1.518-1.535-.289.31-.695.713-1.03 1.046H20.7zm2.45 1.314l-.093.088c-.368.347-.897.846-.897 1.33a.827.827 0 01-.215-.577c0-.38.213-.627.743-1.188.56-.594.627-.825.627-1.089 0-.148-.066-.33-.231-.61.462.247.66.71.66 1.006 0 .297-.231.693-.594 1.04zm.002.571l.047-.027c.231-.132.561-.511.693-1.006-.066.759-.214 1.534-1.584 1.93.047-.448.586-.752.844-.897z" fill="#fff"/></svg>