<svg width="48" height="48" fill="none" xmlns="http://www.w3.org/2000/svg"><path fill="#1E3262" d="M0 0h48v48H0z"/><path fill-rule="evenodd" clip-rule="evenodd" d="M36.88 21.912c-.167.143-.334.26-.498.406-1.12.854-2.903 1.547-5.35 2.192-5.085 1.38-8.773 1.567-12.958 2.596-.83.212-1.686.474-2.468.807.782.407 1.638.763 2.494 1.097 1.71-.499 2.522-.714 4.99-1.119.951-.17 3.852-.693 5.943-1.117 3.782-.813 9.32-2.576 7.846-4.862zm-2.448-4.764a20.38 20.38 0 00-2.876-.998c-.48.381-1.023.713-1.835 1.026 1.335.234 2.334.615 3.471.927.19.096 1.094-.735 1.24-.955zm-18.519 5.074c4.945-1.454 10.128-1.905 15.381-3.309-2.044-.547-3.189-.787-5.347-.524-3.14.381-6.61 1.045-9.58 1.928-1.168.358-7.275 2.095-5.514 4.524 0 .025 1.042-1.45 5.06-2.62zm-3.4 8.334c-.023.454.264.858.858 1.36.07-.241.19-.429.357-.667-.405-.217-.81-.43-1.214-.693zm2.308-.211c.379-.24.829-.455 1.328-.645-.688-.311-1.425-.617-2.138-.951a7.17 7.17 0 00-.877.64c.568.335 1.117.643 1.687.956zm18.99-10.527c-.995.476-2.421.95-4.466 1.453-1.688.427-5.777 1.022-10.173 1.974-1.38.31-5.16 1.19-7.015 2.762.523.432.856.525 1.426.859.76-.501 1.807-.977 3.354-1.384 2.683-.712 4.706-1.02 7.132-1.423 2.4-.363 6.938-1.313 9.434-2.22.834-.284 1.593-.665 2.139-1.12-.168-.188-1.784-.974-1.831-.9zm1.451-.883c.498.239.953.406 1.38.716.306-.597.116-.978-.522-1.525-.263.311-.55.572-.858.809zm-22.985 8.93c-.453-.235-.738-.426-1.119-.666-.19.43.194.903.572 1.12.165-.167.381-.31.547-.454zm21.01-13.667c-.095.334-.447.738-.687 1.002.737.19 1.498.472 2.21.736-.095-.667-.855-1.31-1.522-1.738zM10.042 18.41c5.183-3.38 10.912-5.38 20.61-3.687.523-.311.83-.621.976-1.24-2.427-.88-5.063-1.19-8.461-1.144-3.045.096-8.537 1.237-11.48 2.98l.9-1.12c2.043-1.218 7.39-2.812 11.41-2.884 2.827-.07 4.277.095 7.654 1-.311-.568-1-.856-2.022-1.332-3.254-1.453-9.317-1.598-14.283.617.615-.428 1.234-.81 2.044-1.162 1.637-.764 4.325-1.504 7.675-1.432 2.689.048 5.874.976 7.822 2.906.33.403.523.807.594 1.119 1.545.786 2.447 1.523 2.946 2.38.216.453.287.929.19 1.476.642.38.953.715 1.288 1.147.21.357.376.758.426 1.12.07.474.117 1.022-.382 1.666.523.263.95.998 1 1.31.26 1.163-.5 2.307-1.474 3.19-1.142.998-3.662 2.19-5.707 2.716-4.038 1.022-7.629 1.453-10.479 1.976 1.283.309 3.018.716 5.847.716 6.058 0 11.407-2.86 11.407-2.86s-.117.36-.238.694c-3.85 2.332-9.957 3.307-12.574 3.188-2.639-.12-4.871-.524-7.058-1.192-.666.192-1.332.407-1.972.668 3.328 1.523 5.847 1.858 8.676 2.07 2.898.217 7.702-.477 11.74-1.95-.19.193-.285.477-.474.644-2.07 1.094-6.44 2.19-8.651 2.285-2.19.096-4.85 0-7.18-.43-1.997-.403-3.639-1.026-5.35-1.784-.306.234-.449.524-.522.857 6.682 3.5 12.907 3.571 20.017 1.357l-.646.62c-7.82 3.191-13.927 1.951-18.66-.334-.164-.072-.354-.145-.495-.24.452.764 4.062 3.407 8.103 3.74 2.783.238 6.181-.239 8.202-1.046l-1.187.617c-.977.477-3.566 1.574-7.182 1.335-4.824-.334-7.535-2.478-8.746-3.595-.572-.527-.83-1.12-.999-1.858-1.093-.572-1.783-1.17-2.351-2.074-.333-.5-.264-1.093-.192-1.597l.146-.424c-.525-.384-1.072-.789-1.285-1.19-.477-.859-.19-1.6.142-2.17-.287-.333-.548-.667-.664-1-.142-.38-.166-.766-.122-1.192.095-.713.477-1.379.977-1.952 1.044-1.214 2.712-2.167 5.537-3.096 2.783-.93 3.9-1.074 5.992-1.551 2.447-.569 5.371-.758 7.82-1.615-6.825-1.19-13.905-.096-19.682 3.878l.377-1.12z" fill="#fff"/></svg>