<svg width="48" height="48" fill="none" xmlns="http://www.w3.org/2000/svg"><path fill="#091C5A" d="M0 0h48v48H0z"/><path d="M9.344 18.791c.413 0 .688.104.895.276.206.206.275.516.275 1.066v6.779c0 .929-.207 1.342-1.342 1.342H9v.413h5.196v-.413h-.172c-1.136 0-1.342-.413-1.342-1.342v-6.779c0-.55.103-.86.275-1.066.172-.172.482-.276.895-.276h.31v-.413H9v.413h.344zM25.998 25.226s-.103-.413-.103-.654v-3.097c-.035-1.789.24-2.718-1.342-2.684v-.413h3.613v.413c-1.618 0-1.411.895-1.446 2.684v7.226h-.516l-7.81-8.224s.103.413.103.654v5.058c-.035 1.858.172 2.065 1.376 2.065v.413h-3.785v-.413c1.204 0 1.41-.172 1.41-2.202v.137-5.78c.035-1.033-.343-1.618-1.479-1.618v-.413h3.476l6.503 6.848zM39.142 18.172h-.413l-.034.138c-.035.206-.104.55-.345.55-.068 0-.24-.034-.412-.103a7.551 7.551 0 00-2.753-.55c-1.72 0-3.269.619-4.404 1.72-1.033 1.032-1.583 2.443-1.583 3.957 0 1.445.585 2.65 1.755 3.647 1.17.998 2.477 1.445 4.404 1.445 1.583 0 2.512-.24 3.888-.963l.241-.138v-2.718c0-1.136.138-1.342 1.067-1.376h.137v-.413h-4.473v.413h.138c1.032.034 1.239.24 1.239 1.17v2.511c-.792.517-1.342.689-2.03.689a3.769 3.769 0 01-2.719-1.136c-.826-.826-1.239-2.064-1.239-3.44 0-1.48.413-2.753 1.205-3.58.654-.653 1.514-.997 2.512-.997.894 0 1.892.378 2.615.929.585.482.86.929 1.1 1.651l.035.104h.379l-.31-3.51z" fill="#fff"/></svg>