<svg width="48" height="48" fill="none" xmlns="http://www.w3.org/2000/svg"><path fill="#7B091E" d="M0 0h48v48H0z"/><path fill-rule="evenodd" clip-rule="evenodd" d="M37 24.886C37 32 31.178 37.77 24 37.77s-13-5.77-13-12.885v-7.552h.001v-1.468a11.707 11.707 0 0110.952 7.511c.17-.613.376-1.212.618-1.793a13.018 13.018 0 00-11.57-7.007V12c5.426 0 10.206 2.75 13 6.918A15.62 15.62 0 0137 12v1.289a14.32 14.32 0 00-12.25 6.864c.55 1.012.989 2.093 1.3 3.224A11.703 11.703 0 0137 15.866v1.288c-5.742 0-10.399 4.616-10.399 10.308H24c0-1.444-.24-2.832-.681-4.13a14.041 14.041 0 00-.62 4.13h-2.6c0-4.085-2.74-7.535-6.5-8.644v6.068c.002 5.692 4.66 10.308 10.401 10.308 5.742 0 10.399-4.616 10.4-10.308H37z" fill="#fff"/></svg>