<svg width="48" height="48" fill="none" xmlns="http://www.w3.org/2000/svg"><path fill="#5FB343" d="M0 0h48v48H0z"/><path d="M27.706 35.22c0 2.087-1.659 3.78-3.706 3.78-2.047 0-3.706-1.693-3.706-3.78 0-2.088 1.659-3.781 3.706-3.781 2.047 0 3.706 1.693 3.706 3.78z" fill="#fff"/><path fill-rule="evenodd" clip-rule="evenodd" d="M24 9c6.075 0 11 5.023 11 11.22v15H13v-15C13 14.023 17.925 9 24 9zm5.859 26.22v-15c0-3.3-2.623-5.976-5.859-5.976-3.236 0-5.859 2.675-5.859 5.975v15H29.86z" fill="#fff"/></svg>