<svg width="48" height="48" fill="none" xmlns="http://www.w3.org/2000/svg"><path fill="#E8AA2D" d="M0 0h48v48H0z"/><path fill-rule="evenodd" clip-rule="evenodd" d="M21.93 7.673l-.736-.662v2.792a14.813 14.813 0 016.025-.016v-2.77c-.58.514-1.142 1.018-1.71 1.527A1162.189 1162.189 0 0124.206 7a563.887 563.887 0 01-1.308 1.544l-.968-.871zm2.303 6.033a821.068 821.068 0 002.986-3.066l-.01-.003c-.07-.014-.116-.024-.172-.03a14.177 14.177 0 00-2.471-.278 13.315 13.315 0 00-4.332.584c-3.066.954-5.328 2.91-6.888 5.671-1.71 3.023-2.192 6.288-1.565 9.697.595 3.237 2.193 5.912 4.755 7.981 2.181 1.764 4.69 2.648 7.483 2.745 1.2.043 2.385-.097 3.554-.392h.043c.004.031.012.058.02.087l.006.02-.036.013c-.034.011-.066.023-.098.03-2.165.563-4.336.606-6.502.038-4.041-1.061-6.963-3.511-8.758-7.263-1.18-2.471-1.55-5.108-1.25-7.831.183-1.7.655-3.313 1.437-4.835a.257.257 0 00.022-.053.521.521 0 01.016-.044 2.766 2.766 0 00-.129-.075c-1.972 3.002-2.664 6.282-2.23 9.815-.06 0-.12.001-.178.003-.136.003-.27.006-.4-.009-.462-.059-.655-.24-.762-.697-.053-.22-.09-.444-.128-.67l-.076-.451a60.329 60.329 0 00-.166-.974c-.048-.258-.203-.45-.477-.472a5.83 5.83 0 00-.636-.01c-.096.003-.193.005-.291.005v.359h.391l.016.123.016.123h-.418v.38H7.5l.01.08.022.162h-.526v.375h.59l.021.109.011.052c.086.461.172.922.247 1.383.128.756.541 1.249 1.308 1.383.294.055.592.063.89.07l.15.005c.117.005.166.032.198.15 1.024 3.94 3.259 6.985 6.797 9.01 3.13 1.791 6.49 2.338 10.029 1.55A13.431 13.431 0 0037.44 28.32a42.3 42.3 0 01.119-.48l.033.002c.028 0 .062.002.095-.001l.174-.01c.2-.01.403-.021.598-.055.708-.123 1.163-.53 1.313-1.249.033-.144.06-.289.086-.433l.001-.006c.075-.416.15-.833.224-1.254h.644l.025-.151.039-.23h-.643l.014-.083c.01-.055.018-.104.029-.158h.316c.354 0 .354 0 .386-.354l-.002-.005a.06.06 0 01-.009-.022h-.632c.005-.032.011-.062.017-.09.01-.052.019-.1.025-.151.193 0 .37 0 .547-.005.038 0 .102-.038.113-.07.018-.061.026-.125.035-.19l.013-.094a.197.197 0 01-.027-.01.065.065 0 00-.021-.006l-.339-.001a32.093 32.093 0 00-.68 0c-.434.012-.627.194-.697.623-.101.637-.209 1.275-.326 1.913-.113.6-.622.911-1.223.75.145-2.76-.573-5.28-2.15-7.541-1.57-2.252-3.67-3.827-6.25-4.787-.015.048-.026.08-.037.107-.005.011 0 .022.006.032 2.358 1.051 4.202 2.691 5.472 4.948 1.276 2.267 1.684 4.695 1.244 7.263l-.137.001a3.835 3.835 0 01-.233 0 4.042 4.042 0 01-.252-.022c-.423-.07-.627-.252-.723-.676a9.18 9.18 0 01-.1-.51l-.008-.042a63.044 63.044 0 01-.108-.64c-.052-.305-.103-.612-.16-.914-.064-.327-.257-.483-.59-.499-.18-.008-.364-.007-.548-.006h-.593l.018.103c.011.058.022.11.025.166.01.086.043.118.129.112.078-.003.16-.002.24 0h.119c.214 0 .22.006.209.247h-.633c.016.1.032.192.049.283l.016.092h.648c.01.08.022.156.038.241h-.638c.005.044.012.086.018.125.009.048.017.094.02.138.005.091.042.123.133.118.118-.004.236-.002.354-.001h.177l.063.341c.075.407.149.805.216 1.204.128.76.547 1.243 1.318 1.393.128.026.26.041.394.057.063.008.127.015.19.024-.005.015-.007.03-.01.045a.228.228 0 01-.01.046c-.52 1.57-1.336 2.97-2.499 4.149a10.417 10.417 0 01-11.117 2.428c-2.97-1.131-4.963-3.216-5.944-6.25-.043-.14-.08-.279-.118-.418l.103-.012c.14-.017.272-.032.4-.058.708-.129 1.175-.514 1.325-1.238.041-.198.078-.399.116-.598l.06-.324c.029-.151.055-.304.082-.458l.058-.33h.643c.012-.094.026-.182.042-.274l.017-.107h-.643a6 6 0 00.019-.109l.024-.132h.648a25.8 25.8 0 01.026-.15l.039-.23h-.638c.008-.125.012-.185.044-.214.03-.028.085-.028.192-.028.118 0 .24 0 .359-.005.037 0 .09-.032.096-.059.023-.087.034-.171.047-.268l.007-.048-.363-.001c-.236-.002-.467-.003-.698 0-.44.012-.628.188-.697.617-.113.665-.225 1.324-.349 1.989-.048.257-.171.482-.428.595-.246.112-.508.107-.79.102h-.004c-.23-2.584.316-4.959 2.026-6.931 2.546-2.938 5.79-3.688 9.488-2.809l-2.943-3.071zm-.22-1.559c-.159-.142-.332-.298-.52-.462.258-.241.494-.456.708-.643.135.121.282.256.437.399l.26.239a117.618 117.618 0 00-.702.632l-.184-.165z" fill="#fff"/></svg>