<svg width="48" height="48" fill="none" xmlns="http://www.w3.org/2000/svg"><path fill="#F38230" d="M0 0h48v48H0z"/><path fill-rule="evenodd" clip-rule="evenodd" d="M22.399 9c.035.168.07.336.103.503.04.202.081.402.124.6.035.168-.042.24-.197.263l-.178.024c-.245.033-.489.066-.73.114-.166.03-.244-.024-.268-.18l-.069-.466c-.029-.2-.058-.405-.092-.62.362-.068.72-.132 1.074-.196L22.4 9zm4.04.006l.408.07.898.15-.03.192c-.048.322-.096.64-.161.948-.012.054-.155.126-.233.12a7.565 7.565 0 01-.966-.144c-.066-.011-.155-.155-.143-.226.041-.285.105-.57.171-.863l.055-.247zm-10.311 2.243c.239.4.453.764.68 1.152l.27-.15c.257-.143.509-.283.756-.429.054-.036.102-.185.072-.238-.133-.241-.276-.479-.423-.724a67.903 67.903 0 01-.174-.29c-.274.154-.533.304-.791.454l-.39.225zm7.393-.226h1.784v1.688H23.52v-1.688zm5.05 2.489h-.001c-.36-.13-.716-.256-1.082-.383l.095-.261c.15-.415.297-.819.46-1.219.024-.06.18-.125.25-.101.442.137.884.292 1.314.465.065.024.137.18.113.245-.116.336-.244.67-.375 1.012-.058.15-.116.301-.174.456l-.6-.214zm2.515 1.311c.4-.471.77-.907 1.158-1.36.465.382.907.746 1.378 1.14a171.6 171.6 0 00-.776.915l-.375.445-.566-.466v-.001c-.268-.22-.535-.441-.819-.673zm-4.182.961l-.193-.03a56.17 56.17 0 01-1.58-.262c-.065-.012-.155-.156-.149-.221.072-.525.155-1.05.257-1.575.012-.054.143-.137.209-.126a30.11 30.11 0 011.635.263c.06.012.137.161.125.233-.074.483-.165.975-.264 1.5l-.04.218zm-5.065-.473l.088.473.676-.112h.002c.368-.06.734-.12 1.1-.186.06-.012.144-.161.132-.239-.072-.507-.15-1.02-.25-1.521-.013-.066-.162-.168-.24-.156-.536.066-1.073.155-1.61.251-.06.012-.144.143-.132.203.07.427.15.85.234 1.287zm6.347.3l-.31.525c.59.34 1.152.662 1.742.997.183-.308.361-.611.54-.916l.469-.797-.954-.543-.788-.447c-.238.396-.464.78-.699 1.179v.001zm-8.24-1.175l.505.853.504.853c-.548.313-1.075.61-1.635.927l-.113.064a91.068 91.068 0 01-.925-1.6c-.024-.041.018-.167.06-.19.476-.276.952-.543 1.45-.821l.155-.086zm-1.933 3.007c-.37-.317-.74-.62-1.127-.937l-.252.292c-.314.363-.615.711-.912 1.074-.041.06-.06.215-.018.25.37.314.743.619 1.13.934l.302.248c.138-.164.273-.322.406-.476v-.001c.184-.215.364-.424.537-.639.328-.405.328-.411-.066-.745zm-2.255 7.512v-1.898h-2.017v1.898h2.017zm19.332.006v-1.904h-2.023v1.904h2.023zm-1.844 5.024l-.273.316c-.343.399-.678.788-1.028 1.199-.519-.43-1.02-.841-1.545-1.27l.48-.565c.274-.32.543-.637.815-.957l1.139.938.002.001.41.338zm-16.11-1.277c.436.513.86 1.008 1.295 1.515l-.615.508c-.306.252-.612.504-.93.769l-.201-.236c-.342-.4-.674-.79-.998-1.184-.03-.036-.012-.167.03-.197.29-.245.586-.489.888-.737l.531-.438zm13.414-11.06l-.156.129c.245.287.482.562.715.833l.001.002h.001l.584.68.28-.227c.378-.308.736-.598 1.086-.9.06-.048.084-.233.042-.287-.29-.36-.594-.712-.904-1.07l-.26-.302c-.467.387-.915.755-1.388 1.142zM29 31.226l.613-.352c.182.313.362.618.545.927v.001l.001.002.002.003v.001l.002.002.458.777c-.356.205-.707.404-1.063.605l-.68.385-.209-.355v-.001l-.002-.002c-.26-.443-.52-.883-.797-1.348.39-.22.76-.432 1.13-.645zm-9.502 2.093l.001.001.454.257.43-.73c.19-.322.38-.645.578-.976-.391-.225-.77-.44-1.153-.658l-.005-.003-.004-.002h-.001l-.585-.334-.172.293v.001c-.253.43-.502.855-.735 1.288-.03.047.047.197.113.238.35.214.706.415 1.079.626zm-4.094-13.583h.002c.401.145.8.288 1.211.434l-.686 1.838a67.24 67.24 0 00-.578-.198h-.001c-.193-.065-.383-.13-.572-.196-.054-.019-.106-.043-.157-.066a1.085 1.085 0 00-.285-.1c-.262-.048-.286-.168-.197-.395.209-.513.4-1.026.597-1.557l.664.239h.002zm18.414-.145c-.535.192-1.06.38-1.604.573.227.627.447 1.224.662 1.796.024.003.04.007.053.01.017.003.027.006.037.002l.19-.064c.498-.17 1-.34 1.492-.52.042-.018.078-.173.054-.239-.159-.457-.326-.91-.498-1.376l-.105-.283-.281.101zm-17.2 8.247l-.85.305c-.345.124-.688.247-1.036.375l-.182-.486c-.153-.405-.302-.801-.439-1.203-.018-.06.054-.203.12-.232.35-.136.705-.262 1.06-.388l.39-.138c.173-.06.274-.018.34.168.117.319.237.638.36.967v.001l.236.63zm15.59 0a237.1 237.1 0 001.891.68l.168-.456.001-.002v-.001c.154-.414.305-.822.44-1.236.018-.06-.078-.209-.15-.238-.336-.132-.679-.253-1.021-.374l-.374-.134c-.155-.06-.269-.065-.34.138-.132.373-.275.741-.419 1.113l-.196.51zm-5.298 4.439l.018.095c.101.535.201 1.064.286 1.6.012.065-.09.202-.15.214-.524.095-1.05.185-1.58.25-.078.012-.227-.089-.245-.155a21.214 21.214 0 01-.25-1.521c-.013-.078.083-.233.148-.245.392-.073.786-.13 1.18-.188h.002l.46-.068a.27.27 0 01.103.011l.028.007zm-3.825.125c-.382-.054-.764-.107-1.163-.167-.04.222-.08.436-.119.644-.068.365-.133.714-.186 1.062-.012.072.066.221.12.233.543.102 1.086.191 1.634.263.066.005.203-.09.215-.156.05-.247.091-.495.132-.742.04-.248.08-.496.13-.743.043-.227-.059-.28-.238-.31l-.262-.042h-.001a8.558 8.558 0 00-.262-.042zm-6.498 2.148l-.692-.57-.692-.57c.388-.453.764-.895 1.158-1.36.12.1.24.198.36.295.34.278.674.552 1.018.839-.359.431-.707.842-1.08 1.281l-.072.085zm14.505-1.366c.394.47.758.907 1.152 1.372.392-.333.767-.645 1.147-.96l.231-.192c-.25-.29-.488-.57-.726-.849l-.431-.505c-.251.206-.494.406-.737.608l-.002.002a245 245 0 01-.634.524zm-14.505-19.72c-.477.388-.918.752-1.384 1.14.394.453.77.895 1.158 1.36l.395-.325.002-.002.003-.002.978-.805c-.252-.301-.497-.59-.74-.879l-.412-.487zm-3.723 5.004l-.37-.213.448-.763.447-.764 1.284.727.002.002.003.002.269.152c-.186.315-.367.626-.552.944l-.343.59c-.406-.229-.791-.45-1.188-.677zm-.262 11.47c.256.43.513.865.793 1.342.531-.31 1.033-.596 1.558-.895-.163-.272-.317-.533-.469-.791v-.001h-.001v-.001l-.431-.728-.297.169c-.36.206-.704.402-1.052.595-.137.077-.19.16-.101.31zm22.183-10.794c-.28-.471-.548-.925-.805-1.378-.03-.048 0-.191.048-.215.295-.179.596-.352.905-.531l.503-.292.23.388c.2.336.394.663.575.996.03.054-.012.203-.065.233-.363.217-.733.426-1.117.644l-.273.155zm-.824 11.287h.001l.001.001.002.001c.508.289.982.557 1.477.841l.125-.213.001-.001c.235-.4.462-.785.68-1.17.03-.054-.007-.185-.054-.215-.34-.21-.686-.406-1.043-.61l-.366-.207-.447.766-.447.767.07.04zm-5.824 4.223l-.649.236.178.453c.121.302.237.593.33.89.083.28.214.274.435.19.352-.13.704-.262 1.062-.375.227-.072.328-.167.191-.4a.579.579 0 01-.045-.12l-.007-.023-.003-.011-.005-.013c-.097-.259-.193-.517-.29-.782l-.157-.423c-.36.132-.699.255-1.04.378zm-6.956.644l.15-.414-.137-.048c-.44-.155-.86-.304-1.271-.477-.215-.083-.304-.024-.376.173-.137.394-.287.782-.436 1.17-.06.155-.03.25.126.304l.098.036c.39.143.776.284 1.166.405.084.024.263-.03.287-.095.138-.342.264-.693.393-1.054zm-.537-21.923c-.326.118-.65.234-.984.357l-.124-.325v-.002h-.001v-.001c-.152-.398-.298-.78-.43-1.17-.018-.053.06-.19.12-.214.435-.173.87-.328 1.312-.471.066-.024.221.047.25.107.12.3.232.604.349.923v.003l.2.542c-.234.086-.464.168-.692.25zm2.858 23.211v.41h1.624c.16 0 .197-.077.197-.22a45.293 45.293 0 010-1.277c0-.15-.042-.221-.203-.221-.188.002-.377.003-.566.003h-.002c-.286 0-.572.002-.858.009-.066.006-.185.101-.185.155-.01.374-.008.747-.007 1.141zM35.72 22.161v-.002c-.057-.312-.115-.626-.178-.957.316-.066.62-.126.925-.185l.165-.033c.14-.03.278-.059.42-.063.095 0 .274.072.286.143.077.37.136.745.2 1.143.02.13.04.262.063.397a346.03 346.03 0 00-1.742.31l-.14-.753zm-22.637.157c.065-.362.13-.73.204-1.128l-1.134-.203a2.393 2.393 0 01-.172-.036c-.157-.036-.317-.073-.395-.012-.104.085-.129.268-.153.442-.006.045-.012.09-.02.13-.055.3-.103.604-.152.923l-.027.17c.597.107 1.152.203 1.743.304l.106-.59zm22.46 4.492l.082-.444c.082-.44.159-.857.24-1.274l.72.127c.334.059.668.118 1.016.177l-.044.28c-.042.267-.082.525-.135.782-.01.05-.018.106-.026.16-.024.174-.05.354-.153.43-.089.071-.28.028-.454-.012-.048-.01-.094-.021-.137-.029-.292-.038-.58-.094-.873-.15l-.237-.047zm-22.487-1.256l-.085-.456c-.603.107-1.152.203-1.748.304l.065.38c.07.41.137.801.215 1.19.012.053.137.13.197.119.398-.063.796-.136 1.195-.208l.398-.073c-.083-.432-.16-.842-.237-1.256zm22.54 6.793l.248.2c.225.18.44.35.641.534.054.048.06.227.012.292-.185.257-.4.496-.615.723-.047.047-.197.065-.244.03a9.874 9.874 0 01-.782-.64c-.048-.04-.048-.208-.006-.268.175-.215.357-.424.551-.647h.001l.002-.003.003-.004.002-.002.187-.215zm-3.248 3.813a80.689 80.689 0 00-.326-.561c-.406.233-.788.454-1.187.686l.167.28c.175.293.342.572.519.872l.59-.334.591-.334c-.122-.207-.237-.407-.354-.608zM13.23 15.653l-.26-.21c-.23-.184-.453-.363-.666-.554-.041-.036-.035-.19.006-.245.197-.256.412-.507.633-.745.042-.048.19-.06.245-.024.262.19.519.4.751.62.054.054.066.233.018.293-.189.255-.395.488-.615.737l-.113.128zm22.121-.288l.247.288c.12-.095.237-.191.353-.287.17-.138.337-.275.506-.405.161-.126.155-.233.03-.37-.07-.079-.138-.16-.207-.24a7.03 7.03 0 00-.384-.429c-.053-.053-.22-.06-.286-.018a7.033 7.033 0 00-.45.357c-.083.07-.165.138-.248.204-.15.12-.155.227-.024.37.153.166.3.339.463.53zM17.65 36.85v.001l-.001.001-.34.578c-.4-.227-.775-.436-1.187-.662.196-.336.383-.662.58-1.006l.094-.164.192.11c.333.188.661.374 1.002.564l-.34.578zm-4.416-4.504l.439.516c.144.17.29.34.438.517l-.144.12c-.265.222-.51.426-.763.613-.053.042-.22.024-.268-.03a8.948 8.948 0 01-.62-.721c-.042-.054-.048-.21-.013-.245.209-.187.426-.362.653-.544l.278-.226zm26.587-8.98H38.45v.001c0 .447 0 .859.006 1.282l.304.001c.297.001.586.002.871-.007.066-.006.185-.077.185-.125.01-.281.008-.566.007-.856v-.296zM37.37 18.66c.276-.101.544-.197.822-.296l.003-.002.452-.161c.08.215.157.428.235.644l.224.614-.638.23-.639.23c-.149-.424-.298-.83-.459-1.26zm-27.19-.454c-.16.43-.31.83-.465 1.26.453.154.865.298 1.289.447.08-.227.16-.444.238-.659.072-.198.144-.394.215-.594-.43-.155-.835-.298-1.277-.454zm22.524-6.963c-.239.406-.447.764-.674 1.158l-.155-.087c-.34-.19-.675-.378-1.032-.575l.307-.53v-.001l.001-.001.366-.632c.4.22.781.436 1.187.668zM10.4 23.373H9.004l-.002.326c-.003.26-.005.51.008.76.006.066.12.18.185.185.34.018.68.018 1.014 0 .066 0 .185-.095.185-.155.009-.272.008-.544.007-.825v-.29zm26.975 5.973l.23-.626.23-.627c.429.155.835.298 1.276.454l-.23.632-.23.633-.289-.106-.227-.083-.76-.277zm-26.148-.635c-.077-.206-.153-.412-.23-.624a80.74 80.74 0 01-1.283.46c.167.435.322.84.477 1.258.454-.167.853-.316 1.265-.47-.077-.213-.153-.419-.23-.624zm15.15 10.009l.055.274.198-.031c.309-.049.604-.096.9-.13.155-.018.197-.09.173-.239-.016-.1-.029-.2-.042-.3-.027-.204-.053-.407-.101-.607-.018-.071-.167-.167-.25-.16-.195.014-.39.046-.586.077-.116.02-.233.038-.351.053-.167.024-.203.108-.167.269.062.26.115.52.17.794zm-5.19.076L22.4 39l.043-.202c.064-.301.128-.6.172-.908.006-.071-.078-.215-.143-.227a9.359 9.359 0 00-.997-.149c-.066-.012-.197.078-.209.137-.051.267-.09.533-.13.806l-.049.322.101.017z" fill="#fff"/></svg>