<svg width="48" height="48" fill="none" xmlns="http://www.w3.org/2000/svg"><path fill="#057A55" d="M0 0h48v48H0z"/><path d="M16.228 33.009c-.157-.074-.114-.063-.093-.225h.015c.254.061 1.791-.373 1.904-1.489l.012-15.325c-.058-.193-.244-1.242-.98-1.417-.24-.007-.483-.01-.721-.013-.11-.055-.113-.261.005-.296h4.062c.025.013.05.03.053.092 1.368.095 2.557 2.025 2.833 3.3l4.5 14.417-.045-16.02c-.353-1.476-.63-1.654-1.86-1.716-.106-.234.092-.198.066-.21 2.716.07 5.43-.108 6.293 3.54.015.455.013.934-.015 1.418-.538 2.35-2.462 2.867-3.165 3.311 1.085 0 3.994 1.83 3.894 5.331-.043 1.505-.726 2.803-1.841 3.815-1.521 1.378-2.895 1.507-4.645 1.1-1.923-.447-3.729-1.935-4.378-3.973l-3.326-10.44.004 12.426c.393 1.767 1.794 2.017 2.88 2.104.124.064.103.228-.038.265-1.807 0-3.61 0-5.414.005zM24 9c4.142 0 7.892 1.68 10.607 4.393A14.953 14.953 0 0139 24c0 4.142-1.68 7.892-4.393 10.607A14.954 14.954 0 0124 39c-4.142 0-7.892-1.68-10.607-4.393A14.954 14.954 0 019 24c0-4.142 1.68-7.892 4.393-10.607A14.953 14.953 0 0124 9zm9.49 5.51A13.379 13.379 0 0024 10.579a13.379 13.379 0 00-9.49 3.93A13.379 13.379 0 0010.579 24a13.38 13.38 0 003.93 9.49A13.38 13.38 0 0024 37.421a13.38 13.38 0 009.49-3.93A13.38 13.38 0 0037.421 24c0-3.706-1.502-7.062-3.93-9.49z" fill="#fff"/></svg>