<svg width="48" height="48" fill="none" xmlns="http://www.w3.org/2000/svg"><path fill="#133C8E" d="M0 0h48v48H0z"/><path fill-rule="evenodd" clip-rule="evenodd" d="M32.648 12c4.203 3.15 6.451 7.189 6.349 12.364-.099 4.923-2.329 8.758-6.34 11.736-.088-.18-.174-.35-.257-.515-.161-.32-.31-.616-.451-.916l-.636-1.354c-.844-1.798-1.69-3.598-2.515-5.405-.2-.433-.442-.602-.928-.602-2.566.022-5.131.026-7.697 0-.53 0-.763.2-.97.655-.932 2.02-1.883 4.034-2.834 6.047l-.53 1.123c-.092.197-.19.39-.304.612l-.182.359C11.23 33.048 8.984 29.084 9 24.017c.016-5.023 2.244-8.98 6.371-12.015l2.333 4.949.41.864c.371.776.743 1.554 1.084 2.35.201.466.457.647.979.641 2.545-.028 5.085-.028 7.62 0 .547 0 .82-.18 1.043-.669a575.697 575.697 0 012.508-5.405l.001-.001.863-1.845c.085-.186.175-.366.29-.594l.146-.292zm.42 22.193c6.803-5.694 5.792-15.81-.026-20.22-.135.285-.266.556-.402.828a719.57 719.57 0 01-1.17 2.501c-.632 1.346-1.264 2.694-1.884 4.05-.201.463-.458.631-.977.627-3.08-.028-6.161-.028-9.242 0-.526 0-.77-.176-.97-.633a101.35 101.35 0 00-1.262-2.73l-.358-.755c-.4-.857-.807-1.713-1.217-2.574a693.49 693.49 0 01-.625-1.314c-6.166 4.842-6.461 14.972-.024 20.186l.12-.233c.079-.15.155-.296.226-.446.261-.555.524-1.109.787-1.663.77-1.622 1.539-3.243 2.273-4.881.273-.603.602-.804 1.27-.792 1.651.03 3.303.026 4.955.021.76-.002 1.518-.004 2.277-.002.235 0 .484-.023.733-.045.6-.053 1.198-.106 1.598.153.41.265.648.865.882 1.454.088.223.177.444.273.645.752 1.55 1.486 3.11 2.237 4.707l.526 1.116zM17.35 12.053h13.317c-.402.895-.788 1.723-1.176 2.547l-.315.671c-.427.912-.854 1.824-1.32 2.714a1.031 1.031 0 01-.735.472c-2.076.039-4.151.035-6.229 0a.937.937 0 01-.715-.387 224.325 224.325 0 01-1.828-3.875 466.69 466.69 0 00-.999-2.143zm.11 24.023h13.19l-.672-1.434c-.742-1.582-1.46-3.112-2.207-4.628-.094-.193-.482-.337-.735-.337-1.012-.013-2.025-.013-3.036-.013-1.012 0-2.024 0-3.035-.012-.462-.006-.68.163-.864.565-.538 1.187-1.09 2.367-1.643 3.548-.283.604-.566 1.209-.847 1.814a3.963 3.963 0 00-.15.497z" fill="#fff"/></svg>