<svg width="48" height="48" fill="none" xmlns="http://www.w3.org/2000/svg"><path fill="#005091" d="M0 0h48v48H0z"/><path fill-rule="evenodd" clip-rule="evenodd" d="M31.919 13.707a16.227 16.227 0 00-4.213 4.143 44.591 44.591 0 00-3.44 5.675c.847-.254 2.471-.725 2.471-.725a47.499 47.499 0 013.876-5.78c2.074-2.562 4.697-3.566 6.278-3.413A2.292 2.292 0 0034.68 12H31.88c.686.162.987 1.013.04 1.698v.009zm-10.756-.621c-1.978-.546-5.68.066-7.788 1.777v-.009A8.59 8.59 0 0011 17.7v-3.492a2.261 2.261 0 012.305-2.183h17.898c-.8.136-1.526.549-2.052 1.166-.076.08-.176.194-.295.332-.772.893-2.382 2.756-4.11 2.287-1-.272-1.401-.819-1.802-1.366-.398-.543-.796-1.086-1.781-1.358zm4.256 22.487c-1.528-.153-2.445-1.537-2.257-3.71.109-1.56 1.205-4.222 2.257-6.357-.873.232-2.039.611-2.44.769a29.024 29.024 0 01-2.672 5.037 28.331 28.331 0 01-4.448 5.426h18.827a2.266 2.266 0 002.279-1.95v-9.875a86.748 86.748 0 01-5.352 6.644c-2.602 2.907-4.666 4.169-6.194 4.016zm-5.43-8.294l-.007.003.006-.012v.009zm-.007.003a36.516 36.516 0 00-4.708 2.856c-.93.655-5.645 4.453-3.811 6.29 1.627 1.241 3.864-1.842 4.94-3.327h.001c.189-.26.342-.471.45-.601 1.248-1.641 3.01-4.993 3.128-5.218zm5.485-9.524c-.616.873-3.226 4.898-4.23 6.644v-.009c-3.16.96-8.098 3.501-10.233 6.409v-9.665a4.964 4.964 0 003.13 2.183 7.029 7.029 0 004.863-.734 8.032 8.032 0 001.847-1.392c1.104-1.118.716-2.462-.205-2.729-.921-.266-1.803.35-2.262 1.074-.458.725-1.07 1.624-3.03 1.624a2.488 2.488 0 01-2.448-2.034c-.502-2.14 2.252-4.374 4.736-4.759 2.61-.4 3.097.584 3.643 1.69.294.596.606 1.228 1.277 1.698.881.59 2.03.59 2.912 0zm7.438-.694a35.803 35.803 0 00-3.614 4.985 32.26 32.26 0 004.365-2.348c1.563-.974 3.994-2.925 3.182-3.93-.812-1.003-2.741-.065-3.928 1.284l-.005.009zm-4.776 7.648a30.752 30.752 0 005.457-2.82v-.009a27.24 27.24 0 003.375-2.72v3.79c-.725.881-4.868 5.566-6.614 7.159-2.95 2.72-4.928 2.31-4.165-.537a23.001 23.001 0 011.948-4.863z" fill="#fff"/></svg>