<svg width="48" height="48" fill="none" xmlns="http://www.w3.org/2000/svg"><path fill="#DD1F2A" d="M0 0h48v48H0z"/><path d="M19.272 15.07c.025-3.6 2.21-5.995 4.909-6.068 2.699-.073 5.011 2.348 5.106 5.303a7.79 7.79 0 01-1.094 4.089c-1.025 1.841-4.42 5.277-4.42 5.277l-1.292-2.527s.544-.774 1.259-1.634a13.304 13.304 0 002.213-3.619 3.82 3.82 0 00.314-1.535c-.04-1.266-.923-2.276-2.002-2.269-1.08.008-1.984 1.047-2.003 2.287a4.282 4.282 0 00.686 2.553c.24.365.606 1.047.606 1.047l-1.904 2.287a17.62 17.62 0 01-1.171-1.721c-.759-1.273-1.215-2.652-1.215-3.476M18.535 18.456a6.948 6.948 0 00-2.936-1.726c-2.809-.773-5.723.785-6.438 3.443a5.358 5.358 0 003.764 6.467 7.685 7.685 0 004.144-.018c.494-.124.981-.276 1.459-.456l-1.434-2.724s-.616.193-1.04.317c-.852.25-1.766.18-2.57-.197-1.15-.482-1.755-1.704-1.354-2.725.401-1.021 1.692-1.517 2.812-1.094a5.598 5.598 0 011.55 1.061c2.553 2.189 3.55 6.033 3.55 6.033s-3.284 1.094-4.469 1.908c-2.301 1.608-3.283 4.428-2.385 6.795a4.762 4.762 0 004.377 3.202 5.577 5.577 0 005.128-3.454c.664-1.55.82-3.188.853-4.854a16.64 16.64 0 00-5.011-11.979zm1.192 15.931c-.47.828-1.163 1.339-2.155 1.277a1.696 1.696 0 01-1.58-1.197c-.339-.94 0-1.71.57-2.48.988-1.331 3.75-2.028 3.75-2.028s.101 1.131.101 1.514a5.705 5.705 0 01-.69 2.918M25.541 34.14a7.196 7.196 0 001.613 3.045c1.991 2.166 5.27 2.414 7.247.536 2.046-1.944 2.108-5.314.12-7.525a7.828 7.828 0 00-3.538-2.228 13.41 13.41 0 00-1.459-.398l-.178 3.09s.623.167 1.046.291c.86.25 1.6.8 2.087 1.55.73 1.03.616 2.393-.248 3.046-.865.653-2.222.365-2.947-.594a5.79 5.79 0 01-.774-1.737c-1.054-3.242.084-7.043.084-7.043s3.367.847 4.782.78c2.765-.112 5.063-1.976 5.518-4.474a4.913 4.913 0 00-2.09-5.107 5.471 5.471 0 00-6.134.175c-1.36.96-2.338 2.273-3.221 3.67a16.777 16.777 0 00-1.897 12.904l-.01.018zm7.175-14.196a2.188 2.188 0 012.487.076 1.747 1.747 0 01.73 1.868c-.194.98-.876 1.459-1.762 1.805-1.524.598-4.23-.295-4.23-.295s.492-1.018.692-1.343c.49-.88 1.21-1.61 2.083-2.111z" fill="#fff"/></svg>