<svg width="48" height="48" fill="none" xmlns="http://www.w3.org/2000/svg"><path fill="#F6F6F6" d="M0 0h48v48H0z"/><path fill-rule="evenodd" clip-rule="evenodd" d="M23.872 19.707l-1.671 6.824c0 .249-.066.441-.066.56 0 .445.254.634.742.634.313 0 .564-.063.75-.189.183-.124.304-.373.369-.756l1.728-6.95v-.437c0-.442-.25-.697-.744-.697-.55 0-.925.32-1.108 1.01zm-.927-4.512c-1.917 0-3.341.5-4.393 1.563-.814.872-1.432 2.132-1.792 3.822l-1.12 4.447c-.183.82-.307 1.631-.307 2.385 0 1.313.37 2.326 1.114 2.942.747.687 1.857 1.004 3.402 1.004h5.075c1.607 0 2.842-.317 3.766-1.004 1.057-.746 1.796-1.999 2.23-3.758l1.491-5.955c.051-.441.124-.934.124-1.38 0-1.313-.436-2.31-1.364-3-.93-.753-2.162-1.066-3.586-1.066h-4.64zm-15.776 6.14c-1.734 1.187-1.238 3.757-.435 4.636l11.077 10.906c.55.556 1.294.933 2.162 1.06l1.357-5.639h-1.546c-1.733 0-3.024-.375-3.898-1.19a13.141 13.141 0 01-.364-.377c-.065-.123-.189-.248-.248-.377-.496-.746-.685-1.629-.685-2.692 0-.882.067-1.69.313-2.635l1.108-4.57c.064-.257.132-.502.188-.75.062-.255.19-.446.248-.692.435-1.19.928-2.064 1.605-2.754v-.07c.189-.122.31-.311.501-.433.184-.127.37-.315.615-.436.99-.568 2.227-.884 3.71-.884h2.907l1.429-5.887c-.868-.064-1.858.184-2.969.938L7.17 21.334zM27.96 8.613c.925.121 1.663.62 2.16 1.124l11.076 11.218c1.356 1.317.924 3.07-.747 4.263l-16.763 11.84c-.93.631-1.982.941-2.966.941l1.415-5.702h2.916c.862 0 1.666-.12 2.345-.311.741-.195 1.37-.44 1.855-.88.868-.564 1.548-1.5 2.041-2.694.062-.25.186-.502.251-.75.054-.19.124-.438.183-.753l1.542-6.207c0-.186.062-.376.124-.623v-.125c0-.248.063-.503.063-.756 0-.748-.125-1.438-.432-1.996-.248-.63-.682-1.134-1.24-1.572-.553-.436-1.108-.69-1.785-.942-.685-.184-1.364-.251-2.173-.251H26.53l1.429-5.824z" fill="#00ADEF"/></svg>