<svg width="48" height="48" fill="none" xmlns="http://www.w3.org/2000/svg"><path fill="#F56600" d="M0 0h48v48H0z"/><path fill-rule="evenodd" clip-rule="evenodd" d="M20.923 16.312l1.66-7.269h2.056l-1.111 4.886-.081.357c.172 0 .34.002.505.003.482.004.934.008 1.385-.025.104-.007.23-.29.272-.463.348-1.45.692-2.902 1.004-4.36.075-.347.217-.455.556-.44.347.016.695.013 1.07.01.17-.002.345-.004.528-.004-.05.218-.096.428-.141.633-.094.423-.183.824-.277 1.224l-.16.687a635.111 635.111 0 00-1.018 4.437c-.055.244-.123.381-.409.38-1.287-.007-2.575-.007-3.863-.007h-1.69a2.116 2.116 0 01-.286-.05zm-4.164 1.205l-2.926-4.64c-.128.136-.248.267-.363.393-.259.282-.495.54-.75.777-.248.233-.274.409-.084.703.491.758.967 1.524 1.443 2.291.214.346.428.691.644 1.036.4.637.802 1.274 1.2 1.901l.457.721 4.169-4.16.003-.003.2-.2-3.935-6.273-1.447 1.467.063.104c.051.085.11.184.175.282l.575.92c.594.946 1.187 1.893 1.772 2.844.086.14.179.409.115.483-.298.343-.62.664-.96 1.003-.115.114-.232.23-.35.351zm-2.444 6.487c-.001.171-.003.348-.003.533l-5.297-1.204c0 .17.003.334.006.494.007.357.013.693-.016 1.026-.038.435.149.584.542.671 1.101.242 2.2.496 3.299.75l1.868.429c.363.082.728.155 1.097.23h.001c.17.034.343.068.516.104a2.24 2.24 0 00.05-.3v-1.779c0-1.24 0-2.481.01-3.722.006-.346-.204-.395-.456-.453h-.001l-2.203-.506c-.734-.17-1.468-.338-2.203-.506-.526-.12-1.053-.235-1.596-.354l-.914-.201c0 .18.002.353.004.522.005.372.009.721-.01 1.068-.022.377.15.5.487.574 1.47.323 2.937.663 4.4 1.018.156.038.388.21.397.333.031.409.027.82.022 1.273zm5.492 8.167l.944-.594a4.31 4.31 0 01-.089-.112 1.722 1.722 0 00-.085-.105l-1.215-1.215-.002-.002c-.893-.892-1.786-1.784-2.671-2.682-.218-.221-.375-.223-.63-.061a851.33 851.33 0 01-3.854 2.426l-1.82 1.142a2.37 2.37 0 00-.21.157h-.001c-.024.02-.047.037-.067.052l1.442 1.421.018-.01c.045-.024.115-.062.182-.104l.998-.625c.987-.619 1.973-1.237 2.964-1.847.134-.085.397-.154.476-.085.336.287.651.598.989.932l.358.352-4.682 2.962c.131.119.26.232.385.343.301.267.586.52.852.79.213.216.367.236.625.07 1.15-.734 2.31-1.46 3.467-2.184l.523-.327 1.096-.69.003-.001.003-.002h.001zm7.242-.502l-.16.713c-.172.765-.341 1.519-.513 2.272-.098.432-.198.864-.297 1.295-.201.872-.403 1.743-.594 2.617-.062.283-.163.427-.48.413-.36-.015-.72-.012-1.112-.008h-.001c-.177.001-.36.003-.554.003l1.186-5.277-.472-.001c-.498-.002-.971-.005-1.446.018-.075 0-.173.226-.205.359l-.12.509c-.303 1.28-.606 2.562-.877 3.85-.092.43-.26.589-.701.555-.324-.028-.65-.022-1-.016-.158.003-.32.006-.49.006l.193-.86c.13-.583.256-1.144.384-1.705l.365-1.587v-.001l.001-.001c.217-.94.433-1.879.646-2.819.052-.231.11-.392.404-.39a702.4 702.4 0 003.729.007H26.8c.085.009.168.024.25.048zm10.827-14.885l-1.44-1.417-.873.548-.01.006-.002.001c-1.092.686-2.2 1.38-3.31 2.068-.12.074-.364.136-.432.074-.304-.278-.593-.573-.892-.88a50.099 50.099 0 00-.433-.44l4.628-2.926c-.143-.133-.282-.257-.416-.378a16.2 16.2 0 01-.832-.785c-.207-.212-.358-.204-.591-.052-.481.315-.97.618-1.458.922-.219.135-.438.27-.655.408L27.228 16.4l.086.105c.052.063.095.116.143.165.363.364.727.728 1.092 1.091v.001c.902.9 1.804 1.8 2.695 2.712.259.267.444.251.74.066 1.268-.806 2.54-1.603 3.814-2.4v-.001c.608-.38 1.215-.76 1.822-1.142a2.22 2.22 0 00.256-.214zm-6.64 21.248l-1.061-1.691c-.238-.378-.474-.756-.71-1.134-.663-1.06-1.325-2.12-2.006-3.169-.232-.358-.19-.555.11-.85.843-.82 1.674-1.653 2.505-2.486.368-.37.736-.739 1.105-1.107.07-.07.144-.138.226-.212.053-.049.11-.1.171-.158 1.344 2.141 2.663 4.246 3.958 6.314l-1.459 1.446-2.859-4.536c-.107.11-.213.216-.316.32-.343.347-.663.671-.961 1.017-.07.081-.016.34.061.467a215.12 215.12 0 002.407 3.84c.202.313.222.512-.076.778a9.45 9.45 0 00-.749.778c-.111.125-.225.253-.347.383zm1.227-16.924l-.779-.177a1.36 1.36 0 00-.047.213l-.001 1.614c0 1.344 0 2.688-.01 4.033-.003.308.184.348.38.39l.066.014c1.469.343 2.938.683 4.408 1.018.607.139 1.213.274 1.843.415l.663.148c0-.174-.003-.342-.006-.505-.006-.36-.012-.698.016-1.033.035-.415-.138-.555-.514-.637a247.585 247.585 0 01-4.403-1.018c-.143-.035-.373-.154-.378-.247-.026-.454-.023-.91-.02-1.397l.002-.492.938.215c.59.135 1.151.263 1.72.391.67.152 1.34.302 2.04.459l.604.135c0-.219-.001-.426-.003-.625-.003-.378-.006-.73.003-1.08.007-.266-.091-.37-.356-.43-1.061-.23-2.119-.475-3.176-.719a707.262 707.262 0 00-2.99-.685z" fill="#fff"/></svg>