<svg width="48" height="48" fill="none" xmlns="http://www.w3.org/2000/svg"><path fill="#346A82" d="M0 0h48v48H0z"/><path fill-rule="evenodd" clip-rule="evenodd" d="M23.298 11l-.37.661h1.483l-.37-.661h-.743zm-1.113 1.984l.371-.661h2.216v-.02l.381.681h-2.968zm-.37.662l-.372.661h4.452l-.37-.661h-3.71zM20.7 15.63l.371-.662h5.195l.37.662h-5.936zm-.371.661l-.371.662h7.42l-.37-.662H20.33zm-1.732 3.087h2.729a6.994 6.994 0 011.744-.22h1.858c.597 0 1.182.075 1.744.22h2.067-2.066a7 7 0 014.467 3.552L38 36.135H10l6.859-13.204a7 7 0 014.467-3.552h-2.728zm7.466 3.754c-.123 0-.234.002-.337.005-.186.004-.346.008-.503-.005a.33.33 0 00-.39.295l-.089.361c-.213.872-.427 1.744-.628 2.618-.108.468-.213.938-.317 1.407-.172.775-.345 1.55-.534 2.32-.077.31 0 .384.276.371.293-.014.587-.024.881-.033a31.27 31.27 0 001.764-.092c.994-.093 1.887-1 2.033-1.985.174-1.184-.441-1.984-1.62-2.1a17.774 17.774 0 00-.74-.063 27.982 27.982 0 01-.541-.041l.745-3.058zm-2.425.006c-.58-.006-1.152-.012-1.718.007-.776.033-1.477.295-1.947.961-.47.666-.661 1.416-.322 2.205.34.79 1.019.935 1.764.95h.99l-.745 3.175h.906c.22.013.276-.077.322-.287.309-1.424.637-2.846.968-4.268.101-.423.205-.847.31-1.275.117-.482.235-.968.353-1.461-.295 0-.59-.003-.881-.006zm2.874 4.887c-.01.948-.643 1.618-1.516 1.623-.276 0-.395-.1-.327-.382l.099-.41c.135-.565.27-1.13.395-1.695.07-.327.25-.397.54-.293a1.076 1.076 0 01.81 1.157zm-3.454-4.099c-.96-.064-1.62.585-1.62 1.601a1.029 1.029 0 00.855 1.182c.249.055.405.015.47-.3.147-.73.337-1.45.535-2.17.068-.253-.02-.297-.24-.313z" fill="#fff"/></svg>