<svg width="48" height="48" fill="none" xmlns="http://www.w3.org/2000/svg"><path fill="#FFF343" d="M0 0h48v48H0z"/><path d="M10.554 33.217l3.947 4.016 9.21-9.348 9.485 9.556 4.017-3.947-9.418-9.486 1.8-1.731v-3.74l1.109-.969v2.908l1.454 1.178 4.362-4.363 1.385 1.108c.83-3.047-3.947-10.04-7.963-6.163l-4.64 4.57.97 1.108-2.354 2.285-2.285-2.215 1.177-1.108-5.055-4.917c-3.67-3.046-7.616 1.732-7.755 6.37l1.385-1.176 4.224 4.57 1.523-1.247v-2.839l.97.693V22l1.869 1.87-9.417 9.347z" fill="#000"/></svg>