<svg width="48" height="48" fill="none" xmlns="http://www.w3.org/2000/svg"><path fill="#303E49" d="M0 0h48v48H0z"/><path d="M36.057 33.654L9 33.631l2.491-8.125 27.059.024-2.493 8.124z" fill="#00ABC8"/><path fill-rule="evenodd" clip-rule="evenodd" d="M35.97 17.954a1.914 1.914 0 00-1.456.602 1.256 1.256 0 01.76-1.067c.308-.13.637-.17.959-.209.461-.055.91-.108 1.27-.426V15c-.48.17-.982.281-1.49.33a5.21 5.21 0 00-2.134.71c-.907.571-1.552 1.512-1.552 3.414 0 2.48 1.436 3.18 2.915 3.18 1.459 0 2.758-.74 2.758-2.367 0-1.566-.93-2.313-2.03-2.313zm-.803 2.968c-.54 0-.666-.422-.666-.75s.13-.74.666-.74c.535 0 .652.412.652.74s-.13.75-.653.75zM20.06 17.388v5.082h2.233v-1.684h1.028v1.684h2.234v-5.082H23.32v1.683h-1.028v-1.683H20.06zm11.902 0l-.849 2.255 1.035 2.827h-2.23l-.678-1.684h-.534v1.684h-2.233v-5.082h2.233v1.683h.4l.678-1.683h2.178zm-14.384-.126c1.278.235 1.846 1.416 1.846 2.666h.003c0 1.398-.71 2.71-2.33 2.71a2.09 2.09 0 01-.795-.13 1.79 1.79 0 01-.591-.346V24.5h-2.237v-7.114h1.773l.188.615c.135-.169.295-.316.475-.435.31-.208.672-.327 1.045-.344H17.257c.08.006.156.013.232.024l.089.016zm-1.596 3.493a.76.76 0 00.374.095c.472 0 .71-.36.762-.751.007-.057.01-.114.01-.171 0-.454-.232-.92-.772-.92a.774.774 0 00-.653.36v1.121a.759.759 0 00.279.266z" fill="#fff"/></svg>