<svg width="48" height="48" fill="none" xmlns="http://www.w3.org/2000/svg"><path fill="#F6F6F6" d="M0 0h48v48H0z"/><path fill-rule="evenodd" clip-rule="evenodd" d="M24 18.584l.13-.035c-6.404 1.986-11.47 5.39-11.573 7.89-.111 2.675 5.503 3.304 12.538 1.402 7.033-1.9 12.828-5.612 12.94-8.288.057-1.386-1.425-2.223-3.843-2.443 2.956.133 4.808.995 4.808 2.533 0 2.932-6.717 7.212-15 9.561-8.282 2.347-15 1.872-15-1.06 0-2.932 6.718-7.212 15-9.56z" fill="#4D4D4D"/><path fill-rule="evenodd" clip-rule="evenodd" d="M12.255 34l20.794-19.962-1.885 15.692-3.438-3.936L12.255 34z" fill="#F01941"/></svg>