<svg width="48" height="48" fill="none" xmlns="http://www.w3.org/2000/svg"><path fill="#19502E" d="M0 0h48v48H0z"/><path fill-rule="evenodd" clip-rule="evenodd" d="M18.145 10.276l.41.469V5.117h.528v8.207l-3.342-3.283V5.117h.528V8.46l.41.41V5.117h.528v4.22l.41.47v-4.69h.528v5.159zm4.69 2.52l-3.342 3.225v-2.11l3.341-3.225v2.11zm0 8.207l-3.342 3.225V22l3.341-3.224v2.227zm-3.342-2.227l3.341-3.283v-2.052l-3.34 3.225v2.11zm0 2.696l3.341-3.282v-2.052l-3.34 3.224v2.11zm-.41 2.756l-3.342-3.225v-2.227L19.083 22v2.228zm3.224-15.77l-.41.411V5.117h-.528v4.28l-.41.41v-4.69h-.528v5.159l-.41.469V5.117h-.528v8.207l3.341-3.283V5.117h-.527V8.46zm-3.224 7.563l-3.342-3.224v-2.11l3.342 3.223v2.11zm-3.342-.528l3.342 3.224v-2.051L15.74 13.44v2.052zm3.342 5.98L15.74 18.19v-2.052l3.342 3.224v2.11zm16.355-1.525h-8.031c.176-.293.293-.586.293-.938 0-.938-.762-1.758-1.759-1.758-.938 0-1.758.762-1.758 1.758 0 .352.117.704.352.997a.556.556 0 00-.118.762l.117.117c-.586.762-.351 1.876.41 2.404.763.586 1.877.351 2.404-.41.235-.294.352-.645.352-.997s-.117-.645-.293-.938h5.98v.469H32.8v.527h.586v.528H32.8v.938h.586v-.47h.82v.47h.587v-.938h-.586v-.528h.586v-.527h-.586v-.352h1.172a.4.4 0 00.41-.41v-.235c.06-.293-.117-.469-.351-.469zm-9.497 2.873c.47 0 .88-.41.88-.88-.059-.41-.176-.82-.41-1.172V20.3c.175-.41.351-.82.41-1.231 0-.469-.41-.88-.88-.88-.469 0-.879.411-.879.88a.456.456 0 00.117.469l.235.41-.059.059c-.293.293-.234.762.059 1.055l-.235.41a1.105 1.105 0 00-.117.47c0 .468.41.879.88.879z" fill="#FFCB05"/><path fill-rule="evenodd" clip-rule="evenodd" d="M23.362 9.162h.762c4.69 0 9.028 2.169 11.841 5.92 4.925 6.566 3.635 15.887-2.93 20.811-6.566 4.924-15.887 3.635-20.81-2.931-4.925-6.566-3.635-15.886 2.93-20.81v1.29c-3.107 2.637-4.924 6.506-4.924 10.551 0 7.62 6.155 13.952 13.835 13.952 7.679 0 13.893-6.214 13.893-13.835 0-7.679-6.214-13.893-13.835-13.893h-.762V9.162zm-10.61 9.672v2.17a5.591 5.591 0 001.407 3.927l3.4 3.341a4.433 4.433 0 011.348 1.759v-2.345c.058-1.348-.586-2.638-1.642-3.517a150.827 150.827 0 00-1.862-1.827c-.38-.368-.711-.688-1.01-.987a6.287 6.287 0 01-1.641-2.52zm4.513 10.728a151.593 151.593 0 00-1.862-1.827c-.38-.368-.711-.688-1.01-.987-.703-.645-1.23-1.407-1.641-2.227v1.875c-.059 1.407.469 2.814 1.348 3.928l3.4 3.341a5.018 5.018 0 011.348 1.935v-2.52a3.954 3.954 0 00-1.582-3.518zm17.352 2.169a5.81 5.81 0 00.645-.997v-1.993h-.645v2.99zm2.11-4.572a4.885 4.885 0 01-.234.879c-.41-.293-.996-.41-1.583-.352h-.351v-.527h2.169zM21.605 27.1h.586v5.92h-.587V27.1zm.586-1.114h-1.935l.117 10.493-.586-.176V25.4h2.52c.88-.176 1.7.41 1.877 1.231.176-.762.938-1.29 1.758-1.172h.587a1.719 1.719 0 011.641.82l-.117-.645h9.203c0 .088-.015.176-.03.264-.014.088-.028.176-.028.264h-3.928v7.386a8.581 8.581 0 01-1.114.938v-3.341c0-.645-.117-.997-.762-1.231l.762-3.635h-1.407l-.234 3.928h-.176l-.235-3.928h-1.348l.645 3.635c-.645.176-.762.645-.762 1.23v5.218c-.095.024-.2.057-.31.092-.162.052-.336.108-.51.142v-5.744h-1.349v5.979l-.586.117v-9.672h.586v2.99h1.29v-2.873c.058-.352-.059-.762-.294-1.055-.36-.309-.946-.301-1.441-.295l-.2.002a1.332 1.332 0 00-1.055.293 1.332 1.332 0 00-.293 1.055v9.731h-.528V33.9c-.351.586-1.055.997-1.758.88v2.168l-.587-.117v-2.638h.294a2.18 2.18 0 001.348-.293c.234-.293.352-.703.293-1.055v-5.51a1.332 1.332 0 00-.293-1.056c-.293-.234-.704-.351-1.055-.293zm10.258 4.162l-.645-.586.645-3.283v3.87zm-1.934 5.217l-.586.294V30.91h.586v4.455z" fill="#fff"/></svg>