<svg width="48" height="48" fill="none" xmlns="http://www.w3.org/2000/svg"><path fill="#FF7D00" d="M0 0h48v48H0z"/><path fill-rule="evenodd" clip-rule="evenodd" d="M17.628 21.124c.19-3.067 2.72-5.5 5.825-5.5s5.637 2.433 5.826 5.5h4.62C33.705 15.5 29.105 11 23.452 11c-5.651 0-10.253 4.5-10.445 10.124h4.62zM33.871 37a10.48 10.48 0 00-3.885-7.341 10.471 10.471 0 003.84-6.886H29.15c-.586 2.618-2.911 4.576-5.697 4.576s-5.111-1.958-5.696-4.576H13V37h4.612v-6.83a10.36 10.36 0 005.841 1.803c2.945 0 5.374 2.188 5.777 5.027h4.641z" fill="#fff"/></svg>