<svg width="48" height="48" fill="none" xmlns="http://www.w3.org/2000/svg"><path fill="#199F29" d="M0 0h48v48H0z"/><path fill-rule="evenodd" clip-rule="evenodd" d="M29.834 10l1.73.883-13.435 7.73-6.258-3.57 1.068-1.288 5.19 2.981L29.834 10zm4.565 3.055l-1.289-1.178-14.981 8.577-7.141-4.086-.736 1.473 7.877 4.564 16.27-9.35zM39 23.804c0-1.67-.27-3.264-.81-4.786l-.81-2.06L18.13 28 9 22.81v.994c0 2.01.4 4 1.178 5.852a14.51 14.51 0 003.202 4.786c1.423 1.374 3.006 2.43 4.749 3.165a14.541 14.541 0 005.853 1.215c2.012 0 3.963-.405 5.852-1.215a14.789 14.789 0 004.786-3.165 15.297 15.297 0 003.202-4.786l.368-.993c.54-1.57.81-3.19.81-4.86zm-2.503-8.246l-.957-1.288-17.411 10.012-8.466-4.859-.405 1.62 8.87 5.08 18.369-10.565z" fill="#fff"/></svg>