<svg width="48" height="48" fill="none" xmlns="http://www.w3.org/2000/svg"><path fill="#243E8F" d="M0 0h48v48H0z"/><path fill-rule="evenodd" clip-rule="evenodd" d="M17.332 21.282a7.894 7.894 0 1113.124-8.777 7.894 7.894 0 01-13.124 8.777zm6.562 9.825C19.538 31.107 16 30.163 16 29c0-1.163 3.534-2.114 7.894-2.114s7.891.953 7.891 2.114c0 1.162-3.536 2.105-7.891 2.105zm0 2.102c5.684 0 7.891.55 7.891 1.317 0 .767-2.207 1.317-7.891 1.317-5.685 0-7.894-.552-7.894-1.317 0-.764 2.207-1.317 7.894-1.317zm7.891 5.264c0-.37-.88-.526-7.891-.526-7.015 0-7.894.176-7.894.536 0 .36.883.517 7.894.517 7.01 0 7.891-.157 7.891-.527z" fill="#F26F21"/><path d="M16 16.898h-.15.15zm1.332 4.384l.125-.084-.125.084zm-.732-7.406l.138.057-.138-.057zm1.71-2.563l.107.106-.106-.106zm2.562-1.712l-.058-.138.058.138zm10.314 4.27l-.139.058.139-.057zm.45 4.561l-.147-.03.147.03zm-2.16 4.042l.107.106-.106-.106zm-4.04 2.161l-.03-.147.03.147zm-4.56-.448l.057-.138-.057.139zm-5.026-7.29c0 1.591.473 3.146 1.357 4.468l.25-.166a7.744 7.744 0 01-1.307-4.302h-.3zm.611-3.079a8.044 8.044 0 00-.611 3.08h.3c0-1.018.2-2.025.588-2.965l-.277-.115zm1.744-2.61a8.045 8.045 0 00-1.744 2.61l.277.115c.39-.94.96-1.794 1.679-2.514l-.213-.212zm2.61-1.745a8.045 8.045 0 00-2.61 1.744l.212.212a7.742 7.742 0 012.512-1.68l-.114-.276zm3.079-.613a8.044 8.044 0 00-3.08.613l.115.277c.94-.39 1.947-.59 2.965-.59v-.3zm4.468 1.355a8.044 8.044 0 00-4.468-1.355v.3c1.531 0 3.028.454 4.301 1.305l.167-.25zm2.963 3.61a8.044 8.044 0 00-2.963-3.61l-.167.25a7.743 7.743 0 012.852 3.474l.277-.114zm.458 4.646c.31-1.56.15-3.177-.459-4.646l-.277.114a7.743 7.743 0 01.442 4.474l.294.058zm-2.2 4.119a8.044 8.044 0 002.2-4.119l-.294-.058a7.744 7.744 0 01-2.119 3.965l.213.212zm-4.118 2.202a8.045 8.045 0 004.118-2.202l-.212-.212a7.744 7.744 0 01-3.964 2.12l.058.294zm-4.647-.456a8.045 8.045 0 004.647.456l-.058-.294a7.743 7.743 0 01-4.474-.44l-.115.278zm-3.61-2.96a8.045 8.045 0 003.61 2.96l.115-.277a7.744 7.744 0 01-3.476-2.85l-.25.166zM15.85 29c0 .372.28.688.69.946.419.264 1.014.495 1.735.688 1.445.385 3.432.621 5.619.621v-.3c-2.169 0-4.129-.235-5.542-.611-.708-.19-1.27-.411-1.651-.652-.39-.245-.551-.482-.551-.692h-.3zm8.044-2.265c-2.19 0-4.176.24-5.62.627-.722.193-1.316.426-1.734.69-.41.26-.69.577-.69.948h.3c0-.21.162-.448.55-.694.382-.242.944-.465 1.65-.655 1.413-.379 3.373-.616 5.544-.616v-.3zm8.041 2.265c0-.371-.28-.688-.69-.947-.417-.264-1.011-.497-1.732-.69-1.444-.388-3.43-.628-5.62-.628v.3c2.171 0 4.13.238 5.542.617.707.19 1.269.413 1.65.655.389.246.55.484.55.693h.3zm-8.041 2.255c2.187 0 4.173-.236 5.617-.622.722-.192 1.316-.424 1.734-.687.41-.258.69-.574.69-.946h-.3c0 .21-.161.447-.55.692-.382.24-.944.463-1.65.652-1.413.376-3.373.611-5.541.611v.3zm8.041 3.27c0-.275-.2-.493-.512-.66-.316-.171-.788-.315-1.425-.433-1.276-.236-3.26-.373-6.104-.373v.3c2.84 0 4.801.137 6.05.368.626.116 1.061.253 1.336.401.28.15.355.29.355.397h.3zm-8.041 1.467c2.844 0 4.828-.137 6.104-.373.637-.118 1.108-.262 1.425-.432.312-.169.512-.386.512-.662h-.3c0 .108-.075.247-.355.397-.275.149-.71.286-1.336.402-1.249.23-3.21.368-6.05.368v.3zm-8.044-1.467c0 .276.201.493.513.66.316.171.788.315 1.425.433 1.276.236 3.26.374 6.106.374v-.3c-2.84 0-4.802-.138-6.051-.369-.627-.116-1.062-.253-1.338-.401-.28-.151-.355-.29-.355-.397h-.3zm8.044-1.467c-2.846 0-4.83.139-6.107.375-.637.118-1.108.262-1.424.432-.312.168-.513.385-.513.66h.3c0-.107.075-.245.355-.396.275-.148.71-.286 1.337-.401 1.249-.231 3.211-.37 6.052-.37v-.3zm0 5.038c3.506 0 5.473.039 6.563.124.548.043.86.096 1.032.156.086.03.122.056.136.071.009.01.01.014.01.025h.3a.327.327 0 00-.093-.232.63.63 0 00-.255-.148c-.212-.073-.558-.129-1.107-.171-1.103-.086-3.082-.125-6.586-.125v.3zm-7.744.386c0-.01 0-.013.01-.022a.359.359 0 01.136-.072c.173-.06.485-.115 1.032-.16 1.09-.088 3.057-.133 6.566-.133v-.3c-3.507 0-5.486.045-6.59.134-.549.045-.895.102-1.107.176a.638.638 0 00-.254.147.323.323 0 00-.093.23h.3zm7.744.367c-3.507 0-5.474-.04-6.565-.123-.548-.042-.86-.095-1.033-.153a.36.36 0 01-.137-.07c-.008-.009-.009-.012-.009-.02h-.3a.32.32 0 00.094.23.635.635 0 00.255.144c.212.072.558.126 1.107.168 1.104.085 3.083.124 6.588.124v-.3zm7.741-.377c0 .012-.001.016-.01.026a.352.352 0 01-.136.07c-.172.06-.484.114-1.032.157-1.09.085-3.057.124-6.563.124v.3c3.504 0 5.483-.04 6.586-.125.549-.043.895-.098 1.107-.172a.631.631 0 00.255-.148.327.327 0 00.093-.232h-.3z" fill="#F26F21"/></svg>