<svg width="48" height="48" fill="none" xmlns="http://www.w3.org/2000/svg"><path fill="#F6F6F6" d="M0 0h48v48H0z"/><path fill-rule="evenodd" clip-rule="evenodd" d="M9.818 19.364c0-4.819 4-8.728 8.818-8.728l20-.09v.363h-.181c-4.728 0-8.637 3.818-8.637 8.546h-20v-.091zm.182.454c4.636 0 8.364 3.727 8.454 8.364-4.636-.091-8.363-3.636-8.636-8.273.046 0 .068-.023.091-.045.023-.023.046-.046.091-.046z" fill="#0061A1"/><path fill-rule="evenodd" clip-rule="evenodd" d="M38.455 28.09c-4.637 0-8.364-3.726-8.455-8.363 4.636 0 8.455 3.728 8.636 8.364h-.181zM9.727 36.91h.182c4.818 0 8.636-3.728 8.636-8.546h20v.09c0 4.91-3.909 8.819-8.818 8.819h-20v-.364z" fill="#009B3E"/></svg>