<svg width="48" height="48" fill="none" xmlns="http://www.w3.org/2000/svg"><path fill="#25479F" d="M0 0h48v48H0z"/><path fill-rule="evenodd" clip-rule="evenodd" d="M22.846 9h1.762v7.679h-1.762V9zm0 22.321h1.762V39h-1.762v-7.679zM27.993 9.61l1.654.614-2.607 7.21-1.654-.615 2.607-7.21zm-7.579 20.958l1.655.615-2.607 7.21-1.654-.615 2.606-7.21zm12.188-18.605l1.347 1.152-4.888 5.868-1.346-1.152 4.887-5.868zM18.394 29.018l1.346 1.152-4.888 5.868-1.346-1.152 4.887-5.868zM36.15 15.796l.873 1.551-6.583 3.803-.873-1.551 6.583-3.803zM17.015 26.85l.872 1.551-6.582 3.803-.873-1.551 6.583-3.803zm21.122-6.395l.313 1.757-7.457 1.365-.313-1.757 7.457-1.365zM16.46 24.423l.313 1.757-7.456 1.365-.313-1.757 7.456-1.365zm21.994 1.325l-.31 1.758-7.459-1.345.309-1.758 7.46 1.345zm-21.686-3.91l-.309 1.759L9 22.252l.309-1.758 7.46 1.345zm20.226 8.872l-.88 1.548-6.566-3.831.88-1.548 6.566 3.831zm-19.09-11.137l-.879 1.548-6.566-3.832.88-1.547 6.566 3.831zM33.936 34.9l-1.347 1.15-4.881-5.874 1.348-1.15 4.88 5.874zM19.748 17.825l-1.348 1.15-4.881-5.874 1.348-1.15 4.88 5.874zm9.93 19.938l-1.653.619-2.623-7.204 1.653-.618 2.623 7.203zm-7.625-20.94l-1.653.617-2.624-7.203 1.654-.619 2.623 7.204z" fill="#fff"/></svg>