<svg width="48" height="48" fill="none" xmlns="http://www.w3.org/2000/svg"><path fill="#30664A" d="M0 0h48v48H0z"/><path fill-rule="evenodd" clip-rule="evenodd" d="M34.225 30.702c-.22 0-.377.188-.377.408 0 .22.189.377.377.377.22 0 .408-.189.408-.377a.416.416 0 00-.408-.408zm2.639-1.32v-.69h-.314V28h.44v-.314l.534.345v-1.036l-.535.282v-.25h-.69v1.633h-.849v-.377h-.408v-.66h.283l1.979-3.33-1.98-3.33v-.031h-.47v-.44h-1.006l1.068-3.424h.126c.157 0 .251-.094.251-.22v-.094c0-.126-.094-.22-.251-.22h-.032v-.345h-4.052v.376h-.094c-.126 0-.251.095-.251.22v.126c0 .126.125.22.25.22h.158l1.037 3.424h-.943v.44h-2.042v-.44h-.377v-.817h.095c.062 0 .094-.031.094-.063v-.062c0-.032-.032-.063-.094-.063h-.095a1.104 1.104 0 00-.88-1.006v-.25h-.533v.188a1.171 1.171 0 00-.911 1.005h-.095c-.03 0-.094.031-.094.063v.063c0 .031.032.062.095.062h.094v.817h-.346v.44h-2.419c0-.942.534-1.54.534-2.136 0-.094-.408-.189-.91-.189a.404.404 0 00-.378-.314.363.363 0 00-.377.377c0 .189.158.408.377.408.22 0 .346-.156.346-.345.471 0 .785.094.785.22 0 .503-.534 1.225-.502 2.01h-.157v-1.288h-.283v-.502h-.314v.502h-.252v1.288h-1.35v-3.707c.063-.25-.063-.628.816-.66v-.093h-.816c-.063-.252-.44-.503-.88-.503h-5.152c-.377 0-.69.251-.722.503h-1.948v.125c.094 0 .22 0 .314.032v.565h-.157c-.345.094-.251.974-.377.974h-.188v.094h1.539V18.2h-.188c-.126 0-.095-.911-.472-.974h-.063v-.565c.566.031 1.1.094 1.571.188v4.084c0 .691-.22 1.853-1.57 1.853v1.383h18.973c.503 0 .88.408.88.88V28.564h-3.393a2.83 2.83 0 00-2.67-1.853c-1.225 0-2.262.785-2.67 1.853h-.942a2.83 2.83 0 00-2.67-1.853c-1.226 0-2.263.785-2.67 1.853h-.818a2.83 2.83 0 00-2.67-1.853c-1.225 0-2.261.785-2.67 1.853h-.502v-2.073h1.822c.408-.188.879-.283 1.35-.283 1.131 0 2.136.566 2.733 1.414h.66a3.346 3.346 0 015.466 0h.817a3.346 3.346 0 015.466 0h2.858v-2.482a.53.53 0 00-.534-.534H12.801v1.383h-1.79v-.943c0-.283.157-.471.47-.471h1.351v-.409H11.42a.878.878 0 00-.88.88v3.707h-.345v.251h-.66a1.684 1.684 0 01-.346-.848H9v2.168h.157c.063-.283.189-.503.377-.817h.66v.22h.377v1.413h.628v-.91h.22a2.831 2.831 0 002.764 2.167c1.351 0 2.45-.943 2.765-2.168h.628a2.831 2.831 0 002.764 2.168c1.351 0 2.45-.943 2.765-2.168h.754a2.831 2.831 0 002.764 2.168c1.35 0 2.45-.943 2.764-2.168h.472c.282-.44.785-.722 1.35-.722.566 0 1.069.283 1.383.722h.314c.282-.44.785-.722 1.35-.722.472 0 .943.22 1.226.565v-.66h.47v2.702h2.89l.158-.471-2.136-2.262zm-20.67-8.419h-1.602v-4.052c.973.22 1.602.565 1.602 1.256v2.796zm4.46-1.1a.27.27 0 01-.25.252h-.252c-.126 0-.22-.125-.22-.251v-2.325c0-.125.094-.251.22-.251h.251a.27.27 0 01.252.251v2.325zm-6.47 12.315a2.6 2.6 0 01-2.608-2.607 2.6 2.6 0 012.607-2.608 2.6 2.6 0 012.608 2.608 2.6 2.6 0 01-2.608 2.607zm6.156 0a2.6 2.6 0 01-2.607-2.607 2.6 2.6 0 012.607-2.608 2.6 2.6 0 012.608 2.608 2.6 2.6 0 01-2.608 2.607zm6.283 0a2.6 2.6 0 01-2.607-2.607 2.6 2.6 0 012.607-2.608 2.6 2.6 0 012.607 2.608 2.6 2.6 0 01-2.607 2.607zm-12.44-4.995a2.353 2.353 0 00-2.356 2.356 2.373 2.373 0 002.356 2.356 2.353 2.353 0 002.356-2.356 2.373 2.373 0 00-2.356-2.356zm-.188 1.131l.031.534a.447.447 0 00-.188.063l-.691-.848.848.251zM12.77 28l.848 1.068c-.032.063-.094.126-.126.188l-1.288-.376c.094-.346.314-.629.566-.88zm-.691 1.54c0-.158.03-.284.03-.44l1.32.345v.22l-1.288.471a3.156 3.156 0 01-.063-.597zm.188.879l1.288-.471c.031.063.094.125.126.157l-.754 1.13a2.37 2.37 0 01-.66-.816zm.88.942l.753-1.13c.063.03.126.062.22.062l.063 1.351c-.408 0-.754-.094-1.036-.283zm2.67-2.576l-1.005.409c-.032-.063-.095-.126-.126-.157l.283-.44.848.188zm-1.57-.408l.47.126-.251.377c-.063-.032-.126-.032-.22-.063v-.44zm.156 3.267l-.063-1.35a.447.447 0 00.189-.064l.848 1.068c-.283.158-.597.315-.974.346zm1.194-.534l-.88-1.068c.032-.063.095-.126.126-.189l1.32.346c-.126.377-.315.66-.566.91zm.691-1.57c0 .156-.032.282-.032.44l-1.319-.346v-.063-.157l1.288-.472c.031.189.063.377.063.597zm4.052-2.357a2.353 2.353 0 00-2.356 2.356 2.373 2.373 0 002.356 2.356 2.353 2.353 0 002.356-2.356 2.373 2.373 0 00-2.356-2.356zm-.188 1.131l.031.534c-.063.032-.125.032-.188.063l-.66-.817.817.22zM18.927 28l.848 1.068a.655.655 0 00-.126.188l-1.32-.376c.127-.346.315-.629.598-.88zm-.691 1.54c0-.158.031-.284.031-.44l1.32.345v.22l-1.289.471a3.165 3.165 0 01-.062-.597zm.188.879l1.288-.471a.686.686 0 00.126.157l-.754 1.13c-.283-.22-.534-.502-.66-.816zm.848.942l.754-1.13c.063.03.126.03.22.062l.063 1.351c-.377 0-.723-.094-1.037-.283zm2.702-2.576l-1.005.409c-.032-.063-.095-.126-.126-.157l.283-.44.848.188zm-1.57-.408l.47.126-.251.377c-.063-.032-.126-.032-.22-.063v-.44zm.156 3.267l-.063-1.35c.063 0 .126-.032.189-.064l.848 1.068c-.283.158-.597.315-.974.346zm1.163-.534l-.849-1.068c.063-.063.095-.126.126-.189l1.32.346c-.126.377-.315.66-.598.91zm.69-1.57c0 .156 0 .282-.03.44l-1.32-.346v-.063-.157l1.288-.472c.031.189.063.377.063.597zm4.21-2.357a2.353 2.353 0 00-2.356 2.356 2.373 2.373 0 002.356 2.356 2.353 2.353 0 002.356-2.356 2.373 2.373 0 00-2.356-2.356zm-.188 1.131l.031.534c-.063.032-.126.032-.189.063l-.66-.817.818.22zM25.209 28l.849 1.068c-.032.063-.095.126-.126.188l-1.32-.376c.126-.346.346-.629.597-.88zm-.69 1.54c0-.158.03-.284.03-.44l1.32.345v.22l-1.288.471a3.156 3.156 0 01-.063-.597zm.188.879l1.288-.471c.031.063.094.125.125.157l-.754 1.13a2.37 2.37 0 01-.66-.816zm.88.942l.753-1.13c.063.03.126.03.22.062l.063 1.351c-.408 0-.754-.094-1.037-.283zm2.67-2.576l-1.006.409c-.031-.063-.094-.126-.125-.157l.282-.44.848.188zm-1.571-.408l.471.126-.251.377c-.063-.032-.126-.063-.22-.063v-.44zm.157 3.267l-.063-1.35a.447.447 0 00.189-.064l.848 1.068c-.283.158-.597.315-.974.346zm1.194-.534l-.848-1.068c.03-.063.094-.126.125-.189l1.32.346a2.7 2.7 0 01-.597.91zm.69-1.57c0 .156 0 .282-.03.44l-1.32-.346v-.063-.157l1.288-.472c0 .189.063.377.063.597zm5.498.282c-.722 0-1.288.597-1.288 1.32 0 .722.566 1.287 1.288 1.287.723 0 1.32-.565 1.32-1.288 0-.754-.597-1.319-1.32-1.319zm0 2.23a.926.926 0 01-.942-.942c0-.534.408-.974.942-.974s.974.44.974.974-.44.942-.974.942zm-3.047-1.35c-.22 0-.377.188-.377.408 0 .22.189.377.377.377.22 0 .408-.189.408-.377a.416.416 0 00-.408-.408zm.031-.88c-.722 0-1.287.597-1.287 1.32 0 .722.565 1.287 1.287 1.287.723 0 1.32-.565 1.32-1.288-.032-.754-.629-1.319-1.32-1.319zm0 2.23a.926.926 0 01-.942-.942c0-.534.408-.974.942-.974.535 0 .974.44.974.974s-.44.942-.974.942z" fill="#fff"/></svg>