<svg width="48" height="48" fill="none" xmlns="http://www.w3.org/2000/svg"><path fill="#F6F6F6" d="M0 0h48v48H0z"/><path fill-rule="evenodd" clip-rule="evenodd" d="M26.895 34.132s.776 2.014 1.475 2.147h-8.992c-1.822 0-3.427-1.004-3.951-2.919l-5.228-15.22S9.733 16.293 9 16h9.215c1.834 0 3.02.657 3.722 2.971l4.958 15.16z" fill="#E22F28"/><path style="mix-blend-mode:multiply" opacity=".2" fill-rule="evenodd" clip-rule="evenodd" d="M26.895 34.132s.776 2.014 1.475 2.147h-8.992c-1.822 0-3.427-1.004-3.951-2.919l-5.228-15.22S9.733 16.293 9 16h9.215c1.834 0 3.02.657 3.722 2.971l4.958 15.16z" fill="url(#paint0_linear-Banks-Banks-Venets)"/><path fill-rule="evenodd" clip-rule="evenodd" d="M21.105 34.132s-.767 2.014-1.465 2.147h8.995c1.817 0 3.427-1.004 3.947-2.919L37.8 18.14s.476-1.848 1.2-2.14h-9.216c-1.814 0-3.004.657-3.713 2.971l-4.967 15.16z" fill="#E22F28"/><defs><linearGradient id="paint0_linear-Banks-Banks-Venets" x1="18.685" y1="14.207" x2="18.685" y2="38.066" gradientUnits="userSpaceOnUse"><stop stop-color="#fff"/><stop offset=".33" stop-color="#fff"/><stop offset=".76" stop-color="#131816"/><stop offset="1" stop-color="#131816"/></linearGradient></defs></svg>