<svg width="48" height="48" fill="none" xmlns="http://www.w3.org/2000/svg"><path fill="#F6F6F6" d="M0 0h48v48H0z"/><path d="M26.532 13.643l-4.803 4.803-.032 7.204 4.803-4.803a5.089 5.089 0 017.208.012l.02-.02a5.087 5.087 0 10-7.196-7.195zM14.523 13.623a5.089 5.089 0 00-.013 7.183l3.604-3.603.032-7.203-3.623 3.623zM21.738 40l2.365-2.365-2.345-2.345-.02 4.71z" fill="#B81B58"/><path d="M24.135 30.431l-.032 7.204 9.592-9.593a5.087 5.087 0 00.013-7.183l-9.573 9.572z" fill="#B81B58"/><path d="M24.135 30.431l-9.612-9.612a.153.153 0 01-.013-.013l-.02.02a5.09 5.09 0 000 7.196l7.268 7.268.012-2.492 2.365-2.367z" fill="#B81B58"/><path d="M21.77 32.797l-.012 2.493 2.345 2.345.032-7.203-2.365 2.366zM33.728 20.839l-.018.018a5.065 5.065 0 011.46 3.193l.026-6.345a5.067 5.067 0 01-1.468 3.134zM13.033 17.28l-.03 7.035a5.069 5.069 0 011.488-3.489l.02-.02a5.066 5.066 0 01-1.477-3.524l-.001-.002z" fill="#82294E"/></svg>