<svg width="48" height="48" fill="none" xmlns="http://www.w3.org/2000/svg"><path fill="#2C3C68" d="M0 0h48v48H0z"/><path d="M21.582 16.453c.095 0 .142-.074.095-.172l-.213-.466a.32.32 0 00-.26-.172h-8.002c-.095 0-.142.074-.095.172l.213.466a.32.32 0 00.26.172h8.002zM22.198 17.41a.32.32 0 00-.26-.172h-7.979c-.094 0-.142.073-.094.171l.213.466a.32.32 0 00.26.172h8.002c.095 0 .142-.073.095-.172l-.237-.466zM22.956 19.028a.32.32 0 00-.26-.171h-8.003c-.095 0-.142.073-.095.171l.214.466a.32.32 0 00.26.172h8.002c.095 0 .142-.073.095-.172l-.213-.466zM23.69 20.647a.32.32 0 00-.261-.171h-8.002c-.095 0-.142.073-.095.171l.213.466a.32.32 0 00.26.172h8.003c.095 0 .142-.074.095-.172l-.214-.466zM24.423 22.241a.32.32 0 00-.26-.171H16.16c-.095 0-.142.073-.095.171l.213.467a.32.32 0 00.26.171h8.003c.094 0 .142-.073.094-.171l-.213-.466zM25.157 23.86a.32.32 0 00-.26-.171h-7.978c-.095 0-.143.073-.095.171l.213.466a.32.32 0 00.26.172H25.3c.095 0 .142-.074.095-.172l-.237-.466zM25.915 25.455a.32.32 0 00-.26-.172h-8.003c-.094 0-.142.074-.094.172l.213.466a.32.32 0 00.26.172h8.002c.095 0 .142-.074.095-.172l-.213-.466z" fill="#fff"/><path fill-rule="evenodd" clip-rule="evenodd" d="M34.011 26.117c1.066 0 1.942-.908 1.942-2.011 0-1.104-.876-2.012-1.942-2.012-1.065 0-1.94.908-1.94 2.012 0 1.103.875 2.011 1.94 2.011z" fill="#D24B4C"/><path d="M23.618 14.834c.095 0 .166-.074.166-.196v-.442c0-.098-.07-.196-.166-.196H11.19a.19.19 0 00-.189.196v.442c0 .098.071.196.19.196h12.428zM18.315 26.902c-.094 0-.142.073-.094.172l5.066 10.841c.047.098.142.098.19 0l4.616-10.056a.32.32 0 01.26-.172h7.458A.19.19 0 0036 27.49v-.442c0-.098-.071-.196-.19-.196H18.316v.049zM35.787 14.05h-6.392a.19.19 0 00-.19.195v.442c0 .098.072.196.19.196h.947c.237.025 1.61.025 1.089 1.668l-4.262 9.419c-.047.098 0 .172.095.172h1.444a.32.32 0 00.26-.172l4.594-9.983c.213-.442.473-.76.757-.908.284-.147.687-.245 1.184-.245h.284a.19.19 0 00.19-.196v-.442c-.024-.073-.095-.147-.19-.147z" fill="#fff"/></svg>