<svg width="48" height="48" fill="none" xmlns="http://www.w3.org/2000/svg"><path fill="#006F28" d="M0 0h48v48H0z"/><path fill-rule="evenodd" clip-rule="evenodd" d="M9 27.554V16.097h4.903c2.573 0 3.446.923 3.446 2.719v.097c0 1.068-.388 1.99-1.407 2.379 1.02.29 1.796 1.019 1.796 2.815v.291c0 2.476-1.408 3.156-3.107 3.156H9zm3.058-4.903h1.457c.68 0 1.262.582 1.262 1.262v.388c0 .632-.437 1.166-1.165 1.166h-1.554V22.65zm1.36-4.466h-1.36v2.427h1.262c.68 0 1.068-.582 1.068-1.213v-.146c0-.534-.388-1.068-.97-1.068z" fill="#fff"/><path d="M18.563 16.146h3.738l2.087 6.553 1.796-6.553h3.253c-.566 1.748-1.913 5.961-2.767 8.447-1.02 2.965-3.35 3.155-4.272 3.155-1.213 0-2.735-.243-3.398-.388l.582-2.282c.308.13 1.127.388 1.942.388 1.214 0 1.748-.485 1.893-.97-.873.048-1.953-.729-2.233-1.457-.194-.505-1.828-4.773-2.62-6.893zM34 16c-1.408 0-2.67.195-3.64.534l.485 2.33c.728-.242 1.941-.534 2.864-.534.922 0 1.505.389 1.505 1.166 0 .776-.486 1.213-1.505 1.213h-1.845v1.99h1.845c1.893 0 2.087.874 2.087 1.554s-.63 1.165-2.087 1.165c-1.165 0-2.557-.356-3.107-.534-.097.615-.31 1.942-.388 2.33.776.291 2.233.534 3.883.534 4.223 0 4.903-1.602 4.903-3.253v-.242c0-1.505-.583-2.524-2.33-2.961 1.65-.437 1.65-1.845 1.65-2.573C38.32 15.903 35.408 16 34 16zM9 31h30v2H9v-2z" fill="#fff"/></svg>